<?xml version="1.0" standalone="no"?>
<!DOCTYPE svg PUBLIC "-//W3C//DTD SVG 1.1//EN" "http://www.w3.org/Graphics/SVG/1.1/DTD/svg11.dtd" >
<svg>
<metadata>
Created by FontForge 20090914 at Mon Jun 21 12:17:50 2021
 By www-data
Copyright (c) 2012 by Hagilda. All rights reserved.
</metadata>
<defs>
<font id="Alef-Regular" horiz-adv-x="0" >
  <font-face 
    font-family="Alef"
    font-weight="400"
    font-stretch="normal"
    units-per-em="2048"
    panose-1="0 0 5 0 0 0 0 0 0 0"
    ascent="1638"
    descent="-410"
    x-height="1040"
    cap-height="1438"
    bbox="-102 -682.001 1854 2067"
    underline-thickness="150"
    underline-position="-67"
    unicode-range="U+000D-U+FB4B"
  />
<missing-glyph horiz-adv-x="748" 
d="M68 0v1365h544v-1365h-544zM136 68h408v1229h-408v-1229z" />
    <glyph glyph-name="uniFB01" unicode="fi" horiz-adv-x="1541" 
d="M451 1040l902.001 -0.000976562v-1040h-172v895h-730v-750h334v-145h-682v145h174v750h-174v145h174v113c0 49.333 4.66699 92 14 128s25.666 69.333 48.999 100s57.5 53.834 102.5 69.501s100.5 23.5 166.5 23.5c86 0 188.333 -14.333 307 -43l-31 -141
c-112 23.333 -197.333 35 -256 35c-28.667 0 -52.834 -1.5 -72.501 -4.5s-36.167 -9 -49.5 -18s-23.666 -18.5 -30.999 -28.5s-12.833 -25 -16.5 -45s-6 -39 -7 -57s-1.5 -43 -1.5 -75v-57zM1187 1248c-22.667 21.333 -34 48.332 -34 80.999c0 32 11.333 59.333 34 82
c22.667 21.333 50 32 82 32c30.667 0 57.334 -10.667 80.001 -32c22 -23.333 33 -50.666 33 -81.999c0 -32 -11 -59 -33 -81c-22.667 -22.667 -49.334 -34 -80.001 -34c-32 0 -59.333 11.333 -82 34z" />
    <glyph glyph-name="uniFB02" unicode="fl" horiz-adv-x="1513" 
d="M1179 1440l172.001 -0.000976562v-1440h-1248v145h174v750h-174v145h174v113c0 49.333 4.66699 92 14 128s25.666 69.333 48.999 100s57.5 53.834 102.5 69.501s100.5 23.5 166.5 23.5c86 0 188.333 -14.333 307 -43l-31 -141c-112 23.333 -197.333 35 -256 35
c-28.667 0 -52.834 -1.5 -72.501 -4.5s-36.167 -9 -49.5 -18s-23.666 -18.5 -30.999 -28.5s-12.833 -25 -16.5 -45s-6 -39 -7 -57s-1.5 -43 -1.5 -75v-57h334v-145h-334v-750h728v1295z" />
    <glyph glyph-name=".notdef" horiz-adv-x="748" 
d="M68 0v1365h544v-1365h-544zM136 68h408v1229h-408v-1229z" />
    <glyph glyph-name="glyph1" horiz-adv-x="2048" 
 />
    <glyph glyph-name="glyph1" horiz-adv-x="2048" 
 />
    <glyph glyph-name="uni000D" unicode="&#xd;" horiz-adv-x="2048" 
 />
    <glyph glyph-name="space" unicode=" " horiz-adv-x="580" 
 />
    <glyph glyph-name="exclam" unicode="!" horiz-adv-x="645" 
d="M150 1363c23.333 36 48 61.167 74 75.5s53 21.5 81 21.5c22.667 0 42 -4.66699 58 -14s29 -21.833 39 -37.5s17.333 -34.167 22 -55.5s7 -44 7 -68l-41 -863l-119 -34l-40 808zM323 224c16.667 0 32.5 -3.16699 47.5 -9.5s28 -15 39 -26s19.667 -24 26 -39
s9.5 -30.833 9.5 -47.5c0 -16 -3.16699 -31.333 -9.5 -46s-15 -27.667 -26 -39s-24 -20.333 -39 -27s-30.833 -10 -47.5 -10c-16 0 -31.5 3.16699 -46.5 9.5s-28.167 15 -39.5 26s-20.333 24 -27 39s-10 30.833 -10 47.5s3.33301 32.5 10 47.5s15.5 28 26.5 39
s24 19.667 39 26s30.833 9.5 47.5 9.5z" />
    <glyph glyph-name="quotedbl" unicode="&#x22;" horiz-adv-x="923" 
d="M126 1409c28 20 52.167 33.667 72.5 41s40.833 11 61.5 11c36.667 0 66.167 -7 88.5 -21s38.333 -32.167 48 -54.5s13.5 -47.833 11.5 -76.5s-9 -57.667 -21 -87c-8 -18.667 -18.5 -41 -31.5 -67l-42 -80l-45 -80.5l-38.5 -68.5h-134l87 289zM527 1409
c28 20 52 33.6689 72 41.002s40.333 11 61 11c36 0 65 -7 87 -21s38 -32.333 48 -55s14.333 -48.334 13 -77.001s-8 -57.334 -20 -86.001c-8 -18.667 -18.667 -41 -32 -67l-42.5 -80l-45 -80.5l-38.5 -68.5h-134l87 289z" />
    <glyph glyph-name="numbersign" unicode="#" horiz-adv-x="1291" 
d="M913 946h110l-78 -213h236l-39 -105h-232l-77 -206h235l-37 -107h-237l-78 -211h-109l70 211h-219l-80 -211h-117l80 211h-231l37 107h231l78 206h-240l41 105h238l78 213h108l-78 -213h232zM718 422l78 206h-230l-71 -206h223z" />
    <glyph glyph-name="dollar" unicode="$" horiz-adv-x="1170" 
d="M654 1302v-474.996c50.667 -14 94 -28.167 130 -42.5s71.833 -32.833 107.5 -55.5s64.334 -48.167 86.001 -76.5s39.167 -63.5 52.5 -105.5s20 -89.667 20 -143c0 -120.667 -35.5 -216.334 -106.5 -287.001s-167.5 -115 -289.5 -133v-115h-145v107
c-134.667 2.66699 -264.334 31 -389.001 85l61 145c112 -46 221.333 -71.333 328 -76v557c-49.333 13.333 -91.5 27.166 -126.5 41.499s-68.833 32.166 -101.5 53.499s-59.167 45.666 -79.5 72.999s-36.833 60.5 -49.5 99.5s-20 83.5 -22 133.5
c0 102.667 34.333 187 103 253s160.667 104.667 276 116v114h145v-115c109.333 -10 214.333 -37.333 315 -82l-61 -145c-96 40.667 -180.667 65 -254 73zM509 868.004v433c-60 -9.33301 -108.333 -31.5 -145 -66.5s-55 -83.833 -55 -146.5c0 -62 15.833 -108.5 47.5 -139.5
s82.5 -57.833 152.5 -80.5zM654 646.004v-503.001c68.667 16 122 46.333 160 91s57 101.334 57 170.001c0 67.333 -17.667 118.5 -53 153.5s-90 64.5 -164 88.5z" />
    <glyph glyph-name="percent" unicode="%" horiz-adv-x="1217" 
d="M354 1326c28.667 0 56.499 -4.33301 83.499 -13s50.5 -24 70.5 -46c20.667 -21.333 37.5 -52 50.5 -92s19.5 -88 19.5 -144c0 -37.333 -2.83301 -68.333 -8.5 -93s-13.5 -47.667 -23.5 -69c-10.667 -21.333 -23 -39.166 -37 -53.499s-29.333 -25.833 -46 -34.5
s-34.167 -14.667 -52.5 -18s-37.166 -5 -56.499 -5c-29.333 0 -57.333 4.16699 -84 12.5s-50.667 23.166 -72 44.499c-20.667 21.333 -37.5 50.5 -50.5 87.5s-19.5 83.167 -19.5 138.5c0 56 6.5 102.333 19.5 139s29.833 65.667 50.5 87c21.333 22 45.333 37.333 72 46
s54.667 13 84 13zM353.999 1245c-21.333 0 -40.166 -3.83301 -56.499 -11.5s-29.833 -20.167 -40.5 -37.5s-19 -38.666 -25 -63.999s-9 -55.666 -9 -90.999c0 -36 3 -66.5 9 -91.5s14.333 -46.167 25 -63.5c10.667 -16.667 24.167 -29 40.5 -37s35.166 -12 56.499 -12
c20 0 38.167 4 54.5 12s29.833 20.333 40.5 37c10.667 17.333 19 38.5 25 63.5s9 55.5 9 91.5c0 35.333 -3 65.666 -9 90.999s-14.333 46.666 -25 63.999s-24.167 29.833 -40.5 37.5s-34.5 11.5 -54.5 11.5zM1059 1065v-125l-901 -674v125zM864.999 581
c28.667 0 56.499 -4.33301 83.499 -13s50.5 -24 70.5 -46c20.667 -21.333 37.5 -50.333 50.5 -87s19.5 -83 19.5 -139c0 -37.333 -2.83301 -70 -8.5 -98s-13.5 -52.667 -23.5 -74c-10.667 -21.333 -23 -39.166 -37 -53.499s-29.333 -25.833 -46 -34.5
s-34.167 -14.667 -52.5 -18s-37.166 -5 -56.499 -5c-29.333 0 -57.333 4.16699 -84 12.5s-50.667 23.166 -72 44.499c-20.667 21.333 -37.5 50.5 -50.5 87.5s-19.5 83.167 -19.5 138.5c0 56 6.5 102.333 19.5 139s29.833 65.667 50.5 87c21.333 22 45.333 37.333 72 46
s54.667 13 84 13zM864.998 500c-21.333 0 -40.166 -3.83301 -56.499 -11.5s-29.833 -20.167 -40.5 -37.5s-19 -38.666 -25 -63.999s-9 -55.666 -9 -90.999c0 -36 3 -66.5 9 -91.5s14.333 -46.167 25 -63.5c10.667 -16.667 24.167 -29 40.5 -37s35.166 -12 56.499 -12
c20 0 38.167 4 54.5 12s29.833 20.333 40.5 37c10.667 17.333 19 38.5 25 63.5s9 55.5 9 91.5c0 35.333 -3 65.666 -9 90.999s-14.333 46.666 -25 63.999s-24.167 29.833 -40.5 37.5s-34.5 11.5 -54.5 11.5z" />
    <glyph glyph-name="ampersand" unicode="&#x26;" horiz-adv-x="1505" 
d="M1352 298l97.9941 -75.001c-16.667 -32.667 -30.334 -58.334 -41.001 -77.001s-24.834 -40.167 -42.501 -64.5s-34.5 -43 -50.5 -56s-35.333 -24.167 -58 -33.5s-47 -14 -73 -14c-45.333 0 -86.333 10.333 -123 31s-79.667 61.334 -129 122.001
c-118.667 -103.333 -256.667 -155 -414 -155c-38 0 -74.667 3.33301 -110 10c-97.333 17.333 -173.166 58.333 -227.499 123s-81.5 145.334 -81.5 242.001c0 46.667 5.16699 88.334 15.5 125.001s29 73.334 56 110.001s58.333 71.5 94 104.5s83.834 73.833 144.501 122.5
c-60.667 79.333 -101 141.833 -121 187.5s-30 91.5 -30 137.5c0 92.667 30 169.5 90 230.5s146 91.5 258 91.5c86.667 0 190.334 -14.333 311.001 -43l-41 -135c-7.33301 1.33301 -24.166 5 -50.499 11s-43.333 9.66699 -51 11l-38.5 6.5c-18 3 -33.5 5 -46.5 6
s-26.5 1.5 -40.5 1.5c-73.333 0 -126.166 -16.333 -158.499 -49s-48.5 -75.334 -48.5 -128.001c0 -28 7.83301 -58.667 23.5 -92s43.167 -78 82.5 -134l410 -529c50.667 80.667 84.334 171 101.001 271h-131v137h448v-137h-182
c-29.333 -154.667 -77.666 -284.334 -144.999 -389.001c36 -48 64.5 -82.667 85.5 -104s40.5 -32 58.5 -32c23.333 0 46.833 12.833 70.5 38.5s52.834 68.167 87.501 127.5zM839.994 251.999l-344 448.999c-69.333 -50.667 -122.833 -101.5 -160.5 -152.5
s-56.5 -109.167 -56.5 -174.5c0 -71.333 23.5 -129 70.5 -173s108.833 -66 185.5 -66c46.667 0 97 9.83301 151 29.5s105.333 48.834 154 87.501z" />
    <glyph glyph-name="quotesingle" unicode="'" horiz-adv-x="557" 
d="M145 1409c28 20 51.999 33.6689 71.999 41.002s40.333 11 61 11c36 0 65 -7 87 -21s38 -32.333 48 -55s14.167 -48.334 12.5 -77.001s-8.5 -57.334 -20.5 -86.001c-7.33301 -18.667 -17.666 -41 -30.999 -67l-42.5 -80l-45 -80.5l-38.5 -68.5h-134l87 289z" />
    <glyph glyph-name="parenleft" unicode="(" horiz-adv-x="781" 
d="M620 1323c-42 -60 -78.167 -117.333 -108.5 -172s-55.5 -110.834 -75.5 -168.501s-34.667 -118.667 -44 -183s-14 -136.166 -14 -215.499s4.66699 -151.166 14 -215.499s24 -125.333 44 -183s45.167 -113.834 75.5 -168.501s66.5 -112 108.5 -172l-52 -54
c-57.333 43.333 -109.166 93 -155.499 149s-85.833 117.5 -118.5 184.5s-58 139 -76 216s-27 158.167 -27 243.5s9 166.5 27 243.5s43.333 149 76 216s72.167 128.5 118.5 184.5s98.166 105.667 155.499 149z" />
    <glyph glyph-name="parenright" unicode=")" horiz-adv-x="781" 
d="M161 -155c42 60 78.167 117.333 108.5 172s55.5 110.834 75.5 168.501s34.667 118.667 44 183s14 136.166 14 215.499s-4.66699 151.166 -14 215.499s-24 125.333 -44 183s-45.167 113.834 -75.5 168.501s-66.5 112 -108.5 172l52 54
c56.667 -43.333 108.334 -93 155.001 -149s86.334 -117.5 119.001 -184.5s58 -139 76 -216s27 -158.167 27 -243.5s-9 -166.5 -27 -243.5s-43.333 -149 -76 -216s-72.334 -128.5 -119.001 -184.5s-98.334 -105.667 -155.001 -149z" />
    <glyph glyph-name="asterisk" unicode="*" horiz-adv-x="1099" 
d="M502 1439h100l12 -251l239 64l32 -94l-234 -88l138 -207l-80 -58l-157 195l-157 -195l-79 58l136 209l-235 88l32 94l241 -66z" />
    <glyph glyph-name="plus" unicode="+" horiz-adv-x="1130" 
d="M979 608v-137h-346v-345h-137v345h-345v137h346v346h137v-346h345z" />
    <glyph glyph-name="comma" unicode="," horiz-adv-x="698" 
d="M205 177c25.333 18 47.167 30.332 65.5 36.999s36.833 10 55.5 10c32.667 0 59 -6.5 79 -19.5s34.5 -29.667 43.5 -50s12.833 -43.5 11.5 -69.5s-7.33301 -52 -18 -78c-7.33301 -17.333 -17 -37.666 -29 -60.999l-38 -72.5l-40.5 -73.5l-35.5 -62h-122l79 262z" />
    <glyph glyph-name="hyphen" unicode="-" horiz-adv-x="1164" 
d="M204 632h756v-148h-756v148z" />
    <glyph glyph-name="period" unicode="." horiz-adv-x="645" 
d="M323 224c16.667 0 32.501 -3.00098 47.501 -9.00098s28.167 -14.667 39.5 -26c23.333 -23.333 35 -52.333 35 -87c0 -34 -11.667 -62.667 -35 -86c-11.333 -11.333 -24.5 -20.166 -39.5 -26.499s-30.833 -9.5 -47.5 -9.5s-32.334 3.16699 -47.001 9.5
s-27.667 15.166 -39 26.499s-20.166 24.333 -26.499 39s-9.5 30.334 -9.5 47.001s3.16699 32.5 9.5 47.5s15.166 28.167 26.499 39.5c23.333 23.333 52 35 86 35z" />
    <glyph glyph-name="slash" unicode="/" horiz-adv-x="1147" 
d="M849 1438h159l-710 -1438h-159z" />
    <glyph glyph-name="zero" unicode="0" horiz-adv-x="1247" 
d="M624 1081c76 0 146.667 -14.5 212 -43.5s121.666 -68.5 168.999 -118.5s84.5 -108.667 111.5 -176s40.5 -139 40.5 -215c0 -76.667 -13.5 -148.667 -40.5 -216s-64.167 -126 -111.5 -176s-103.666 -89.5 -168.999 -118.5s-136 -43.5 -212 -43.5
c-76.667 0 -147.5 14.5 -212.5 43.5s-121.333 68.5 -169 118.5s-85 108.667 -112 176s-40.5 139.333 -40.5 216c0 76 13.5 147.667 40.5 215s64.333 126 112 176s104 89.5 169 118.5s135.833 43.5 212.5 43.5zM624 923c-52 0 -100 -10.167 -144 -30.5s-82 -48.333 -114 -84
s-57 -77.5 -75 -125.5s-27 -99.667 -27 -155s9 -107.166 27 -155.499s43 -90.333 75 -126s70 -63.667 114 -84s92 -30.5 144 -30.5s100 10.167 144 30.5s81.833 48.333 113.5 84s56.5 77.667 74.5 126s27 100.166 27 155.499s-9 107 -27 155s-42.833 89.833 -74.5 125.5
s-69.5 63.667 -113.5 84s-92 30.5 -144 30.5z" />
    <glyph glyph-name="one" unicode="1" horiz-adv-x="759" 
d="M90 923l358 160l87 -44v-1039h-174v874l-210 -89z" />
    <glyph glyph-name="two" unicode="2" horiz-adv-x="953" 
d="M501 1083c49.333 0 94.4971 -5.49902 135.497 -16.499s78 -28.167 111 -51.5s58.833 -54.833 77.5 -94.5s28 -85.834 28 -138.501c0 -43.333 -5 -81.333 -15 -114c-18.667 -58.667 -60 -107.667 -124 -147c-32 -20 -101.667 -53.333 -209 -100l-5 -2.5
c-2 -1 -3.66699 -1.66699 -5 -2s-3 -1.16602 -5 -2.49902c-38.667 -16.667 -63.5 -27.667 -74.5 -33s-28.667 -16.333 -53 -33s-40 -32.334 -47 -47.001s-14.333 -35 -22 -61s-11.5 -56 -11.5 -90h551v-150h-723v140c0 50.667 6 96.167 18 136.5s27.333 74.5 46 102.5
s44.834 54.167 78.501 78.5s67 44.666 100 60.999s74.5 34.5 124.5 54.5c38 15.333 66.667 27.666 86 36.999s39.333 21.833 60 37.5s35.167 33.834 43.5 54.501s12.5 45.334 12.5 74.001c0 56.667 -17.667 98 -53 124s-82.666 39 -141.999 39
c-95.333 0 -195.666 -25.667 -300.999 -77l-54 129c120.667 61.333 244.667 92 372 92z" />
    <glyph glyph-name="three" unicode="3" horiz-adv-x="977" 
d="M554 901l-158 -0.000976562c-59.333 0 -107 2.66699 -143 8c-53.333 8 -101.666 20.333 -144.999 37l57 143c46.667 -18 91 -29.667 133 -35c42.667 -5.33301 111 -8 205 -8h264v-114l-254 -314c50.667 4 97 -0.333008 139 -13s77.167 -31.167 105.5 -55.5
s52.5 -53.166 72.5 -86.499s34.5 -68.5 43.5 -105.5s13.5 -74.833 13.5 -113.5c0 -224.667 -141 -378.667 -423 -462c-114.667 -34 -239.334 -53 -374.001 -57v155c124 8 224.667 22.667 302 44c100 28 178.5 68 235.5 120s85.5 121.333 85.5 208
c0 74.667 -20.5 131.667 -61.5 171s-96.833 59 -167.5 59c-48 0 -100.333 -10.333 -157 -31l-48 95z" />
    <glyph glyph-name="four" unicode="4" horiz-adv-x="1129" 
d="M515 1083l165 -36c-10 -90 -41 -187 -93 -291l-304 -606h420v276h168v-276h188v-150h-188v-274h-168v274h-593l-40 124l328 648c37.333 74 63 128.5 77 163.5s27.333 84.167 40 147.5z" />
    <glyph glyph-name="five" unicode="5" horiz-adv-x="977" 
d="M90 -275l-0.000976562 153.999c124 8 224.667 22.667 302 44c100 28 178.5 68 235.5 120s85.5 121.667 85.5 209c0 74.667 -21.333 132.334 -64 173.001c-40 38 -95.667 57 -167 57c-75.333 0 -152.666 -18.667 -231.999 -56l-87 60l33 560h234
c94 0 162.333 2.66699 205 8c42 5.33301 86.333 17 133 35l57 -143c-43.333 -16.667 -91.666 -29 -144.999 -37c-36 -5.33301 -83.667 -8 -143 -8h-187l-18 -309c62 19.333 124 29 186 29c114.667 0 202 -31 262 -93c35.333 -35.333 62 -78 80 -128s27 -102 27 -156
c0 -224.667 -141 -378.667 -423 -462c-114.667 -34 -239.334 -53 -374.001 -57z" />
    <glyph glyph-name="six" unicode="6" horiz-adv-x="1065" 
d="M872 1324l-0.000976562 -135.999c-166 7.33301 -295.667 -22.667 -389 -90s-153.333 -175.666 -180 -324.999c42.667 28.667 90.834 51.5 144.501 68.5s103.834 25.5 150.501 25.5c118.667 0 212.667 -36.333 282 -109c69.333 -78 104 -185.667 104 -323
c0 -60 -8.83301 -116.833 -26.5 -170.5s-43.834 -102.334 -78.501 -146.001s-81 -78.334 -139 -104.001s-124 -38.5 -198 -38.5c-102.667 0 -188.167 22.667 -256.5 68s-117.333 107.5 -147 186.5s-43.167 173.5 -40.5 283.5c4 148.667 27 284 69 406
c27.333 78 65 145 113 201s103.5 99 166.5 129s129.5 51 199.5 63s145.333 15.667 226 11zM283.999 607.001c-8 -39.333 -12 -83.335 -12 -132.002c0 -50.667 4.66699 -96.667 14 -138s24.166 -78.666 44.499 -111.999s48.333 -59.166 84 -77.499s78.167 -27.5 127.5 -27.5
c86 0 152.167 28 198.5 84s69.5 131.667 69.5 227c0 104 -23 179.667 -69 227c-42.667 43.333 -102 65 -178 65c-43.333 0 -90.166 -10.833 -140.499 -32.5s-96.5 -49.5 -138.5 -83.5z" />
    <glyph glyph-name="seven" unicode="7" horiz-adv-x="992" 
d="M90 1046h445c76.667 0 139.667 3 189 9c46.667 6 93 15 139 27l49 -144c-129.333 -188.667 -221.333 -338.334 -276 -449.001c-57.333 -113.333 -94.333 -224 -111 -332c-13.333 -85.333 -20 -201.333 -20 -348v-74h-174c0 183.333 7.5 327.333 22.5 432
s50.5 217 106.5 337c42 90.667 118 221.334 228 392.001h-598v150z" />
    <glyph glyph-name="eight" unicode="8" horiz-adv-x="1064" 
d="M778 704c31.333 -16 59.8311 -33.998 85.498 -53.998s47.5 -43.333 65.5 -70s31.833 -57 41.5 -91s14.5 -73.333 14.5 -118c0 -62.667 -11.5 -118.5 -34.5 -167.5s-54.833 -90.333 -95.5 -124s-88.5 -59.334 -143.5 -77.001s-114.833 -26.5 -179.5 -26.5
s-124.667 8.83301 -180 26.5s-103.166 43.667 -143.499 78s-72 76.5 -95 126.5s-34.5 107 -34.5 171c0 38.667 5.33301 74.834 16 108.501s25.5 64.5 44.5 92.5s41.833 53.333 68.5 76s56.334 42.667 89.001 60c-20 14 -38.667 29.667 -56 47s-32.5 37.166 -45.5 59.499
s-23.167 47.833 -30.5 76.5s-11 61.334 -11 98.001c0 51.333 10.333 96.666 31 135.999s48.667 72.5 84 99.5s76 47.5 122 61.5s94.667 21 146 21c52 0 101.333 -7 148 -21s87.667 -34.5 123 -61.5s63.333 -60.333 84 -100s31 -84.834 31 -135.501
c0 -59.333 -12.667 -113.333 -38 -162s-61 -92 -107 -130zM536.998 1173c-31.333 0 -60.6689 -3.83594 -88.002 -11.5029s-51 -19 -71 -34s-35.833 -33.833 -47.5 -56.5s-17.5 -49 -17.5 -79c0 -45.333 11.333 -81.666 34 -108.999s51 -49.166 85 -65.499
s70.833 -29 110.5 -38s76.834 -17.833 111.501 -26.5c20.667 18.667 38 37 52 55s25.333 36.5 34 55.5s14.834 39 18.501 60s5.5 43.833 5.5 68.5c0 30.667 -6.16699 57.334 -18.5 80.001s-28.833 41.5 -49.5 56.5s-44.667 26.167 -72 33.5s-56.333 11 -87 11z
M531.995 116.999c44 0 83.6689 5.99805 119.002 17.998s65.166 29 89.499 51s43 48.667 56 80s19.5 66.333 19.5 105c0 34 -5.83301 63.667 -17.5 89s-27.5 47 -47.5 65s-43.333 33.167 -70 45.5s-54.667 23 -84 32s-59.5 16.833 -90.5 23.5s-60.5 13.334 -88.5 20.001
c-56 -32 -98.333 -70 -127 -114s-43 -95.333 -43 -154c0 -40.667 6.5 -77.167 19.5 -109.5s31.667 -59.666 56 -81.999s54.166 -39.5 89.499 -51.5s75 -18 119 -18z" />
    <glyph glyph-name="nine" unicode="9" horiz-adv-x="1065" 
d="M201 -265l0.000976562 135.999c166 -7.33301 295.667 22.667 389 90s153.333 175.666 180 324.999c-42.667 -28.667 -90.834 -51.5 -144.501 -68.5s-103.834 -25.5 -150.501 -25.5c-118.667 0 -212.667 36.333 -282 109c-69.333 78 -104 185.667 -104 323
c0 60 8.83301 116.833 26.5 170.5s43.834 102.334 78.501 146.001s81 78.334 139 104.001s124 38.5 198 38.5c102.667 0 188.167 -22.667 256.5 -68s117.333 -107.5 147 -186.5s43.167 -173.5 40.5 -283.5c-4 -148.667 -27 -284 -69 -406c-27.333 -78 -65 -145 -113 -201
s-103.5 -99 -166.5 -129s-129.5 -51 -199.5 -63s-145.333 -15.667 -226 -11zM789.001 451.999c8 39.333 12 83.335 12 132.002c0 50.667 -4.66699 96.667 -14 138s-24.166 78.666 -44.499 111.999s-48.333 59.166 -84 77.499s-78.167 27.5 -127.5 27.5
c-86 0 -152.167 -28 -198.5 -84s-69.5 -131.667 -69.5 -227c0 -104 23 -179.667 69 -227c42.667 -43.333 102 -65 178 -65c43.333 0 90.166 10.833 140.499 32.5s96.5 49.5 138.5 83.5z" />
    <glyph glyph-name="colon" unicode=":" horiz-adv-x="670" 
d="M335 887c18.667 0 36.167 -3.5 52.5 -10.5s30.5 -16.5 42.5 -28.5s21.5 -26.167 28.5 -42.5s10.5 -33.833 10.5 -52.5c0 -18 -3.5 -35.167 -10.5 -51.5s-16.5 -30.5 -28.5 -42.5c-12 -12.667 -26.167 -22.5 -42.5 -29.5s-33.833 -10.5 -52.5 -10.5
s-36.167 3.5 -52.5 10.5s-30.5 16.833 -42.5 29.5c-12 12 -21.5 26.167 -28.5 42.5s-10.5 33.5 -10.5 51.5c0 18.667 3.5 36.167 10.5 52.5s16.5 30.5 28.5 42.5s26.167 21.5 42.5 28.5s33.833 10.5 52.5 10.5zM335 248c18.667 0 36.167 -3.5 52.5 -10.5
s30.5 -16.5 42.5 -28.5s21.5 -26.167 28.5 -42.5s10.5 -33.833 10.5 -52.5c0 -18 -3.5 -35.167 -10.5 -51.5s-16.5 -30.5 -28.5 -42.5c-12 -12.667 -26.167 -22.5 -42.5 -29.5s-33.833 -10.5 -52.5 -10.5s-36.167 3.5 -52.5 10.5s-30.5 16.833 -42.5 29.5
c-12 12 -21.5 26.167 -28.5 42.5s-10.5 33.5 -10.5 51.5c0 18.667 3.5 36.167 10.5 52.5s16.5 30.5 28.5 42.5s26.167 21.5 42.5 28.5s33.833 10.5 52.5 10.5z" />
    <glyph glyph-name="semicolon" unicode=";" horiz-adv-x="724" 
d="M393 887c18.667 0 36.167 -3.5 52.5 -10.5s30.5 -16.5 42.5 -28.5s21.5 -26.167 28.5 -42.5s10.5 -33.833 10.5 -52.5c0 -18 -3.5 -35.167 -10.5 -51.5s-16.5 -30.5 -28.5 -42.5c-12 -12.667 -26.167 -22.5 -42.5 -29.5s-33.833 -10.5 -52.5 -10.5
s-36.167 3.5 -52.5 10.5s-30.5 16.833 -42.5 29.5c-12 12 -21.5 26.167 -28.5 42.5s-10.5 33.5 -10.5 51.5c0 18.667 3.5 36.167 10.5 52.5s16.5 30.5 28.5 42.5s26.167 21.5 42.5 28.5s33.833 10.5 52.5 10.5zM260 177c25.333 18 47.167 30.332 65.5 36.999
s36.833 10 55.5 10c32.667 0 59 -6.5 79 -19.5s34.5 -29.667 43.5 -50s12.833 -43.5 11.5 -69.5s-7.33301 -52 -18 -78c-7.33301 -17.333 -17 -37.666 -29 -60.999l-38 -72.5l-40.5 -73.5l-35.5 -62h-122l79 262z" />
    <glyph glyph-name="less" unicode="&#x3c;" horiz-adv-x="957" 
d="M892 238v-141l-827 362v116l827 360v-140l-643 -277z" />
    <glyph glyph-name="equal" unicode="=" horiz-adv-x="1130" 
d="M151 665v137h828v-137h-828zM151 282v137h828v-137h-828z" />
    <glyph glyph-name="greater" unicode="&#x3e;" horiz-adv-x="959" 
d="M894 459l-827 -362v141l643 280l-643 277v140l827 -360v-116z" />
    <glyph glyph-name="question" unicode="?" horiz-adv-x="1096" 
d="M120 1363c38.667 19.333 78.0039 36.002 118.004 50.002s81.333 25 124 33c24 4 48.667 7.33301 74 10s50.666 4 75.999 4c33.333 0 66.166 -2.5 98.499 -7.5s64.5 -13.5 96.5 -25.5c62.667 -25.333 113.167 -65 151.5 -119s57.5 -124 57.5 -210
c0 -63.333 -10.333 -116.833 -31 -160.5s-49.834 -81.834 -87.501 -114.501s-83.334 -61.5 -137.001 -86.5s-113.5 -50.167 -179.5 -75.5v-239l-139 -40l-60 350l190 82c56 24 103.5 49.167 142.5 75.5s69 56.333 90 90s31.5 76.167 31.5 127.5c0 38 -7.5 70.333 -22.5 97
s-34.833 48 -59.5 64c-20.667 13.333 -43.667 22.666 -69 27.999s-52 8 -80 8c-58 0 -115.5 -9.16699 -172.5 -27.5s-108.5 -39.5 -154.5 -63.5zM410.004 224.002c16.667 0 32.5 -3.16699 47.5 -9.5s28 -15 39 -26s19.667 -24 26 -39s9.5 -30.833 9.5 -47.5
c0 -16 -3.16699 -31.333 -9.5 -46s-15 -27.667 -26 -39s-24 -20.333 -39 -27s-30.833 -10 -47.5 -10c-16 0 -31.5 3.16699 -46.5 9.5s-28.167 15 -39.5 26s-20.333 24 -27 39s-10 30.833 -10 47.5s3.33301 32.5 10 47.5s15.5 28 26.5 39s24 19.667 39 26
s30.833 9.5 47.5 9.5z" />
    <glyph glyph-name="at" unicode="@" horiz-adv-x="1700" 
d="M849 -212c-66.667 0 -130.666 8.6709 -191.999 26.0039s-118.666 41.5 -171.999 72.5s-101.833 68.5 -145.5 112.5s-81.167 92.833 -112.5 146.5s-55.5 111.167 -72.5 172.5s-25.5 125.333 -25.5 192s8.5 130.667 25.5 192s41.167 118.833 72.5 172.5
s68.833 102.5 112.5 146.5s92.167 81.5 145.5 112.5s110.666 55.167 171.999 72.5s125.333 26 192 26c66 0 129.667 -8.66699 191 -26s118.833 -41.666 172.5 -72.999s102.5 -69 146.5 -113s81.667 -92.833 113 -146.5s55.666 -111.167 72.999 -172.5s26 -125 26 -191
c0 -132 -34.333 -230.667 -103 -296s-174.334 -98 -317.001 -98c-22 0 -45.167 0.833008 -69.5 2.5s-49.166 4.16699 -74.499 7.5c-5.33301 20 -9.33301 37.333 -12 52c-1.33301 5.33301 -2.16602 10.666 -2.49902 15.999s-0.833008 10.666 -1.5 15.999
c-0.666992 4.66699 -1 11.5 -1 20.5v31.5c0 23.333 0.166992 44.166 0.5 62.499s0.5 33.5 0.5 45.5l-10 2c-10 -35.333 -22.5 -68.166 -37.5 -98.499s-32.667 -57 -53 -80s-43.5 -41 -69.5 -54s-55 -19.5 -87 -19.5c-30.667 0 -57.5 6.16699 -80.5 18.5
s-42.667 28.833 -59 49.5s-29.666 44.334 -39.999 71.001s-17.833 54.667 -22.5 84c-3.33301 19.333 -5.83301 38.833 -7.5 58.5s-2.5 40.167 -2.5 61.5c0 51.333 6 102.5 18 153.5s32 96.833 60 137.5s65.333 73.667 112 99s104.667 38 174 38
c71.333 0 154.333 -11.333 249 -34l-11 -269c-0.666992 -16.667 -1.33398 -38.334 -2.00098 -65.001s-1.5 -54.334 -2.5 -83.001s-1.83301 -56.834 -2.5 -84.501s-1 -50.834 -1 -69.501v-20c0 -6 0.333008 -11 1 -15v-10c0 -3.33301 0.333008 -6.66602 1 -9.99902
c13.333 -2 25.833 -3.16699 37.5 -3.5s23.5 -0.5 35.5 -0.5c42.667 0 80 7 112 21s58.667 33.5 80 58.5s37.333 54.833 48 89.5s16 72.667 16 114c0 54.667 -7.16699 107.334 -21.5 158.001s-34.5 98.167 -60.5 142.5s-57.333 84.833 -94 121.5s-77.167 68 -121.5 94
s-91.833 46.167 -142.5 60.5s-103.334 21.5 -158.001 21.5s-107.334 -7.16699 -158.001 -21.5s-98.167 -34.5 -142.5 -60.5s-84.833 -57.333 -121.5 -94s-68 -77.167 -94 -121.5s-46.167 -91.833 -60.5 -142.5s-21.5 -103.334 -21.5 -158.001
s7.16699 -107.334 21.5 -158.001s34.5 -98.167 60.5 -142.5s57.333 -84.833 94 -121.5s77.167 -68 121.5 -94s91.833 -46.167 142.5 -60.5s103.334 -21.5 158.001 -21.5h28v-124h-28zM1005 771.004c-16.667 2.66699 -33.499 4.99805 -50.499 6.99805s-34.167 3 -51.5 3
c-52.667 0 -95.834 -9.66699 -129.501 -29s-60 -44.333 -79 -75s-32.167 -65 -39.5 -103s-11 -75.333 -11 -112c0 -41.333 3 -78.333 9 -111c6 -32 16.333 -59 31 -81s37 -33 67 -33c16.667 0 33 4 49 12s30 19.333 42 34c16.667 18 32.667 38.833 48 62.5
s29.5 48.334 42.5 74.001s24.5 51.334 34.5 77.001s18.667 49.5 26 71.5z" />
    <glyph glyph-name="A" unicode="A" horiz-adv-x="1369" 
d="M1158 0l-189 489h-569l-189 -489h-191l570 1438h189l570 -1438h-191zM459 643h451l-226 585z" />
    <glyph glyph-name="B" unicode="B" horiz-adv-x="1297" 
d="M631 1438c68 0 131.831 -5.16797 191.498 -15.501s111.834 -28.5 156.501 -54.5s80 -61.333 106 -106s39 -101.667 39 -171c0 -41.333 -4.66699 -78 -14 -110s-22.5 -60.333 -39.5 -85s-37.833 -45.834 -62.5 -63.501s-52 -32.5 -82 -44.5v-2
c36.667 -9.33301 71.834 -23.666 105.501 -42.999s63.167 -44 88.5 -74s45.5 -65.5 60.5 -106.5s22.5 -87.5 22.5 -139.5c0 -75.333 -13.333 -139.666 -40 -192.999s-63.5 -97 -110.5 -131s-102.333 -59 -166 -75s-132.5 -24 -206.5 -24h-502v1438h453zM627.998 846.999
c48 0 91.002 3.99805 129.002 11.998s70.167 21.5 96.5 40.5s46.666 44.333 60.999 76s21.5 70.834 21.5 117.501c0 40 -8.33301 73 -25 99s-39.334 46.333 -68.001 61s-61.667 24.834 -99 30.501s-76 8.5 -116 8.5h-262v-445h262zM680 145.997
c46.667 0 90.5 6.00195 131.5 18.002s76.5 29.667 106.5 53s53.667 52.333 71 87s26 74.667 26 120s-8.66699 85.166 -26 119.499s-41 63.166 -71 86.499s-65.5 41 -106.5 53s-84.833 18 -131.5 18h-314v-555h314z" />
    <glyph glyph-name="C" unicode="C" horiz-adv-x="1239" 
d="M1157 41c-62 -19.333 -127.5 -35.001 -196.5 -47.001s-144.833 -18 -227.5 -18c-204 0 -358 61 -462 183s-156 301.667 -156 539c0 252 52 442 156 570s258 192 462 192c77.333 0 146.833 -6.66699 208.5 -20s121.167 -30.666 178.5 -51.999l-52 -148
c-27.333 10 -54.333 19 -81 27s-53.5 14.667 -80.5 20s-54.833 9.33301 -83.5 12s-58.667 4 -90 4c-74 0 -137.667 -13.167 -191 -39.5s-97.333 -64.666 -132 -114.999s-60.334 -111.666 -77.001 -183.999s-25 -154.5 -25 -246.5c0 -94.667 8.33301 -178.334 25 -251.001
s42.334 -133.834 77.001 -183.501s78.667 -87.167 132 -112.5s117 -38 191 -38c68 0 132.667 5.66699 194 17s122.333 26.333 183 45z" />
    <glyph glyph-name="D" unicode="D" horiz-adv-x="1376" 
d="M182 0v1437.99h304c82 0 158.167 -4.16699 228.5 -12.5s134.833 -22.833 193.5 -43.5s110.167 -48.167 154.5 -82.5s82.5 -78.166 114.5 -131.499c31.333 -53.333 55 -116.666 71 -189.999s24 -159.666 24 -258.999s-8 -185.666 -24 -258.999
s-39.667 -136.666 -71 -189.999c-32 -53.333 -70.167 -97.166 -114.5 -131.499s-95.833 -61.833 -154.5 -82.5s-123.167 -35.167 -193.5 -43.5s-146.5 -12.5 -228.5 -12.5h-304zM517 153.994c102 0 188.5 10.167 259.5 30.5s129.167 53.5 174.5 99.5
c44.667 46 77.167 104.5 97.5 175.5s30.5 157.5 30.5 259.5s-10.167 188.5 -30.5 259.5s-52.833 129.5 -97.5 175.5c-45.333 46 -103.5 79.167 -174.5 99.5s-157.5 30.5 -259.5 30.5h-147v-1130h147z" />
    <glyph glyph-name="E" unicode="E" horiz-adv-x="1131" 
d="M182 1438h798v-154h-610v-397h432v-154h-432v-579h633v-154h-821v1438z" />
    <glyph glyph-name="F" unicode="F" horiz-adv-x="1050" 
d="M182 1438h798v-154h-610v-397h432v-154h-432v-733h-188v1438z" />
    <glyph glyph-name="G" unicode="G" horiz-adv-x="1399" 
d="M1257 77c-79.333 -32.667 -161.501 -57.668 -246.501 -75.001s-167.5 -26 -247.5 -26c-104 0 -196.167 14.667 -276.5 44s-147.833 74 -202.5 134s-96.167 135.5 -124.5 226.5s-42.5 198.167 -42.5 321.5c0 134 14.5 249 43.5 345s71.167 174.5 126.5 235.5
s123.5 105.833 204.5 134.5s173.5 43 277.5 43c64.667 0 132.667 -6.5 204 -19.5s144.666 -31.5 219.999 -55.5l-53 -150c-67.333 22.667 -130.5 39.667 -189.5 51s-118.5 17 -178.5 17c-77.333 0 -145 -11.333 -203 -34s-106.167 -57.667 -144.5 -105
s-67 -107.666 -86 -180.999s-28.5 -160.666 -28.5 -261.999c0 -100 8.83301 -187 26.5 -261s44.834 -135.167 81.501 -183.5s83.334 -84.333 140.001 -108s123.667 -35.5 201 -35.5c54.667 0 109.667 5.66699 165 17s106 24.666 152 39.999v398h-241v151h422v-662z" />
    <glyph glyph-name="H" unicode="H" horiz-adv-x="1512" 
d="M1142 1438h188v-1438h-188v713h-772v-713h-188v1438h188v-571h772v571z" />
    <glyph glyph-name="I" unicode="I" horiz-adv-x="596" 
d="M204 1438h188v-1438h-188v1438z" />
    <glyph glyph-name="J" unicode="J" horiz-adv-x="716" 
d="M357 1438h188v-1009c0 -94 -4 -172.333 -12 -235s-23 -118 -45 -166c-48.667 -105.333 -145.334 -190.333 -290.001 -255l-74 108c66.667 56 110.334 95.667 131.001 119c16.667 18.667 30.667 37.667 42 57c40 67.333 60 165 60 293v1088z" />
    <glyph glyph-name="K" unicode="K" horiz-adv-x="1313" 
d="M1014 1460l127 -102l-552 -654l600 -704h-226l-591 694v-694h-188v1438h188v-740z" />
    <glyph glyph-name="L" unicode="L" horiz-adv-x="1042" 
d="M195 1438h188v-1284h589v-154h-777v1438z" />
    <glyph glyph-name="M" unicode="M" horiz-adv-x="1894" 
d="M1347 1437h279l173 -1437h-183l-150 1210h-10l-397 -1210h-224l-397 1210h-10l-150 -1210h-183l173 1437h279l400 -1245z" />
    <glyph glyph-name="N" unicode="N" horiz-adv-x="1529" 
d="M1351 -10h-220l-765 1202v-1192h-188v1438h220l765 -1202v1202h188v-1448z" />
    <glyph glyph-name="O" unicode="O" horiz-adv-x="1482" 
d="M1372 719c0 -240.667 -54.333 -424.667 -163 -552s-264.667 -191 -468 -191c-201.333 0 -356.833 63.5 -466.5 190.5s-164.5 311.167 -164.5 552.5c0 240.667 55 424.334 165 551.001s265.333 190 466 190c203.333 0 359.333 -63.833 468 -191.5
s163 -310.834 163 -549.501zM1179 719c0 185.333 -36.5 329.001 -109.5 431.001s-182.833 153 -329.5 153c-147.333 0 -257 -51.5 -329 -154.5s-108 -246.167 -108 -429.5c0 -90 8.5 -170.5 25.5 -241.5s43 -132.333 78 -184s80.667 -91.334 137 -119.001
s121.833 -41.5 196.5 -41.5c146.667 0 256.5 51.167 329.5 153.5s109.5 246.5 109.5 432.5z" />
    <glyph glyph-name="P" unicode="P" horiz-adv-x="1219" 
d="M635 1438c66 0 127.669 -7.16699 185.002 -21.5s107.166 -37.666 149.499 -69.999s75.666 -74.5 99.999 -126.5s36.5 -115.333 36.5 -190c0 -83.333 -14 -151.333 -42 -204s-65.833 -94.334 -113.5 -125.001s-103 -51.667 -166 -63s-129.5 -17 -199.5 -17
c-38 0 -75.167 1.33301 -111.5 4s-70.5 5.66699 -102.5 9v-634h-186v1438h450zM371.002 784c32 -4 65.5 -7.16699 100.5 -9.5s70.167 -3.5 105.5 -3.5c50.667 0 97.167 3.16699 139.5 9.5s78.5 18.833 108.5 37.5s53.333 45 70 79s25 78.333 25 133c0 50 -7 91.5 -21 124.5
s-33.5 59.5 -58.5 79.5s-55 34 -90 42s-73.5 12 -115.5 12h-264v-504z" />
    <glyph glyph-name="Q" unicode="Q" horiz-adv-x="1502" 
d="M748 1460c102 0 192.168 -16.166 270.501 -48.499s144.166 -80 197.499 -143s93.833 -140.5 121.5 -232.5s41.5 -197.667 41.5 -317c0 -193.333 -34.667 -349.666 -104 -468.999s-170 -200 -302 -242l84.5 -63c23.667 -18 47 -33.833 70 -47.5s47.667 -26 74 -37
s58.833 -21.833 97.5 -32.5c-8 -28 -17.167 -54.667 -27.5 -80s-21.5 -51 -33.5 -77c-25.333 6.66699 -49 14 -71 22s-44 17.167 -66 27.5s-44.5 22.833 -67.5 37.5s-48.5 32.167 -76.5 52.5l-93 71l-116 94.5c-99.333 0 -188.166 15.833 -266.499 47.5
s-144.5 78.667 -198.5 141s-95.167 139.833 -123.5 232.5s-42.5 200 -42.5 322c0 121.333 14.167 228.166 42.5 320.499s69.5 169.666 123.5 231.999s120.167 109.333 198.5 141s167.166 47.5 266.499 47.5zM747.001 1303c-76 0 -141.667 -13.832 -197 -41.499
s-100.666 -67 -135.999 -118s-61.5 -112.5 -78.5 -184.5s-25.5 -152 -25.5 -240c0 -88.667 8.5 -169.167 25.5 -241.5s43.167 -134 78.5 -185s80.666 -90.333 135.999 -118s121 -41.5 197 -41.5c74.667 0 139.667 13.5 195 40.5s101 65.833 137 116.5
s62.833 112.167 80.5 184.5s26.5 153.833 26.5 244.5c0 90 -8.83301 171.167 -26.5 243.5s-44.5 133.666 -80.5 183.999s-81.667 89 -137 116s-120.333 40.5 -195 40.5z" />
    <glyph glyph-name="R" unicode="R" horiz-adv-x="1275" 
d="M635 1438c63.333 0 123.172 -7.33301 179.505 -22s106.166 -38 149.499 -70c44 -32.667 78.5 -74 103.5 -124s37.5 -109 37.5 -177s-12.5 -127 -37.5 -177s-59.5 -91.333 -103.5 -124c-34 -25.333 -71.833 -45 -113.5 -59s-86.167 -23.667 -133.5 -29l-1 -2
c19.333 -12.667 40.666 -30.5 63.999 -53.5s47.666 -50.167 72.999 -81.5l78 -101.5l81 -114.5l208 -303h-220l-226 350c-40.667 64 -75.834 115.667 -105.501 155s-57.834 70.333 -84.501 93c-26 22.667 -52.667 38 -80 46s-59 12 -95 12h-38v-656h-186v1438h450z
M635.006 802c42 0 80.333 4.66309 115 13.9961s64.5 23.833 89.5 43.5s44.5 44.834 58.5 75.501s21 67.334 21 110.001s-7 79.334 -21 110.001s-33.5 55.834 -58.5 75.501s-54.833 34.167 -89.5 43.5s-73 14 -115 14h-264v-486h264z" />
    <glyph glyph-name="S" unicode="S" horiz-adv-x="1196" 
d="M175 209c27.333 -10.667 56.165 -20.6611 86.498 -29.9941s61.333 -17.333 93 -24s63.5 -12 95.5 -16s63.333 -6 94 -6c52.667 0 100.334 6 143.001 18s79.334 29.5 110.001 52.5s54.334 51.333 71.001 85s25 72.167 25 115.5s-7.83301 78.833 -23.5 106.5
s-38.334 50.834 -68.001 69.501s-66.167 34.5 -109.5 47.5s-92.666 26.5 -147.999 40.5c-61.333 16 -117.833 33.833 -169.5 53.5s-96.334 45.167 -134.001 76.5s-67.167 70.166 -88.5 116.499s-32 104.166 -32 173.499c0 56.667 11.333 108 34 154s54.667 85.167 96 117.5
s91 57.166 149 74.499s122 26 192 26c34 0 68.667 -2.16699 104 -6.5s70.333 -10.166 105 -17.499s68.667 -16.333 102 -27s64.666 -22.334 93.999 -35.001l-60 -148l-73.5 28c-25 9.33301 -51.5 17.666 -79.5 24.999s-57.833 13.166 -89.5 17.499s-65.834 6.5 -102.501 6.5
s-71.667 -4 -105 -12s-62.833 -20.5 -88.5 -37.5s-46.167 -39.167 -61.5 -66.5s-23 -60.333 -23 -99c0 -43.333 7.83301 -78.833 23.5 -106.5s38.334 -50.834 68.001 -69.501s66.167 -34.5 109.5 -47.5s92.666 -26.5 147.999 -40.5c61.333 -16 117.833 -33.833 169.5 -53.5
s96.334 -45.167 134.001 -76.5s67.167 -70.333 88.5 -117s32 -104.334 32 -173.001c0 -72.667 -13.5 -135.834 -40.5 -189.501s-64.667 -98.167 -113 -133.5s-105.666 -61.666 -171.999 -78.999s-138.5 -26 -216.5 -26c-147.333 0 -290.333 28.333 -429 85z" />
    <glyph glyph-name="T" unicode="T" horiz-adv-x="1237" 
d="M80 1438h1077v-154h-442v-1284h-188v1284h-447v154z" />
    <glyph glyph-name="U" unicode="U" horiz-adv-x="1486" 
d="M1128 1438l187.999 0.000976562v-831c0 -209.333 -47 -366.833 -141 -472.5s-238.333 -158.5 -433 -158.5c-381.333 0 -572 210.333 -572 631v831h188v-832c0 -73.333 6.33301 -137.833 19 -193.5s33.334 -105 62.001 -148s68.334 -75.667 119.001 -98
s112 -33.5 184 -33.5c58.667 0 110.5 7.5 155.5 22.5s81.833 35.833 110.5 62.5s52.167 60.167 70.5 100.5s31.166 83.666 38.499 129.999s11 98.833 11 157.5v832z" />
    <glyph glyph-name="V" unicode="V" horiz-adv-x="1468" 
d="M1158 1438h197l-537 -1440h-167l-538 1440h197l425 -1209z" />
    <glyph glyph-name="W" unicode="W" horiz-adv-x="1850" 
d="M1777 1437l-173 -1437h-279l-400 1245l-400 -1245h-279l-173 1437h183l150 -1210h10l397 1210h224l397 -1210h10l150 1210h183z" />
    <glyph glyph-name="X" unicode="X" horiz-adv-x="1415" 
d="M118 1358l146 105l435 -608l387 583h219l-495 -726l456 -627l-151 -108l-415 584l-373 -561h-217l479 704z" />
    <glyph glyph-name="Y" unicode="Y" horiz-adv-x="1357" 
d="M1078 1438h214l-520 -790v-648h-187v648l-520 790h214l399 -636z" />
    <glyph glyph-name="Z" unicode="Z" horiz-adv-x="1234" 
d="M171 1438h910v-134l-701 -1150h707v-154h-940v132l703 1152h-679v154z" />
    <glyph glyph-name="bracketleft" unicode="[" horiz-adv-x="711" 
d="M200 1570h331v-132h-168v-1438h168v-132h-331v1702z" />
    <glyph glyph-name="backslash" unicode="\" horiz-adv-x="1139" 
d="M845 0l-710 1438h159l710 -1438h-159z" />
    <glyph glyph-name="bracketright" unicode="]" horiz-adv-x="711" 
d="M180 1570h331v-1702h-331v132h168v1438h-168v132z" />
    <glyph glyph-name="asciicircum" unicode="^" horiz-adv-x="772" 
d="M335 1114h107l311 -687h-117l-247 557l-247 -557h-116z" />
    <glyph glyph-name="underscore" unicode="_" horiz-adv-x="1083" 
d="M160 145h764v-145h-764v145z" />
    <glyph glyph-name="grave" unicode="`" horiz-adv-x="575" 
d="M448 1181l-121.999 -0.000976562c-76.667 134.667 -124.334 224.334 -143.001 269.001c-12.667 36 -18.667 70.167 -18 102.5s12.834 59.5 36.501 81.5s56.167 33 97.5 33c37.333 0 77.666 -15.667 120.999 -47l-51 -177z" />
    <glyph glyph-name="a" unicode="a" horiz-adv-x="1041" 
d="M229 856l-44 139.998c112 44.667 229.333 67 352 67c107.333 0 189.333 -18 246 -54c64.667 -41.333 97 -111.666 97 -210.999v-409c0 -54.667 0.666992 -110.667 2 -168c0.666992 -34 4 -69.333 10 -106c5.33301 -34.667 12.333 -67.667 21 -99l-164 -36
c-15.333 44.667 -25 94.667 -29 150l-20 2c-82.667 -104 -188 -156 -316 -156c-93.333 0 -168.333 25.833 -225 77.5s-85 124.5 -85 218.5c0 70 15.5 127.333 46.5 172s74.833 82.334 131.5 113.001c89.333 48.667 214.333 73 375 73c21.333 0 50 -0.666992 86 -2v152
c0 48 -14.667 82.667 -44 104s-75.333 32 -138 32c-91.333 0 -192 -20 -302 -60zM713 291.998l-0.000976562 210.001c-18 1.33301 -44.333 2 -79 2c-58.667 0 -112.667 -5 -162 -15c-73.333 -14.667 -130.166 -37.834 -170.499 -69.501s-60.5 -77.167 -60.5 -136.5
c0 -106.667 58 -160 174 -160c60 0 116 16 168 48c42.667 26.667 86 67 130 121z" />
    <glyph glyph-name="b" unicode="b" horiz-adv-x="1105" 
d="M176 1440l171.998 -0.000976562v-599l21 -2c31.333 69.333 68.333 122 111 158c49.333 44 109 66 179 66c122 0 215.333 -51.333 280 -154c58 -95.333 87 -218.333 87 -369c0 -183.333 -43.667 -324.666 -131 -423.999c-83.333 -93.333 -206.666 -140 -369.999 -140
c-89.333 0 -205.666 10.667 -348.999 32v1432zM337.998 613.999v-472c61.333 -12.667 123.666 -19 186.999 -19c108 0 189 31.667 243 95c56 65.333 84 162.333 84 291c0 116.667 -12.667 206.667 -38 270c-33.333 83.333 -90 125 -170 125c-70 0 -131.667 -29.333 -185 -88
c-37.333 -40 -77.666 -107.333 -120.999 -202z" />
    <glyph glyph-name="c" unicode="c" horiz-adv-x="973" 
d="M895 37c-52 -18 -107.499 -32.666 -166.499 -43.999s-114.833 -17 -167.5 -17c-80 0 -149.333 11.667 -208 35s-107.167 57.333 -145.5 102s-66.833 99.5 -85.5 164.5s-28 139.167 -28 222.5c0 90.667 11.5 171 34.5 241s56.333 128.833 100 176.5s97 83.834 160 108.501
s134.5 37 214.5 37c40.667 0 82 -4.16699 124 -12.5s84.667 -18.833 128 -31.5l-43 -140c-34.667 11.333 -66.834 20.333 -96.501 27s-60.834 10 -93.501 10c-113.333 0 -200.666 -32.833 -261.999 -98.5s-92 -164.834 -92 -297.501c0 -62 4.5 -117.5 13.5 -166.5
s25 -90.667 48 -125s54.333 -60.5 94 -78.5s90.167 -27 151.5 -27c40 0 83.167 5.16699 129.5 15.5s95.5 23.166 147.5 38.499z" />
    <glyph glyph-name="d" unicode="d" horiz-adv-x="1123" 
d="M776 1440l171.998 -0.000976562v-1047c0 -117.333 1.66699 -194.333 5 -231c3.33301 -45.333 11 -94 23 -146l-166 -37c-11.333 37.333 -19.666 75 -24.999 113c-6.66699 46.667 -10.334 82.667 -11.001 108h-15c-34.667 -72 -73 -125 -115 -159
c-50.667 -43.333 -113.334 -65 -188.001 -65c-65.333 0 -121.666 14.167 -168.999 42.5s-84.166 67.833 -110.499 118.5s-45.666 106.334 -57.999 167.001s-18.5 127.667 -18.5 201c0 82.667 8.5 157 25.5 223s43.167 124.5 78.5 175.5s82.666 90.333 141.999 118
s129 41.5 209 41.5c62.667 0 136.334 -8.33301 221.001 -25v402zM775.998 420.999l0.000976562 465c-75.333 20 -144.666 30 -207.999 30c-54 0 -100.5 -9.83301 -139.5 -29.5s-69.5 -47.334 -91.5 -83.001s-38 -75.5 -48 -119.5s-15 -93.333 -15 -148
c0 -37.333 0.833008 -70.166 2.5 -98.499s4.66699 -59 9 -92s11.166 -61.167 20.499 -84.5s21 -45 35 -65s32.167 -35.167 54.5 -45.5s48.166 -15.5 77.499 -15.5c70.667 0 132 28.333 184 85c37.333 41.333 77 108.333 119 201z" />
    <glyph glyph-name="e" unicode="e" horiz-adv-x="1102" 
d="M946 58c-74 -29.333 -143.501 -50.335 -208.501 -63.002s-123.167 -19 -174.5 -19c-78.667 0 -147.334 12.5 -206.001 37.5s-107.5 60.167 -146.5 105.5s-68.333 99.5 -88 162.5s-29.5 132.5 -29.5 208.5c0 46.667 3.33301 93.334 10 140.001s17.334 91.167 32.001 133.5
s33.834 81.833 57.501 118.5s52.5 68.334 86.5 95.001s73.667 47.667 119 63s97 23 155 23c148.667 0 260.667 -46.5 336 -139.5s113 -226.167 113 -399.5v-55h-732c0 -56 6 -105.5 18 -148.5s30.5 -79.333 55.5 -109s56.667 -52.167 95 -67.5s83.833 -23 136.5 -23
c29.333 0 58.5 2.16699 87.5 6.5s57.167 10 84.5 17s53.5 14.833 78.5 23.5l70.5 25zM828.999 606.998c-5.33301 108 -31.167 186.833 -77.5 236.5s-112.5 74.5 -198.5 74.5s-151.5 -24.833 -196.5 -74.5s-72.167 -128.5 -81.5 -236.5h554z" />
    <glyph glyph-name="f" unicode="f" horiz-adv-x="916" 
d="M277 1040l0.000976562 112.999c0 49.333 4.66699 92 14 128s25.666 69.333 48.999 100s57.5 53.834 102.5 69.501s100.5 23.5 166.5 23.5c86 0 188.333 -14.333 307 -43l-31 -141c-112 23.333 -197.333 35 -256 35c-28.667 0 -52.834 -1.5 -72.501 -4.5
s-36.167 -9 -49.5 -18s-23.666 -18.5 -30.999 -28.5s-12.833 -25 -16.5 -45s-6 -39 -7 -57s-1.5 -43 -1.5 -75v-57h334v-145h-334v-750h334v-145h-682v145h174v750h-174v145h174z" />
    <glyph glyph-name="g" unicode="g" horiz-adv-x="1118" 
d="M762 1040c28.667 0 53.8359 0.329102 75.5029 0.996094s42.5 2.16699 62.5 4.5s40.167 5.83301 60.5 10.5s44.166 11.334 71.499 20.001l25.5 -72l25.5 -70c-21.333 -8 -41 -14.333 -59 -19s-35.833 -8.5 -53.5 -11.5s-35.334 -5 -53.001 -6s-36.5 -1.83301 -56.5 -2.5
c18.667 -30 33 -63.667 43 -101s15 -78 15 -122c0 -64 -9.66699 -119.833 -29 -167.5s-47 -88.167 -83 -121.5s-79.167 -58.5 -129.5 -75.5s-106.833 -25.5 -169.5 -25.5c-32 0 -62.333 1.83301 -91 5.5s-56 10.167 -82 19.5c-6 -16 -11.167 -32.333 -15.5 -49
s-6.33301 -32.5 -6 -47.5s3.16602 -28.667 8.49902 -41s14.666 -22.166 27.999 -29.499c6.66699 -4 13.667 -7.16699 21 -9.5s16.166 -4.33301 26.499 -6s22.833 -3 37.5 -4s32.334 -1.5 53.001 -1.5c20 -0.666992 43.5 -1 70.5 -1h94.5c104 0 182.667 -21.833 236 -65.5
s80 -111.5 80 -203.5c0 -37.333 -6 -70.5 -18 -99.5s-28.5 -54.167 -49.5 -75.5s-45.833 -39.166 -74.5 -53.499s-59.667 -26 -93 -35s-68.166 -15.333 -104.499 -19s-72.833 -5.5 -109.5 -5.5s-73.5 2 -110.5 6s-73.167 9 -108.5 15s-68.5 12.833 -99.5 20.5
s-58.5 15.167 -82.5 22.5c9.33301 22.667 19.833 45.334 31.5 68.001s24.167 44 37.5 64c42 -12 92 -23.667 150 -35s122.333 -17 193 -17c32 0 63.5 2 94.5 6s59 11.5 84 22.5s45.167 25.667 60.5 44s23 42.166 23 71.499c0 30.667 -5.5 54.334 -16.5 71.001
s-25.833 29 -44.5 37s-40.667 12.667 -66 14s-52 2 -80 2h-131c-39.333 0 -76.333 3 -111 9s-65 16.167 -91 30.5s-46.5 33.166 -61.5 56.499s-22.5 52 -22.5 86c0 32.667 6 66.5 18 101.5s27.667 70.5 47 106.5c-44 32 -77.833 74.333 -101.5 127
s-35.5 113.334 -35.5 182.001c0 62.667 9.83301 118.167 29.5 166.5s47.5 89.5 83.5 123.5s79 59.333 129 76s106.333 25 169 25c58.667 0 112.667 -7.66699 162 -23h92zM508.002 924.996c-42 0 -78 -6.33301 -108 -19s-54.5 -30.167 -73.5 -52.5s-33 -49 -42 -80
s-13.5 -64.833 -13.5 -101.5c0 -37.333 4.5 -71.333 13.5 -102s23.167 -57.167 42.5 -79.5s43.833 -39.666 73.5 -51.999s65.5 -18.5 107.5 -18.5s78 6.16699 108 18.5s54.5 29.666 73.5 51.999s33 49 42 80s13.5 64.833 13.5 101.5s-4.5 70.5 -13.5 101.5
s-23 57.667 -42 80s-43.5 39.833 -73.5 52.5s-66 19 -108 19z" />
    <glyph glyph-name="h" unicode="h" horiz-adv-x="1159" 
d="M175 1440l172 -0.00195312v-627c44.667 76 95.334 135.333 152.001 178c64.667 48 129 72 193 72c96 0 170.667 -24 224 -72c46 -41.333 77.667 -103.666 95 -186.999c13.333 -63.333 20 -148.666 20 -255.999v-548h-172v596c0 40.667 -1 74.167 -3 100.5
s-6.83301 54 -14.5 83s-18.667 51.667 -33 68s-34.333 29.833 -60 40.5s-56.834 16 -93.501 16c-63.333 0 -124.333 -30 -183 -90c-37.333 -38 -79 -96 -125 -174v-640h-172v1440z" />
    <glyph glyph-name="i" unicode="i" horiz-adv-x="543" 
d="M269 1443c30.667 0 57.334 -10.668 80.001 -32.001c22 -23.333 33 -50.666 33 -81.999c0 -32 -11 -59 -33 -81c-22.667 -22.667 -49.334 -34 -80.001 -34c-32 0 -59.333 11.333 -82 34c-22.667 21.333 -34 48.333 -34 81c0 32 11.333 59.333 34 82
c22.667 21.333 50 32 82 32zM181 1040h172v-1040h-172v1040z" />
    <glyph glyph-name="j" unicode="j" horiz-adv-x="660" 
d="M370 1443c30.667 0 57.334 -10.668 80.001 -32.001c22 -23.333 33 -50.666 33 -81.999c0 -32 -11 -59 -33 -81c-22.667 -22.667 -49.334 -34 -80.001 -34c-32 0 -59.333 11.333 -82 34c-22.667 21.333 -34 48.333 -34 81c0 32 11.333 59.333 34 82
c22.667 21.333 50 32 82 32zM283 1040l171.999 0.00195312v-896c0 -122 -12.333 -214.667 -37 -278c-23.333 -60.667 -72.333 -132.334 -147 -215.001l-57 -63l-115 95c54.667 66 91 114.333 109 145c0.666992 1.33301 8.33398 15.666 23.001 42.999
c34.667 72 52 158.667 52 260v909z" />
    <glyph glyph-name="k" unicode="k" horiz-adv-x="1038" 
d="M169 1440h172v-866l468 489l113 -110l-405 -417l511 -536h-214l-473 500v-500h-172v1440z" />
    <glyph glyph-name="l" unicode="l" horiz-adv-x="475" 
d="M312 404c0 -54.667 0.666992 -100.501 2 -137.501s3 -69.5 5 -97.5s5.16699 -53.333 9.5 -76s9.83301 -47.667 16.5 -75c-28 -7.33301 -56 -14.166 -84 -20.499s-56 -11.833 -84 -16.5c-13.333 43.333 -22.833 83 -28.5 119s-8.5 71.333 -8.5 106v1232h172v-1034z" />
    <glyph glyph-name="m" unicode="m" horiz-adv-x="1741" 
d="M168 0v643.001c0 102.667 -2.33301 180 -7 232c-2.66699 40.667 -11.334 90.334 -26.001 149.001l164 37c12.667 -40 21.667 -78.667 27 -116c2.66699 -14 6 -50.333 10 -109h21c34 68 76.667 121.333 128 160c55.333 44.667 118.333 67 189 67
c40 0 78.667 -7.16699 116 -21.5s68.666 -34.5 93.999 -60.5c38 -37.333 65 -92.666 81 -165.999h12c40 77.333 87 136.666 141 177.999c58 46.667 123 70 195 70c87.333 0 154.333 -24.333 201 -73c40.667 -40.667 69.334 -102.667 86.001 -186
c12 -60.667 18 -145.334 18 -254.001v-550h-172v598c0 52.667 -3 96 -9 130c-9.33301 52.667 -26 93.667 -50 123c-30 35.333 -72 53 -126 53c-61.333 0 -118 -29.333 -170 -88c-31.333 -35.333 -68.666 -90 -111.999 -164c1.33301 -11.333 2 -28 2 -50v-602h-172v598
c0 84.667 -8.33301 149.667 -25 195c-28 74 -81 111 -159 111c-60 0 -117 -30 -171 -90c-31.333 -34.667 -69.333 -92.334 -114 -173.001v-641h-172z" />
    <glyph glyph-name="n" unicode="n" horiz-adv-x="1147" 
d="M135 1022l166.002 36.998c12.667 -40 21.667 -78.667 27 -116c2.66699 -18 6 -53.667 10 -107h21c36.667 67.333 82 121 136 161c59.333 44 122 66 188 66c99.333 0 175 -24 227 -72c44.667 -40.667 75.667 -103 93 -187c11.333 -57.333 17 -142.666 17 -255.999v-548
h-172v596c0 99.333 -9.66699 170.333 -29 213c-28.667 63.333 -86.334 95 -173.001 95c-61.333 0 -121.333 -29.333 -180 -88c-39.333 -39.333 -81.333 -97 -126 -173v-643h-172v640c0 90 -2.33301 167.667 -7 233c-2.66699 40.667 -11.334 90.334 -26.001 149.001z" />
    <glyph glyph-name="o" unicode="o" horiz-adv-x="1113" 
d="M555 1063c32.667 0 66.666 -2.5 101.999 -7.5s70 -14.5 104 -28.5c34 -14.667 66.167 -34.5 96.5 -59.5s57.166 -57.5 80.499 -97.5c23.333 -40.667 41.666 -89.5 54.999 -146.5s20 -124.833 20 -203.5s-6.66699 -146.5 -20 -203.5s-31.666 -105.5 -54.999 -145.5
c-23.333 -40.667 -50.166 -73.667 -80.499 -99s-62.5 -45 -96.5 -59c-34 -14.667 -68.667 -24.5 -104 -29.5s-69.333 -7.5 -102 -7.5c-32 0 -65.5 2.5 -100.5 7.5s-69.5 14.833 -103.5 29.5c-34 14 -66 33.667 -96 59s-56.667 58.333 -80 99
c-23.333 40 -41.666 88.5 -54.999 145.5s-20 124.833 -20 203.5s6.66699 146.5 20 203.5s31.666 105.833 54.999 146.5c23.333 40 50 72.5 80 97.5s62 44.833 96 59.5c34 14 68.333 23.5 103 28.5s68.334 7.5 101.001 7.5zM554.999 922c-38 0 -73.833 -6 -107.5 -18
s-63.167 -33 -88.5 -63c-26 -30.667 -46.667 -71.667 -62 -123s-23 -117.333 -23 -198c0 -80 7.66699 -145.833 23 -197.5s36 -92.5 62 -122.5c25.333 -30.667 54.833 -51.834 88.5 -63.501s69.5 -17.5 107.5 -17.5c38.667 0 75.167 5.83301 109.5 17.5
s64.5 32.834 90.5 63.501c26 30 46.5 70.833 61.5 122.5s22.5 117.5 22.5 197.5c0 80.667 -7.5 146.667 -22.5 198s-35.5 92.333 -61.5 123c-26 30 -56.167 51 -90.5 63s-70.833 18 -109.5 18z" />
    <glyph glyph-name="p" unicode="p" horiz-adv-x="1114" 
d="M338 -400l-171.998 0.000976562v1048c0 116 -1.66699 192.333 -5 229c-3.33301 45.333 -11 94 -23 146l166 37c11.333 -37.333 19.666 -75 24.999 -113c6.66699 -46.667 10.334 -82.667 11.001 -108h15c34.667 72 73 125 115 159c50.667 43.333 113.334 65 188.001 65
c65.333 0 121.666 -14.167 168.999 -42.5s84.166 -67.833 110.499 -118.5s45.666 -106.334 57.999 -167.001s18.5 -127.667 18.5 -201c0 -82.667 -8.5 -157 -25.5 -223s-43.167 -124.5 -78.5 -175.5s-82.666 -90.333 -141.999 -118s-129 -41.5 -209 -41.5
c-62.667 0 -136.334 8.33301 -221.001 25v-401zM338.002 618.001l-0.000976562 -465c75.333 -20 144.666 -30 207.999 -30c54 0 100.5 9.83301 139.5 29.5s69.5 47.334 91.5 83.001s38 75.5 48 119.5s15 93.333 15 148c0 37.333 -0.833008 70.166 -2.5 98.499
s-4.66699 59 -9 92s-11.166 61.167 -20.499 84.5s-21 45 -35 65s-32.167 35.167 -54.5 45.5s-48.166 15.5 -77.499 15.5c-70.667 0 -132 -28.333 -184 -85c-37.333 -41.333 -77 -108.333 -119 -201z" />
    <glyph glyph-name="q" unicode="q" horiz-adv-x="1125" 
d="M950 -400l-171.998 0.000976562v598l-21 2c-31.333 -69.333 -68.333 -122 -111 -158c-49.333 -44 -109 -66 -179 -66c-122 0 -215.333 51.333 -280 154c-58 94.667 -87 217.667 -87 369c0 183.333 43.667 324.666 131 423.999c83.333 93.333 206.666 140 369.999 140
c89.333 0 205.666 -10.667 348.999 -32v-1431zM788.002 425.001v472c-61.333 12.667 -123.666 19 -186.999 19c-108 0 -189 -31.667 -243 -95c-56 -65.333 -84 -162.333 -84 -291c0 -116.667 12.667 -206.667 38 -270c33.333 -83.333 90 -125 170 -125
c70 0 131.667 29.333 185 88c37.333 40 77.666 107.333 120.999 202z" />
    <glyph glyph-name="r" unicode="r" horiz-adv-x="833" 
d="M355 799c20.667 41.333 42.833 78.667 66.5 112s49.834 61.666 78.501 84.999c26 22.667 54.667 39.5 86 50.5s67 16.5 107 16.5c13.333 0 28.833 -0.666992 46.5 -2s34.5 -3.66602 50.5 -6.99902c-2.66699 -33.333 -5.83398 -64.666 -9.50098 -93.999
s-8.5 -59 -14.5 -89c-33.333 6 -63.833 10.333 -91.5 13s-53.834 2 -78.501 -2c-29.333 -5.33301 -54.833 -15.166 -76.5 -29.499s-41.667 -33.333 -60 -57s-36.166 -52 -53.499 -85l-57 -113.5v-597h-172v641c0 42 -0.5 79 -1.5 111s-3 62.5 -6 91.5s-7.5 57.667 -13.5 86
s-14 59.833 -24 94.5c28 7.33301 55.5 14 82.5 20s54.5 11.667 82.5 17c9.33301 -26.667 16.833 -50.334 22.5 -71.001s10.167 -40.834 13.5 -60.501s5.83301 -39.667 7.5 -60l5.5 -70.5h9z" />
    <glyph glyph-name="s" unicode="s" horiz-adv-x="955" 
d="M477 1063c54.667 0 109.504 -5.66992 164.504 -17.0029s106.167 -27 153.5 -47c-9.33301 -21.333 -19 -42.333 -29 -63s-21 -41 -33 -61c-16.667 6.66699 -35.167 13.334 -55.5 20.001s-41.666 12.334 -63.999 17.001s-45.333 8.5 -69 11.5s-46.834 4.5 -69.501 4.5
c-24.667 0 -48.5 -2.5 -71.5 -7.5s-43.333 -13.167 -61 -24.5s-31.834 -26.166 -42.501 -44.499s-16 -41.166 -16 -68.499c0 -28 6 -51.5 18 -70.5s28.333 -34.833 49 -47.5s44.834 -23.334 72.501 -32.001s57.167 -16.667 88.5 -24c48.667 -12 94 -25.5 136 -40.5
s78.333 -34.5 109 -58.5s54.667 -53.667 72 -89s26 -79 26 -131c0 -54.667 -10.833 -101.667 -32.5 -141s-51 -71.833 -88 -97.5s-80.167 -44.667 -129.5 -57s-102 -18.5 -158 -18.5c-29.333 0 -59.5 1.83301 -90.5 5.5s-61.667 9 -92 16s-60.166 15.5 -89.499 25.5
s-57 21 -83 33c9.33301 21.333 19.166 42.166 29.499 62.499s21.166 40.5 32.499 60.5c22 -9.33301 45.333 -18.166 70 -26.499s50 -15.5 76 -21.5s51.667 -10.833 77 -14.5s49.666 -5.5 72.999 -5.5c29.333 0 57.833 3.33301 85.5 10s52.334 17.167 74.001 31.5
s39 32.833 52 55.5s19.5 50 19.5 82c0 30 -6.16699 54.667 -18.5 74s-28.833 35.5 -49.5 48.5s-44.834 23.667 -72.501 32s-56.834 16.166 -87.501 23.499c-46.667 11.333 -90.834 24.333 -132.501 39s-78 33.834 -109 57.501s-55.667 53 -74 88s-27.5 78.5 -27.5 130.5
c0 48.667 10 90.667 30 126s46.833 64.333 80.5 87s72.667 39.5 117 50.5s90.833 16.5 139.5 16.5z" />
    <glyph glyph-name="t" unicode="t" horiz-adv-x="861" 
d="M260 1278h172.003v-238h350v-145h-350v-597c0 -40 1.16699 -70.5 3.5 -91.5s8.16602 -37.5 17.499 -49.5c17.333 -24 52.333 -36 105 -36c29.333 0 57.666 3 84.999 9c28 6 53.667 12.667 77 20c18.667 -40.667 35.667 -85.334 51 -134.001
c-78.667 -26.667 -158 -40 -238 -40c-58 0 -104.5 6.5 -139.5 19.5s-62.5 34.167 -82.5 63.5c-20.667 30.667 -34.334 67.334 -41.001 110.001s-10 101.667 -10 177v549h-150v145h150v238z" />
    <glyph glyph-name="u" unicode="u" horiz-adv-x="1158" 
d="M1028 18l-166.002 -36.9971c-12.667 40 -21.667 78.667 -27 116c-2.66699 17.333 -6 52.666 -10 105.999h-21c-36.667 -67.333 -82 -121 -136 -161c-59.333 -44 -122 -66 -188 -66c-99.333 0 -175 24 -227 72c-44.667 40.667 -75.667 103 -93 187
c-11.333 57.333 -17 142.666 -17 255.999v549h172v-597c0 -99.333 9.66699 -170.333 29 -213c28.667 -63.333 86.334 -95 173.001 -95c61.333 0 121.333 29.333 180 88c39.333 39.333 81.333 97 126 173v644h172v-642c0 -88.667 2.33301 -165.667 7 -231
c2.66699 -40.667 11.334 -90.334 26.001 -149.001z" />
    <glyph glyph-name="v" unicode="v" horiz-adv-x="1022" 
d="M972 1040l-346 -1040h-230l-346 1040h186l275 -908l275 908h186z" />
    <glyph glyph-name="w" unicode="w" horiz-adv-x="1491" 
d="M1112 0h-229l-125 483l-201 -483h-226l-266 1041h172l219 -916l242 600l-81 316h172l225 -916c72 166.667 122.333 292 151 376c34.667 102 52 189.667 52 263c0 64 -15.667 150.333 -47 259c60.667 15.333 115.667 27.666 165 36.999
c28 -68.667 45.667 -142.667 53 -222c2 -20 3 -40.333 3 -61c0 -109.333 -30.667 -236.666 -92 -381.999c-16.667 -38.667 -35.5 -80.167 -56.5 -124.5l-74 -154z" />
    <glyph glyph-name="x" unicode="x" horiz-adv-x="1128" 
d="M102 964l127 99l328 -417l280 394h198l-377 -523l349 -442l-126 -99l-318 404l-271 -379h-199l368 507z" />
    <glyph glyph-name="y" unicode="y" horiz-adv-x="1186" 
d="M1010 1040l-0.000976562 -1062.99c0 -66 -10.833 -123 -32.5 -171s-51.667 -87.667 -90 -119s-83.833 -54.5 -136.5 -69.5s-110 -22.5 -172 -22.5c-56 0 -112.333 4.83301 -169 14.5s-110.667 23.167 -162 40.5c8.66699 23.333 17.667 46 27 68l28 66
c16 -5.33301 35.167 -11 57.5 -17s46 -11.5 71 -16.5s50.667 -9 77 -12s51.833 -4.5 76.5 -4.5c38.667 0 73.667 5.16699 105 15.5s58 25.833 80 46.5s38.833 46.167 50.5 76.5s17.5 65.166 17.5 104.499v226h-19c-17.333 -31.333 -37.333 -60.833 -60 -88.5
s-47.667 -51.834 -75 -72.501s-56.833 -36.834 -88.5 -48.501s-65.167 -17.5 -100.5 -17.5c-48.667 0 -91 5.5 -127 16.5s-66.833 27.333 -92.5 49s-46.667 48.667 -63 81s-28.833 69.833 -37.5 112.5c-7.33301 38 -12 78.667 -14 122s-3 88 -3 134v549h172v-597
c0 -43.333 2 -83.833 6 -121.5s12.833 -70.334 26.5 -98.001s33.834 -49.334 60.501 -65.001s63 -23.5 109 -23.5c34 0 66 8.16699 96 24.5s57.667 37.166 83 62.499s48.5 53.333 69.5 84s40.167 60.667 57.5 90v644h172z" />
    <glyph glyph-name="z" unicode="z" horiz-adv-x="991" 
d="M400 895c-27.333 0 -52.333 0.335938 -75 1.00293s-44.5 2.16699 -65.5 4.5s-42.333 6.16602 -64 11.499s-45.167 12.666 -70.5 21.999l25.5 70l25.5 72c26.667 -8.66699 50.334 -15.334 71.001 -20.001s41 -8.16699 61 -10.5s40.667 -3.83301 62 -4.5
s46.666 -1 75.999 -1h420v-120l-522 -775h531v-145h-746v121l521 774h-250z" />
    <glyph glyph-name="braceleft" unicode="{" horiz-adv-x="711" 
d="M215 920l0.000976562 385.999c0 78.667 23.667 139.334 71 182.001c54.667 50.667 142.334 76 263.001 76v-123c-78 0 -129.667 -14.667 -155 -44c-21.333 -24.667 -32 -68.667 -32 -132v-345c0 -45.333 -8.66699 -86.333 -26 -123
c-12.667 -25.333 -29.334 -50.333 -50.001 -75c21.333 -25.333 38 -50 50 -74c17.333 -36.667 26 -77.334 26 -122.001v-359c0 -65.333 10.667 -109.333 32 -132c26 -29.333 77.667 -44 155 -44v-123c-120.667 0 -208.334 25.333 -263.001 76
c-47.333 42.667 -71 103.334 -71 182.001v400c0 42.667 -16.333 88.667 -49 138c-15.333 22.667 -31.333 42 -48 58c34 32.667 61.333 73 82 121c10 24 15 49.667 15 77z" />
    <glyph glyph-name="bar" unicode="|" horiz-adv-x="615" 
d="M230 1571h155v-1702h-155v1702z" />
    <glyph glyph-name="braceright" unicode="}" horiz-adv-x="711" 
d="M178 1441l0.00195312 122.999c120 0 208 -25.333 264 -76c46.667 -43.333 70 -104 70 -182v-386c0 -45.333 16 -92 48 -140c15.333 -23.333 31.666 -42.666 48.999 -57.999c-34.667 -32.667 -62 -72.667 -82 -120c-10 -24 -15 -49.333 -15 -76v-400
c0 -78 -23.333 -138.667 -70 -182c-56 -50.667 -144 -76 -264 -76v123c78 0 130 14.667 156 44c20.667 22 31 66 31 132v359c0 45.333 9 86 27 122c11.333 24 27.666 48.667 48.999 74c-20.667 24.667 -37 49.667 -49 75c-18 36 -27 77 -27 123v345
c0 64 -10.333 108 -31 132c-25.333 29.333 -77.333 44 -156 44z" />
    <glyph glyph-name="asciitilde" unicode="~" horiz-adv-x="1145" 
d="M176 456l-43.999 91.999c90.667 70 170.667 105 240 105c40 0 86.167 -9.5 138.5 -28.5s101.5 -37.833 147.5 -56.5s81.333 -28 106 -28c65.333 0 133.666 29.667 204.999 89l44 -91c-90.667 -70 -170.667 -105 -240 -105c-40 0 -85.667 9.33301 -137 28
s-100 37.334 -146 56.001s-82.333 28 -109 28c-66.667 0 -135 -29.667 -205 -89z" />
    <glyph glyph-name="uni00A0" unicode="&#xa0;" horiz-adv-x="580" 
 />
    <glyph glyph-name="exclamdown" unicode="&#xa1;" horiz-adv-x="595" 
d="M272 1063c16 0 31.5 -3.16699 46.5 -9.5s28.167 -15 39.5 -26s20.333 -24 27 -39s10 -30.833 10 -47.5s-3.33301 -32.5 -10 -47.5s-15.5 -28 -26.5 -39s-24 -19.667 -39 -26s-30.833 -9.5 -47.5 -9.5s-32.5 3.16699 -47.5 9.5s-28 15 -39 26s-19.667 24 -26 39
s-9.5 30.833 -9.5 47.5c0 16 3.16699 31.333 9.5 46s15 27.667 26 39s24 20.333 39 27s30.833 10 47.5 10zM445 -320c-23.333 -36 -48 -61.167 -74 -75.5s-53 -21.5 -81 -21.5c-22.667 0 -42 3.83301 -58 11.5s-29 18 -39 31s-17.333 28.5 -22 46.5s-7 37.667 -7 59l41 890
l119 34l40 -808z" />
    <glyph glyph-name="cent" unicode="&#xa2;" horiz-adv-x="973" 
d="M852 177l43 -139.999c-117.333 -40.667 -228.666 -61 -333.999 -61c-32 0 -62 2 -90 6l-47 -202h-115l53 228c-61.333 24 -112.333 59.667 -153 107c-76.667 89.333 -115 217.666 -115 384.999c0 186.667 50 330 150 430c89.333 88.667 209 133 359 133h7l54 232h115
l-57 -244c40 -7.33301 84.333 -18 133 -32l-43 -140c-47.333 16 -88.333 26.667 -123 32l-184 -783c24.667 -3.33301 48 -5 70 -5c65.333 0 157.666 18 276.999 54zM399 163.001l176 751c-86 -9.33301 -155.333 -41.333 -208 -96c-66 -68 -99 -167.333 -99 -298
c0 -132 19.667 -228 59 -288c18 -28 42 -51 72 -69z" />
    <glyph glyph-name="sterling" unicode="&#xa3;" horiz-adv-x="1144" 
d="M294 895v169.001c0 137.333 22.667 235.666 68 294.999c51.333 67.333 141 101 269 101c86 0 188.333 -14.333 307 -43l-31 -139c-101.333 22 -182.333 33 -243 33c-86.667 0 -141.667 -17.667 -165 -53c-11.333 -16.667 -18.5 -37.5 -21.5 -62.5
s-4.5 -60.833 -4.5 -107.5v-193h343v-154h-343v-587h551v-154h-730v741h-174v154h174z" />
    <glyph glyph-name="yen" unicode="&#xa5;" horiz-adv-x="1299" 
d="M1234 1438l-423 -675h183v-146h-255v-178h255v-146h-255v-293h-179v293h-255v146h255v178h-255v146h183l-423 675h204l380 -636l381 636h204z" />
    <glyph glyph-name="brokenbar" unicode="&#xa6;" horiz-adv-x="600" 
d="M230 1571h155v-670h-155v670zM230 539h155v-670h-155v670z" />
    <glyph glyph-name="section" unicode="&#xa7;" horiz-adv-x="963" 
d="M803 1376l-61.999 -123.997c-84.667 35.333 -170.667 53 -258 53c-59.333 0 -107.5 -11.5 -144.5 -34.5s-55.5 -59.833 -55.5 -110.5c0 -22 4.5 -41.667 13.5 -59s20 -31.5 33 -42.5s31 -21.333 54 -31s44 -17.334 63 -23.001s43.5 -11.834 73.5 -18.501
c43.333 -10 80.666 -20.167 111.999 -30.5s62.333 -24 93 -41s55.5 -36.333 74.5 -58s34.333 -48.5 46 -80.5s17.5 -68.333 17.5 -109c0 -100 -37 -177.333 -111 -232c74 -51.333 111 -128 111 -230c0 -70 -18.833 -129.167 -56.5 -177.5s-86.334 -83.166 -146.001 -104.499
s-128.167 -32 -205.5 -32c-123.333 0 -241.666 26.667 -354.999 80l62 123c104 -45.333 202.667 -68 296 -68c69.333 0 126.666 14.667 171.999 44s68 74.333 68 135c0 23.333 -4.5 44.166 -13.5 62.499s-20.167 33.333 -33.5 45s-31.166 22.167 -53.499 31.5
s-43.5 16.666 -63.5 21.999s-44.333 11 -73 17c-50.667 10 -95.167 22.5 -133.5 37.5s-74 34.5 -107 58.5s-58.333 54.333 -76 91s-26.5 79.334 -26.5 128.001c0 99.333 42.667 174 128 224c-85.333 55.333 -128 134.666 -128 237.999c0 92 35 161.667 105 209
s157.333 71 262 71c112 0 218 -21.333 318 -64zM283.001 698.003c0 -22 4.49805 -41.6641 13.498 -58.9971s20 -31.5 33 -42.5s31 -21.333 54 -31s44 -17.334 63 -23.001s43.5 -11.834 73.5 -18.501c26.667 -6 47.667 -11.333 63 -16c76.667 28.667 115 81.667 115 159
c0 22.667 -4.16699 43 -12.5 61s-19 32.833 -32 44.5s-30.167 22.167 -51.5 31.5s-41.666 16.666 -60.999 21.999s-42.666 11 -69.999 17c-125.333 -4 -188 -52.333 -188 -145z" />
    <glyph glyph-name="dieresis" unicode="&#xa8;" horiz-adv-x="986" 
d="M273 1418c16 0 31.334 -3.16602 46.001 -9.49902s27.334 -14.833 38.001 -25.5s19.167 -23.334 25.5 -38.001s9.5 -30 9.5 -46c0 -17.333 -3.16699 -33.333 -9.5 -48s-14.833 -27.334 -25.5 -38.001s-23.334 -19.167 -38.001 -25.5s-30 -9.5 -46 -9.5
c-17.333 0 -33.333 3.16699 -48 9.5s-27.667 14.833 -39 25.5c-24 22 -36 50.667 -36 86c0 16 3.16699 31.333 9.5 46s15.166 27.334 26.499 38.001s24.333 19.167 39 25.5s30.667 9.5 48 9.5zM715.001 1418c16.667 0 32.334 -3.16797 47.001 -9.50098
s27.667 -14.833 39 -25.5s20 -23.334 26 -38.001s9 -30 9 -46c0 -35.333 -11.667 -64 -35 -86c-11.333 -10.667 -24.333 -19.167 -39 -25.5s-30.334 -9.5 -47.001 -9.5c-16 0 -31.167 3.16699 -45.5 9.5s-27.166 14.833 -38.499 25.5s-20.333 23.334 -27 38.001
s-10 30.667 -10 48c0 16 3.33301 31.333 10 46s15.667 27.334 27 38.001s24.166 19.167 38.499 25.5s29.5 9.5 45.5 9.5z" />
    <glyph glyph-name="copyright" unicode="&#xa9;" horiz-adv-x="1649" 
d="M824 1229c65.333 0 128.5 -8.66699 189.5 -26s118.167 -41.5 171.5 -72.5s101.833 -68.5 145.5 -112.5s81.167 -92.5 112.5 -145.5s55.666 -110 72.999 -171s26 -124.167 26 -189.5s-8.66699 -128.5 -26 -189.5s-41.666 -118 -72.999 -171s-68.833 -101.333 -112.5 -145
s-92.167 -81.167 -145.5 -112.5s-110.5 -55.5 -171.5 -72.5s-124.167 -25.5 -189.5 -25.5s-128.5 8.5 -189.5 25.5s-118 41 -171 72s-101.5 68.167 -145.5 111.5s-81.5 91.5 -112.5 144.5s-55.167 110.167 -72.5 171.5s-26 125 -26 191c0 65.333 8.66699 128.5 26 189.5
s41.5 118 72.5 171s68.5 101.5 112.5 145.5s92.5 81.5 145.5 112.5s110 55.167 171 72.5s124.167 26 189.5 26zM824 1113c-84 0 -162.671 -15.6709 -236.004 -47.0039s-137 -74.166 -191 -128.499s-96.667 -118 -128 -191s-47 -151.167 -47 -234.5
c0 -54.667 7.16699 -107.667 21.5 -159s34.333 -99.333 60 -144s56.834 -85.5 93.501 -122.5s77.167 -68.833 121.5 -95.5s92.333 -47.334 144 -62.001s105.5 -22 161.5 -22s109.833 7.33301 161.5 22s99.834 35.334 144.501 62.001s85.167 58.5 121.5 95.5
s67.5 77.833 93.5 122.5s46.167 92.667 60.5 144s21.5 104.333 21.5 159c0 82.667 -15.667 160.334 -47 233.001s-74.166 136.334 -128.499 191.001s-118.166 97.834 -191.499 129.501s-152 47.5 -236 47.5zM1012 775.996c-25.333 10 -50.832 18.3311 -76.499 24.998
s-52.834 10 -81.501 10c-44 0 -82.167 -8.16699 -114.5 -24.5s-58.5 -37.833 -78.5 -64.5s-34.5 -58.167 -43.5 -94.5s-13.5 -74.5 -13.5 -114.5c0 -45.333 3.33301 -86.333 10 -123s18.667 -68.667 36 -96c22 -32 50.833 -54.167 86.5 -66.5s73.5 -18.5 113.5 -18.5
c31.333 0 62.833 3 94.5 9s61.5 13.667 89.5 23l32 -96c-31.333 -9.33301 -66.5 -17.666 -105.5 -24.999s-79.5 -11 -121.5 -11c-58.667 0 -111.167 7.16699 -157.5 21.5s-86.5 40.5 -120.5 78.5c-29.333 32.667 -51.5 72.834 -66.5 120.501s-22.5 102.5 -22.5 164.5
c0 73.333 9.33301 136 28 188s44 95 76 129c32.667 34.667 71.5 60 116.5 76s94.833 24 149.5 24c37.333 0 73 -3.33301 107 -10s69.333 -17 106 -31z" />
    <glyph glyph-name="guillemotleft" unicode="&#xab;" horiz-adv-x="1360" 
d="M170 518l443 441l100 -99l-340 -342l341 -344l-101 -99zM646 518l443 441l100 -99l-340 -342l341 -344l-101 -99z" />
    <glyph glyph-name="logicalnot" unicode="&#xac;" horiz-adv-x="1281" 
d="M185 612h911v-458h-147v311h-764v147z" />
    <glyph glyph-name="uni00AD" unicode="&#xad;" horiz-adv-x="1164" 
d="M204 632h756v-148h-756v148z" />
    <glyph glyph-name="registered" unicode="&#xae;" horiz-adv-x="1649" 
d="M824 1229c65.333 0 128.5 -8.66699 189.5 -26s118.167 -41.5 171.5 -72.5s101.833 -68.5 145.5 -112.5s81.167 -92.5 112.5 -145.5s55.666 -110 72.999 -171s26 -124.167 26 -189.5s-8.66699 -128.5 -26 -189.5s-41.666 -118 -72.999 -171s-68.833 -101.333 -112.5 -145
s-92.167 -81.167 -145.5 -112.5s-110.5 -55.5 -171.5 -72.5s-124.167 -25.5 -189.5 -25.5s-128.5 8.5 -189.5 25.5s-118 41 -171 72s-101.5 68.167 -145.5 111.5s-81.5 91.5 -112.5 144.5s-55.167 110.167 -72.5 171.5s-26 125 -26 191c0 65.333 8.66699 128.5 26 189.5
s41.5 118 72.5 171s68.5 101.5 112.5 145.5s92.5 81.5 145.5 112.5s110 55.167 171 72.5s124.167 26 189.5 26zM824 1113c-84 0 -162.671 -15.6709 -236.004 -47.0039s-137 -74.166 -191 -128.499s-96.667 -118 -128 -191s-47 -151.167 -47 -234.5
c0 -54.667 7.16699 -107.667 21.5 -159s34.333 -99.333 60 -144s56.834 -85.5 93.501 -122.5s77.167 -68.833 121.5 -95.5s92.333 -47.334 144 -62.001s105.5 -22 161.5 -22s109.833 7.33301 161.5 22s99.834 35.334 144.501 62.001s85.167 58.5 121.5 95.5
s67.5 77.833 93.5 122.5s46.167 92.667 60.5 144s21.5 104.333 21.5 159c0 82.667 -15.667 160.334 -47 233.001s-74.166 136.334 -128.499 191.001s-118.166 97.834 -191.499 129.501s-152 47.5 -236 47.5zM898.996 308.996c-22.667 32.667 -41.668 59 -57.001 79
s-30 35.667 -44 47c-14.667 11.333 -28.667 19 -42 23s-29 6 -47 6h-11v-339h-127v770h272c37.333 0 72.333 -4.16699 105 -12.5s61 -21 85 -38s42.833 -39 56.5 -66s20.5 -58.833 20.5 -95.5c0 -32 -5.66699 -60.667 -17 -86s-26.666 -47 -45.999 -65s-42 -32.5 -68 -43.5
s-53.667 -17.833 -83 -20.5c12 -7.33301 23.5 -16 34.5 -26s23.5 -23 37.5 -39l43 -55l45 -60l119 -163h-149zM822.995 556.996c22.667 0 43.667 2 63 6s36 10.667 50 20s25 21.833 33 37.5s12 35.167 12 58.5c0 24 -4 43.833 -12 59.5s-19 28.167 -33 37.5
s-30.667 16 -50 20s-40.333 6 -63 6h-125v-245h125z" />
    <glyph glyph-name="macron" unicode="&#xaf;" horiz-adv-x="623" 
d="M55 1709h513v-121h-513v121z" />
    <glyph glyph-name="degree" unicode="&#xb0;" horiz-adv-x="771" 
d="M385 1504c40 0 77.5 -7.33301 112.5 -22s65.333 -34.834 91 -60.501s45.834 -56 60.501 -91s22 -72.5 22 -112.5s-7.33301 -77.333 -22 -112s-34.834 -64.834 -60.501 -90.501s-56 -45.834 -91 -60.501s-72.5 -22 -112.5 -22s-77.333 7.33301 -112 22
s-64.834 34.834 -90.501 60.501s-45.834 55.834 -60.501 90.501s-22 72 -22 112s7.33301 77.5 22 112.5s34.834 65.333 60.501 91s55.834 45.834 90.501 60.501s72 22 112 22zM385 1364c-20.667 0 -39.834 -3.66699 -57.501 -11s-33 -17.5 -46 -30.5
s-23.333 -28.5 -31 -46.5s-11.5 -37.333 -11.5 -58s3.83301 -39.834 11.5 -57.501s18 -33 31 -46s28.333 -23.333 46 -31s36.834 -11.5 57.501 -11.5s40 3.83301 58 11.5s33.5 18 46.5 31s23.167 28.333 30.5 46s11 36.834 11 57.501s-3.66699 40 -11 58
s-17.5 33.5 -30.5 46.5s-28.5 23.167 -46.5 30.5s-37.333 11 -58 11z" />
    <glyph glyph-name="plusminus" unicode="&#xb1;" horiz-adv-x="1134" 
d="M979 745v-137h-346v-345h-137v345h-345v137h346v346h137v-346h345zM151 0v137h828v-137h-828z" />
    <glyph glyph-name="acute" unicode="&#xb4;" horiz-adv-x="575" 
d="M229 1443l-50.999 177.001c43.333 31.333 83.666 47 120.999 47c41.333 0 73.833 -11 97.5 -33s35.834 -49.167 36.501 -81.5s-5.33301 -66.5 -18 -102.5c-18.667 -44.667 -66.334 -134.334 -143.001 -269.001h-122z" />
    <glyph glyph-name="paragraph" unicode="&#xb6;" horiz-adv-x="600" 
 />
    <glyph glyph-name="periodcentered" unicode="&#xb7;" horiz-adv-x="584" 
d="M292 706c18 0 34.5 -3.16699 49.5 -9.5s27.833 -15 38.5 -26s19 -24 25 -39s9 -30.833 9 -47.5s-3.16699 -32.5 -9.5 -47.5s-15 -28 -26 -39s-24 -19.667 -39 -26s-30.833 -9.5 -47.5 -9.5s-32.5 3.16699 -47.5 9.5s-28 15 -39 26s-19.667 24 -26 39
s-9.5 30.833 -9.5 47.5c0 18 3.33301 34.333 10 49s15.5 27.5 26.5 38.5s24 19.5 39 25.5s30.5 9 46.5 9z" />
    <glyph glyph-name="cedilla" unicode="&#xb8;" horiz-adv-x="756" 
d="M362 0l121.003 -0.00488281l-89 -112c51.333 -16 88.166 -35.667 110.499 -59s33.5 -53.666 33.5 -90.999c0 -55.333 -19.333 -96.666 -58 -123.999s-90.334 -41 -155.001 -41c-50.667 0 -109.334 10.333 -176.001 31l50 92c46.667 -28.667 90.667 -43 132 -43
c26.667 0 47 7.33301 61 22s21 32.334 21 53.001c0 22.667 -12 42.334 -36 59.001s-62 33.334 -114 50.001z" />
    <glyph glyph-name="guillemotright" unicode="&#xbb;" horiz-adv-x="1360" 
d="M171 860l100 99l443 -441l-443 -443l-101 99l341 344zM647 860l100 99l443 -441l-443 -443l-101 99l341 344z" />
    <glyph glyph-name="questiondown" unicode="&#xbf;" horiz-adv-x="1012" 
d="M636 1063c16 0 31.5 -3.16699 46.5 -9.5s28.167 -15 39.5 -26s20.333 -24 27 -39s10 -30.833 10 -47.5s-3.33301 -32.5 -10 -47.5s-15.5 -28 -26.5 -39s-24 -19.667 -39 -26s-30.833 -9.5 -47.5 -9.5s-32.5 3.16699 -47.5 9.5s-28 15 -39 26s-19.667 24 -26 39
s-9.5 30.833 -9.5 47.5c0 16 3.16699 31.333 9.5 46s15 27.667 26 39s24 20.333 39 27s30.833 10 47.5 10zM764 297c-77.333 -34 -144.333 -62.335 -201 -85.002s-103.834 -45.834 -141.501 -69.501s-65.667 -51.167 -84 -82.5s-27.5 -72.666 -27.5 -123.999
c0 -40 5.83301 -72.833 17.5 -98.5s27.834 -45.667 48.501 -60s45 -24.333 73 -30s58.667 -8.5 92 -8.5c27.333 0 54.833 2.33301 82.5 7s54.667 10.667 81 18s52.166 16 77.499 26s49 20.333 71 31c6.66699 -27.333 12.5 -54.166 17.5 -80.499
s8.83301 -53.166 11.5 -80.499c-61.333 -25.333 -120.5 -44.5 -177.5 -57.5s-113.833 -19.5 -170.5 -19.5c-49.333 0 -98.166 5 -146.499 15s-91.5 28.167 -129.5 54.5s-68.833 62.333 -92.5 108s-35.5 104.167 -35.5 175.5c0 62 9.83301 114.667 29.5 158s48 81.333 85 114
s82.5 62.5 136.5 89.5s115.333 55.167 184 84.5v239l139 40z" />
    <glyph glyph-name="Agrave" unicode="&#xc0;" horiz-adv-x="1369" 
d="M737 1571l-121.999 -0.000976562c-76.667 134.667 -124.334 224.334 -143.001 269.001c-12.667 36 -18.667 70.167 -18 102.5s12.834 59.5 36.501 81.5s56.167 33 97.5 33c37.333 0 77.666 -15.667 120.999 -47l-51 -177zM1158 -0.000976562l-189 489h-569l-189 -489
h-191l570 1438h189l570 -1438h-191zM459.001 642.999h451l-226 585z" />
    <glyph glyph-name="Aacute" unicode="&#xc1;" horiz-adv-x="1369" 
d="M709 1833l-50.999 177.001c43.333 31.333 83.666 47 120.999 47c41.333 0 73.833 -11 97.5 -33s35.834 -49.167 36.501 -81.5s-5.33301 -66.5 -18 -102.5c-18.667 -44.667 -66.334 -134.334 -143.001 -269.001h-122zM1158 0.000976562l-189 489h-569l-189 -489h-191
l570 1438h189l570 -1438h-191zM459.001 643.001h451l-226 585z" />
    <glyph glyph-name="Acircumflex" unicode="&#xc2;" horiz-adv-x="1369" 
d="M367 1648l317 254l313 -254l-71 -87l-242 141l-246 -141zM1158 0l-189 489h-569l-189 -489h-191l570 1438h189l570 -1438h-191zM459 643h451l-226 585z" />
    <glyph glyph-name="Atilde" unicode="&#xc3;" horiz-adv-x="1369" 
d="M898 1778h100.002c-10 -63.333 -29.333 -112 -58 -146c-35.333 -40.667 -82.333 -61 -141 -61c-26.667 0 -70 11.333 -130 34s-102.667 34 -128 34c-20.667 0 -38.334 -8.33301 -53.001 -25s-22 -33.667 -22 -51h-103c8 53.333 27.333 99 58 137
c35.333 45.333 78.333 68 129 68c32 0 76.667 -11.667 134 -35s98.666 -35 123.999 -35c45.333 0 75.333 26.667 90 80zM1158 0l-189 489h-569l-189 -489h-191l570 1438h189l570 -1438h-191zM459.002 643h451l-226 585z" />
    <glyph glyph-name="Adieresis" unicode="&#xc4;" horiz-adv-x="1369" 
d="M464 1798c16 0 31.334 -3.16602 46.001 -9.49902s27.334 -14.833 38.001 -25.5s19.167 -23.334 25.5 -38.001s9.5 -30 9.5 -46c0 -17.333 -3.16699 -33.333 -9.5 -48s-14.833 -27.334 -25.5 -38.001s-23.334 -19.167 -38.001 -25.5s-30 -9.5 -46 -9.5
c-17.333 0 -33.333 3.16699 -48 9.5s-27.667 14.833 -39 25.5c-24 22 -36 50.667 -36 86c0 16 3.16699 31.333 9.5 46s15.166 27.334 26.499 38.001s24.333 19.167 39 25.5s30.667 9.5 48 9.5zM906.001 1798c16.667 0 32.334 -3.16797 47.001 -9.50098
s27.667 -14.833 39 -25.5s20 -23.334 26 -38.001s9 -30 9 -46c0 -35.333 -11.667 -64 -35 -86c-11.333 -10.667 -24.333 -19.167 -39 -25.5s-30.334 -9.5 -47.001 -9.5c-16 0 -31.167 3.16699 -45.5 9.5s-27.166 14.833 -38.499 25.5s-20.333 23.334 -27 38.001
s-10 30.667 -10 48c0 16 3.33301 31.333 10 46s15.667 27.334 27 38.001s24.166 19.167 38.499 25.5s29.5 9.5 45.5 9.5zM969.001 489h-569l-189 -489h-191l570 1438h189l570 -1438h-191zM910.001 643l-226 585l-225 -585h451z" />
    <glyph glyph-name="Aring" unicode="&#xc5;" horiz-adv-x="1369" 
d="M685 1922c24.667 0 47.834 -4.5 69.501 -13.5s40.5 -21.5 56.5 -37.5s28.5 -34.833 37.5 -56.5s13.5 -44.834 13.5 -69.501s-4.5 -47.834 -13.5 -69.501s-21.5 -40.5 -37.5 -56.5s-34.833 -28.5 -56.5 -37.5s-44.834 -13.5 -69.501 -13.5s-47.834 4.5 -69.501 13.5
s-40.5 21.5 -56.5 37.5s-28.5 34.833 -37.5 56.5s-13.5 44.834 -13.5 69.501s4.5 47.834 13.5 69.501s21.5 40.5 37.5 56.5s34.833 28.5 56.5 37.5s44.834 13.5 69.501 13.5zM685 1828c-23.333 0 -43 -8 -59 -24s-24 -35.667 -24 -59s8 -43 24 -59s35.667 -24 59 -24
s43 8 59 24s24 35.667 24 59s-8 43 -24 59s-35.667 24 -59 24zM969 489h-569l-189 -489h-191l570 1438h189l570 -1438h-191zM910 643l-226 585l-225 -585h451z" />
    <glyph glyph-name="AE" unicode="&#xc6;" horiz-adv-x="1862" 
d="M1102 154h632v-154h-820v489h-415l-270 -489h-229l834 1438h878v-154h-610v-397h431v-154h-431v-579zM584 643h330v597z" />
    <glyph glyph-name="Ccedilla" unicode="&#xc7;" horiz-adv-x="1239" 
d="M721 -112c52 -16 89 -35.666 111 -58.999s33 -53.666 33 -90.999c0 -28.667 -5.33301 -53.334 -16 -74.001s-25.5 -37.834 -44.5 -51.501s-41.5 -23.667 -67.5 -30s-54.333 -9.5 -85 -9.5c-28 0 -56.667 2.83301 -86 8.5s-59.333 13.167 -90 22.5l50 92
c26.667 -13.333 50.5 -23.833 71.5 -31.5s41.167 -11.5 60.5 -11.5c28 0 48.667 7.66699 62 23s20 32.666 20 51.999c0 24 -12.5 44.167 -37.5 60.5s-62.5 32.5 -112.5 48.5l85 141c-186 11.333 -325.833 77.5 -419.5 198.5s-140.5 294.833 -140.5 521.5
c0 252 52 442 156 570s258 192 462 192c77.333 0 146.833 -6.66699 208.5 -20s121.167 -30.666 178.5 -51.999l-52 -148c-27.333 10 -54.333 19 -81 27s-53.5 14.667 -80.5 20s-54.833 9.33301 -83.5 12s-58.667 4 -90 4c-74 0 -137.667 -13.167 -191 -39.5
s-97.333 -64.666 -132 -114.999s-60.334 -111.666 -77.001 -183.999s-25 -154.5 -25 -246.5c0 -94.667 8.33301 -178.334 25 -251.001s42.334 -133.834 77.001 -183.501s78.667 -87.167 132 -112.5s117 -38 191 -38c68 0 132.667 5.66699 194 17s122.333 26.333 183 45
l47 -154c-54 -17.333 -111 -31.5 -171 -42.5s-124.667 -18.167 -194 -21.5z" />
    <glyph glyph-name="Egrave" unicode="&#xc8;" horiz-adv-x="1131" 
d="M667 1571l-121.999 -0.000976562c-76.667 134.667 -124.334 224.334 -143.001 269.001c-12.667 36 -18.667 70.167 -18 102.5s12.834 59.5 36.501 81.5s56.167 33 97.5 33c37.333 0 77.666 -15.667 120.999 -47l-51 -177zM182.001 1438h798v-154h-610v-397h432v-154h-432
v-579h633v-154h-821v1438z" />
    <glyph glyph-name="Eacute" unicode="&#xc9;" horiz-adv-x="1131" 
d="M598 1833l-50.999 177.001c43.333 31.333 83.666 47 120.999 47c41.333 0 73.833 -11 97.5 -33s35.834 -49.167 36.501 -81.5s-5.33301 -66.5 -18 -102.5c-18.667 -44.667 -66.334 -134.334 -143.001 -269.001h-122zM182.001 1438h798v-154h-610v-397h432v-154h-432v-579
h633v-154h-821v1438z" />
    <glyph glyph-name="Ecircumflex" unicode="&#xca;" horiz-adv-x="1131" 
d="M274 1648l317 254l313 -254l-71 -87l-242 141l-246 -141zM182 1438h798v-154h-610v-397h432v-154h-432v-579h633v-154h-821v1438z" />
    <glyph glyph-name="Edieresis" unicode="&#xcb;" horiz-adv-x="1131" 
d="M361 1798c16 0 31.334 -3.16602 46.001 -9.49902s27.334 -14.833 38.001 -25.5s19.167 -23.334 25.5 -38.001s9.5 -30 9.5 -46c0 -17.333 -3.16699 -33.333 -9.5 -48s-14.833 -27.334 -25.5 -38.001s-23.334 -19.167 -38.001 -25.5s-30 -9.5 -46 -9.5
c-17.333 0 -33.333 3.16699 -48 9.5s-27.667 14.833 -39 25.5c-24 22 -36 50.667 -36 86c0 16 3.16699 31.333 9.5 46s15.166 27.334 26.499 38.001s24.333 19.167 39 25.5s30.667 9.5 48 9.5zM803.001 1798c16.667 0 32.334 -3.16797 47.001 -9.50098
s27.667 -14.833 39 -25.5s20 -23.334 26 -38.001s9 -30 9 -46c0 -35.333 -11.667 -64 -35 -86c-11.333 -10.667 -24.333 -19.167 -39 -25.5s-30.334 -9.5 -47.001 -9.5c-16 0 -31.167 3.16699 -45.5 9.5s-27.166 14.833 -38.499 25.5s-20.333 23.334 -27 38.001
s-10 30.667 -10 48c0 16 3.33301 31.333 10 46s15.667 27.334 27 38.001s24.166 19.167 38.499 25.5s29.5 9.5 45.5 9.5zM980.001 1438v-154h-610v-397h432v-154h-432v-579h633v-154h-821v1438h798z" />
    <glyph glyph-name="Igrave" unicode="&#xcc;" horiz-adv-x="596" 
d="M368 1571l-121.999 -0.000976562c-76.667 134.667 -124.334 224.334 -143.001 269.001c-12.667 36 -18.667 70.167 -18 102.5s12.834 59.5 36.501 81.5s56.167 33 97.5 33c37.333 0 77.666 -15.667 120.999 -47l-51 -177zM206.001 1438h188v-1438h-188v1438z" />
    <glyph glyph-name="Iacute" unicode="&#xcd;" horiz-adv-x="596" 
d="M340 1833l-50.999 177.001c43.333 31.333 83.666 47 120.999 47c41.333 0 73.833 -11 97.5 -33s35.834 -49.167 36.501 -81.5s-5.33301 -66.5 -18 -102.5c-18.667 -44.667 -66.334 -134.334 -143.001 -269.001h-122zM204.001 1438h188v-1438h-188v1438z" />
    <glyph glyph-name="Icircumflex" unicode="&#xce;" horiz-adv-x="596" 
d="M-16 1648l317 254l313 -254l-71 -87l-242 141l-246 -141zM204 1438h188v-1438h-188v1438z" />
    <glyph glyph-name="Idieresis" unicode="&#xcf;" horiz-adv-x="596" 
d="M76 1798c16 0 31.334 -3.16602 46.001 -9.49902s27.334 -14.833 38.001 -25.5s19.167 -23.334 25.5 -38.001s9.5 -30 9.5 -46c0 -17.333 -3.16699 -33.333 -9.5 -48s-14.833 -27.334 -25.5 -38.001s-23.334 -19.167 -38.001 -25.5s-30 -9.5 -46 -9.5
c-17.333 0 -33.333 3.16699 -48 9.5s-27.667 14.833 -39 25.5c-24 22 -36 50.667 -36 86c0 16 3.16699 31.333 9.5 46s15.166 27.334 26.499 38.001s24.333 19.167 39 25.5s30.667 9.5 48 9.5zM518.001 1798c16.667 0 32.334 -3.16797 47.001 -9.50098
s27.667 -14.833 39 -25.5s20 -23.334 26 -38.001s9 -30 9 -46c0 -35.333 -11.667 -64 -35 -86c-11.333 -10.667 -24.333 -19.167 -39 -25.5s-30.334 -9.5 -47.001 -9.5c-16 0 -31.167 3.16699 -45.5 9.5s-27.166 14.833 -38.499 25.5s-20.333 23.334 -27 38.001
s-10 30.667 -10 48c0 16 3.33301 31.333 10 46s15.667 27.334 27 38.001s24.166 19.167 38.499 25.5s29.5 9.5 45.5 9.5zM392.001 1438v-1438h-188v1438h188z" />
    <glyph glyph-name="Eth" unicode="&#xd0;" horiz-adv-x="1376" 
d="M486 1438c82 0 158.167 -4.17285 228.5 -12.5059s134.833 -22.833 193.5 -43.5s110.167 -48.167 154.5 -82.5s82.5 -78.166 114.5 -131.499c31.333 -53.333 55 -116.666 71 -189.999s24 -159.666 24 -258.999s-8 -185.666 -24 -258.999s-39.667 -136.666 -71 -189.999
c-32 -53.333 -70.167 -97.166 -114.5 -131.499s-95.833 -61.833 -154.5 -82.5s-123.167 -35.167 -193.5 -43.5s-146.5 -12.5 -228.5 -12.5h-304v650h-284v148h284v640h304zM517 153.994c102 0 188.5 10.167 259.5 30.5s129.167 53.5 174.5 99.5
c44.667 46 77.167 104.5 97.5 175.5s30.5 157.5 30.5 259.5s-10.167 188.5 -30.5 259.5s-52.833 129.5 -97.5 175.5c-45.333 46 -103.5 79.167 -174.5 99.5s-157.5 30.5 -259.5 30.5h-147v-486h284v-148h-284v-496h147z" />
    <glyph glyph-name="Ntilde" unicode="&#xd1;" horiz-adv-x="1529" 
d="M1019 1778h100.002c-10 -63.333 -29.333 -112 -58 -146c-35.333 -40.667 -82.333 -61 -141 -61c-26.667 0 -70 11.333 -130 34s-102.667 34 -128 34c-20.667 0 -38.334 -8.33301 -53.001 -25s-22 -33.667 -22 -51h-103c8 53.333 27.333 99 58 137
c35.333 45.333 78.333 68 129 68c32 0 76.667 -11.667 134 -35s98.666 -35 123.999 -35c45.333 0 75.333 26.667 90 80zM1351 -10h-220l-765 1202v-1192h-188v1438h220l765 -1202v1202h188v-1448z" />
    <glyph glyph-name="Ograve" unicode="&#xd2;" horiz-adv-x="1482" 
d="M827 1571l-121.999 -0.000976562c-76.667 134.667 -124.334 224.334 -143.001 269.001c-12.667 36 -18.667 70.167 -18 102.5s12.834 59.5 36.501 81.5s56.167 33 97.5 33c37.333 0 77.666 -15.667 120.999 -47l-51 -177zM1372 718.999
c0 -240.667 -54.333 -424.667 -163 -552s-264.667 -191 -468 -191c-201.333 0 -356.833 63.5 -466.5 190.5s-164.5 311.167 -164.5 552.5c0 240.667 55 424.334 165 551.001s265.333 190 466 190c203.333 0 359.333 -63.833 468 -191.5s163 -310.834 163 -549.501z
M1179 718.999c0 185.333 -36.5 329.001 -109.5 431.001s-182.833 153 -329.5 153c-147.333 0 -257 -51.5 -329 -154.5s-108 -246.167 -108 -429.5c0 -90 8.5 -170.5 25.5 -241.5s43 -132.333 78 -184s80.667 -91.334 137 -119.001s121.833 -41.5 196.5 -41.5
c146.667 0 256.5 51.167 329.5 153.5s109.5 246.5 109.5 432.5z" />
    <glyph glyph-name="Oacute" unicode="&#xd3;" horiz-adv-x="1482" 
d="M757 1833l-50.999 177.001c43.333 31.333 83.666 47 120.999 47c41.333 0 73.833 -11 97.5 -33s35.834 -49.167 36.501 -81.5s-5.33301 -66.5 -18 -102.5c-18.667 -44.667 -66.334 -134.334 -143.001 -269.001h-122zM1372 719.001c0 -240.667 -54.333 -424.667 -163 -552
s-264.667 -191 -468 -191c-201.333 0 -356.833 63.5 -466.5 190.5s-164.5 311.167 -164.5 552.5c0 240.667 55 424.334 165 551.001s265.333 190 466 190c203.333 0 359.333 -63.833 468 -191.5s163 -310.834 163 -549.501zM1179 719.001
c0 185.333 -36.5 329.001 -109.5 431.001s-182.833 153 -329.5 153c-147.333 0 -257 -51.5 -329 -154.5s-108 -246.167 -108 -429.5c0 -90 8.5 -170.5 25.5 -241.5s43 -132.333 78 -184s80.667 -91.334 137 -119.001s121.833 -41.5 196.5 -41.5
c146.667 0 256.5 51.167 329.5 153.5s109.5 246.5 109.5 432.5z" />
    <glyph glyph-name="Ocircumflex" unicode="&#xd4;" horiz-adv-x="1482" 
d="M430 1648l317 254l313 -254l-71 -87l-242 141l-246 -141zM1372 719c0 -240.667 -54.333 -424.667 -163 -552s-264.667 -191 -468 -191c-201.333 0 -356.833 63.5 -466.5 190.5s-164.5 311.167 -164.5 552.5c0 240.667 55 424.334 165 551.001s265.333 190 466 190
c203.333 0 359.333 -63.833 468 -191.5s163 -310.834 163 -549.501zM1179 719c0 185.333 -36.5 329.001 -109.5 431.001s-182.833 153 -329.5 153c-147.333 0 -257 -51.5 -329 -154.5s-108 -246.167 -108 -429.5c0 -90 8.5 -170.5 25.5 -241.5s43 -132.333 78 -184
s80.667 -91.334 137 -119.001s121.833 -41.5 196.5 -41.5c146.667 0 256.5 51.167 329.5 153.5s109.5 246.5 109.5 432.5z" />
    <glyph glyph-name="Otilde" unicode="&#xd5;" horiz-adv-x="1482" 
d="M943 1778h100.002c-10 -63.333 -29.333 -112 -58 -146c-35.333 -40.667 -82.333 -61 -141 -61c-26.667 0 -70 11.333 -130 34s-102.667 34 -128 34c-20.667 0 -38.334 -8.33301 -53.001 -25s-22 -33.667 -22 -51h-103c8 53.333 27.333 99 58 137
c35.333 45.333 78.333 68 129 68c32 0 76.667 -11.667 134 -35s98.666 -35 123.999 -35c45.333 0 75.333 26.667 90 80zM1372 719c0 -240.667 -54.333 -424.667 -163 -552s-264.667 -191 -468 -191c-201.333 0 -356.833 63.5 -466.5 190.5s-164.5 311.167 -164.5 552.5
c0 240.667 55 424.334 165 551.001s265.333 190 466 190c203.333 0 359.333 -63.833 468 -191.5s163 -310.834 163 -549.501zM1179 719c0 185.333 -36.5 329.001 -109.5 431.001s-182.833 153 -329.5 153c-147.333 0 -257 -51.5 -329 -154.5s-108 -246.167 -108 -429.5
c0 -90 8.5 -170.5 25.5 -241.5s43 -132.333 78 -184s80.667 -91.334 137 -119.001s121.833 -41.5 196.5 -41.5c146.667 0 256.5 51.167 329.5 153.5s109.5 246.5 109.5 432.5z" />
    <glyph glyph-name="Odieresis" unicode="&#xd6;" horiz-adv-x="1482" 
d="M520 1798c16 0 31.334 -3.16602 46.001 -9.49902s27.334 -14.833 38.001 -25.5s19.167 -23.334 25.5 -38.001s9.5 -30 9.5 -46c0 -17.333 -3.16699 -33.333 -9.5 -48s-14.833 -27.334 -25.5 -38.001s-23.334 -19.167 -38.001 -25.5s-30 -9.5 -46 -9.5
c-17.333 0 -33.333 3.16699 -48 9.5s-27.667 14.833 -39 25.5c-24 22 -36 50.667 -36 86c0 16 3.16699 31.333 9.5 46s15.166 27.334 26.499 38.001s24.333 19.167 39 25.5s30.667 9.5 48 9.5zM962.001 1798c16.667 0 32.334 -3.16797 47.001 -9.50098
s27.667 -14.833 39 -25.5s20 -23.334 26 -38.001s9 -30 9 -46c0 -35.333 -11.667 -64 -35 -86c-11.333 -10.667 -24.333 -19.167 -39 -25.5s-30.334 -9.5 -47.001 -9.5c-16 0 -31.167 3.16699 -45.5 9.5s-27.166 14.833 -38.499 25.5s-20.333 23.334 -27 38.001
s-10 30.667 -10 48c0 16 3.33301 31.333 10 46s15.667 27.334 27 38.001s24.166 19.167 38.499 25.5s29.5 9.5 45.5 9.5zM1372 719c0 -120.667 -13.832 -227.33 -41.499 -319.997s-68.334 -170.334 -122.001 -233.001s-119.667 -110 -198 -142s-168.166 -48 -269.499 -48
c-99.333 0 -188.166 15.833 -266.499 47.5s-144.5 78.667 -198.5 141s-95.167 139.833 -123.5 232.5s-42.5 200 -42.5 322c0 121.333 14.167 228.166 42.5 320.499s69.5 169.666 123.5 231.999s120.167 109.333 198.5 141s167.166 47.5 266.499 47.5
c102 0 192.167 -16.167 270.5 -48.5s144.166 -80 197.499 -143s93.833 -140.5 121.5 -232.5s41.5 -197.667 41.5 -317zM1179 719.004c0 90 -8.83301 171.168 -26.5 243.501s-44.5 133.666 -80.5 183.999s-81.667 89 -137 116s-120.333 40.5 -195 40.5
c-76 0 -141.667 -13.833 -197 -41.5s-100.666 -67 -135.999 -118s-61.5 -112.5 -78.5 -184.5s-25.5 -152 -25.5 -240c0 -88.667 8.5 -169.167 25.5 -241.5s43.167 -134 78.5 -185s80.666 -90.333 135.999 -118s121 -41.5 197 -41.5c74.667 0 139.667 13.5 195 40.5
s101 65.833 137 116.5s62.833 112.167 80.5 184.5s26.5 153.833 26.5 244.5z" />
    <glyph glyph-name="multiply" unicode="&#xd7;" horiz-adv-x="983" 
d="M833 289l-97 -97l-245 245l-244 -244l-96 97l244 244l-245 244l97 97l245 -245l245 245l96 -97l-244 -244z" />
    <glyph glyph-name="Oslash" unicode="&#xd8;" horiz-adv-x="1482" 
d="M1192 1438l-51 -103.001c154 -124.667 231 -330 231 -616c0 -240.667 -54.333 -424.667 -163 -552s-264.667 -191 -468 -191c-92.667 0 -176 13.667 -250 41l-9 -17h-159l41 84c-169.333 122 -254 333.667 -254 635c0 240.667 55 424.334 165 551.001
s265.333 190 466 190c104 0 196.333 -17.333 277 -52l15 30h159zM445 246.999l499 1011c-58.667 30 -126.667 45 -204 45c-147.333 0 -257 -51.5 -329 -154.5s-108 -246.167 -108 -429.5c0 -216 47.333 -373.333 142 -472zM1057 1165l-493.001 -1000
c50.667 -21.333 109.334 -32 176.001 -32c146.667 0 256.5 51.167 329.5 153.5s109.5 246.5 109.5 432.5c0 198.667 -40.667 347.334 -122 446.001z" />
    <glyph glyph-name="Ugrave" unicode="&#xd9;" horiz-adv-x="1486" 
d="M807 1571l-121.999 -0.000976562c-76.667 134.667 -124.334 224.334 -143.001 269.001c-12.667 36 -18.667 70.167 -18 102.5s12.834 59.5 36.501 81.5s56.167 33 97.5 33c37.333 0 77.666 -15.667 120.999 -47l-51 -177zM1128 1438l187.999 0.000976562v-831
c0 -209.333 -47 -366.833 -141 -472.5s-238.333 -158.5 -433 -158.5c-381.333 0 -572 210.333 -572 631v831h188v-832c0 -73.333 6.33301 -137.833 19 -193.5s33.334 -105 62.001 -148s68.334 -75.667 119.001 -98s112 -33.5 184 -33.5c58.667 0 110.5 7.5 155.5 22.5
s81.833 35.833 110.5 62.5s52.167 60.167 70.5 100.5s31.166 83.666 38.499 129.999s11 98.833 11 157.5v832z" />
    <glyph glyph-name="Uacute" unicode="&#xda;" horiz-adv-x="1486" 
d="M743 1833l-50.999 177.001c43.333 31.333 83.666 47 120.999 47c41.333 0 73.833 -11 97.5 -33s35.834 -49.167 36.501 -81.5s-5.33301 -66.5 -18 -102.5c-18.667 -44.667 -66.334 -134.334 -143.001 -269.001h-122zM1128 1438l187.999 0.000976562v-831
c0 -209.333 -47 -366.833 -141 -472.5s-238.333 -158.5 -433 -158.5c-381.333 0 -572 210.333 -572 631v831h188v-832c0 -73.333 6.33301 -137.833 19 -193.5s33.334 -105 62.001 -148s68.334 -75.667 119.001 -98s112 -33.5 184 -33.5c58.667 0 110.5 7.5 155.5 22.5
s81.833 35.833 110.5 62.5s52.167 60.167 70.5 100.5s31.166 83.666 38.499 129.999s11 98.833 11 157.5v832z" />
    <glyph glyph-name="Ucircumflex" unicode="&#xdb;" horiz-adv-x="1486" 
d="M426 1648l317 254l313 -254l-71 -87l-242 141l-246 -141zM1128 1438l187.999 0.000976562v-831c0 -209.333 -47 -366.833 -141 -472.5s-238.333 -158.5 -433 -158.5c-381.333 0 -572 210.333 -572 631v831h188v-832c0 -73.333 6.33301 -137.833 19 -193.5
s33.334 -105 62.001 -148s68.334 -75.667 119.001 -98s112 -33.5 184 -33.5c58.667 0 110.5 7.5 155.5 22.5s81.833 35.833 110.5 62.5s52.167 60.167 70.5 100.5s31.166 83.666 38.499 129.999s11 98.833 11 157.5v832z" />
    <glyph glyph-name="Udieresis" unicode="&#xdc;" horiz-adv-x="1486" 
d="M522 1798c16 0 31.334 -3.16602 46.001 -9.49902s27.334 -14.833 38.001 -25.5s19.167 -23.334 25.5 -38.001s9.5 -30 9.5 -46c0 -17.333 -3.16699 -33.333 -9.5 -48s-14.833 -27.334 -25.5 -38.001s-23.334 -19.167 -38.001 -25.5s-30 -9.5 -46 -9.5
c-17.333 0 -33.333 3.16699 -48 9.5s-27.667 14.833 -39 25.5c-24 22 -36 50.667 -36 86c0 16 3.16699 31.333 9.5 46s15.166 27.334 26.499 38.001s24.333 19.167 39 25.5s30.667 9.5 48 9.5zM964.001 1798c16.667 0 32.334 -3.16797 47.001 -9.50098
s27.667 -14.833 39 -25.5s20 -23.334 26 -38.001s9 -30 9 -46c0 -35.333 -11.667 -64 -35 -86c-11.333 -10.667 -24.333 -19.167 -39 -25.5s-30.334 -9.5 -47.001 -9.5c-16 0 -31.167 3.16699 -45.5 9.5s-27.166 14.833 -38.499 25.5s-20.333 23.334 -27 38.001
s-10 30.667 -10 48c0 16 3.33301 31.333 10 46s15.667 27.334 27 38.001s24.166 19.167 38.499 25.5s29.5 9.5 45.5 9.5zM1316 1438l0.00195312 -830.997c0 -207.333 -46.5 -364.333 -139.5 -471s-237.833 -160 -434.5 -160c-98.667 0 -183.834 13.667 -255.501 41
s-131 67.666 -178 120.999s-81.833 119.166 -104.5 197.499s-34 168.833 -34 271.5v831h188v-832c0 -70.667 6.16699 -135 18.5 -193s33.333 -107.833 63 -149.5s69.167 -73.834 118.5 -96.501s110.666 -34 183.999 -34c75.333 0 137.833 11.5 187.5 34.5
s89.167 55.333 118.5 97s50 91.5 62 149.5s18 122 18 192v832h188z" />
    <glyph glyph-name="Yacute" unicode="&#xdd;" horiz-adv-x="1357" 
d="M688 1833l-50.999 177.001c43.333 31.333 83.666 47 120.999 47c41.333 0 73.833 -11 97.5 -33s35.834 -49.167 36.501 -81.5s-5.33301 -66.5 -18 -102.5c-18.667 -44.667 -66.334 -134.334 -143.001 -269.001h-122zM1078 1438h214l-520 -790v-648h-187v648l-520 790h214
l399 -636z" />
    <glyph glyph-name="Thorn" unicode="&#xde;" horiz-adv-x="1246" 
d="M375 1191h289.999c147.333 0 262 -37.5 344 -112.5s123 -182.167 123 -321.5c0 -144 -49.667 -253.167 -149 -327.5s-235.333 -111.5 -408 -111.5c-61.333 0 -128.666 5.33301 -201.999 16v-334h-188v1438h190v-247zM372.999 1037v-549.001
c73.333 -12 138.333 -18 195 -18c54 0 103 5.16699 147 15.5s83.5 26.333 118.5 48s62.167 51.334 81.5 89.001s29 81.834 29 132.501c0 95.333 -26 166.166 -78 212.499s-126.333 69.5 -223 69.5h-270z" />
    <glyph glyph-name="germandbls" unicode="&#xdf;" horiz-adv-x="1240" 
d="M186 0l-0.00195312 1104c0 115.333 44.667 204 134 266c80 57.333 177.667 86 293 86c116.667 0 213.334 -27.333 290.001 -82c43.333 -31.333 75.833 -71.166 97.5 -119.499s32.5 -99.833 32.5 -154.5c0 -63.333 -13.167 -120.333 -39.5 -171s-66.5 -100 -120.5 -148
c73.333 -26 131.166 -69 173.499 -129s63.5 -132 63.5 -216c0 -150.667 -45 -265.167 -135 -343.5s-213 -117.5 -369 -117.5c-41.333 0 -83.666 4 -126.999 12l49 152c28 -6 55 -9 81 -9c100.667 0 180 26.333 238 79s87 123.667 87 213c0 43.333 -7.33301 81.5 -22 114.5
s-32.167 58.833 -52.5 77.5s-47 34.667 -80 48s-62.333 22.5 -88 27.5s-56.5 9.83301 -92.5 14.5l33 136l95 -12c42.667 33.333 75.834 73 99.501 119s35.5 93.333 35.5 142c0 62 -19.667 111.667 -59 149c-46 44.667 -109.333 67 -190 67
c-74.667 0 -135.667 -17.5 -183 -52.5s-71 -85.5 -71 -151.5v-1101h-173z" />
    <glyph glyph-name="agrave" unicode="&#xe0;" horiz-adv-x="1041" 
d="M613 1211l-121.999 -0.000976562c-76.667 134.667 -124.334 224.334 -143.001 269.001c-12.667 36 -18.667 70.167 -18 102.5s12.834 59.5 36.501 81.5s56.167 33 97.5 33c37.333 0 77.666 -15.667 120.999 -47l-51 -177zM229.001 855.999l-44 139.998
c112 44.667 229.333 67 352 67c107.333 0 189.333 -18 246 -54c64.667 -41.333 97 -111.666 97 -210.999v-409c0 -54.667 0.666992 -110.667 2 -168c0.666992 -34 4 -69.333 10 -106c5.33301 -34.667 12.333 -67.667 21 -99l-164 -36c-15.333 44.667 -25 94.667 -29 150
l-20 2c-82.667 -104 -188 -156 -316 -156c-93.333 0 -168.333 25.833 -225 77.5s-85 124.5 -85 218.5c0 70 15.5 127.333 46.5 172s74.833 82.334 131.5 113.001c89.333 48.667 214.333 73 375 73c21.333 0 50 -0.666992 86 -2v152c0 48 -14.667 82.667 -44 104
s-75.333 32 -138 32c-91.333 0 -192 -20 -302 -60zM713.001 291.997l-0.000976562 210.001c-18 1.33301 -44.333 2 -79 2c-58.667 0 -112.667 -5 -162 -15c-73.333 -14.667 -130.166 -37.834 -170.499 -69.501s-60.5 -77.167 -60.5 -136.5c0 -106.667 58 -160 174 -160
c60 0 116 16 168 48c42.667 26.667 86 67 130 121z" />
    <glyph glyph-name="aacute" unicode="&#xe1;" horiz-adv-x="1041" 
d="M550 1473l-50.999 177.001c43.333 31.333 83.666 47 120.999 47c41.333 0 73.833 -11 97.5 -33s35.834 -49.167 36.501 -81.5s-5.33301 -66.5 -18 -102.5c-18.667 -44.667 -66.334 -134.334 -143.001 -269.001h-122zM229.001 856.001l-44 139.998
c112 44.667 229.333 67 352 67c107.333 0 189.333 -18 246 -54c64.667 -41.333 97 -111.666 97 -210.999v-409c0 -54.667 0.666992 -110.667 2 -168c0.666992 -34 4 -69.333 10 -106c5.33301 -34.667 12.333 -67.667 21 -99l-164 -36c-15.333 44.667 -25 94.667 -29 150
l-20 2c-82.667 -104 -188 -156 -316 -156c-93.333 0 -168.333 25.833 -225 77.5s-85 124.5 -85 218.5c0 70 15.5 127.333 46.5 172s74.833 82.334 131.5 113.001c89.333 48.667 214.333 73 375 73c21.333 0 50 -0.666992 86 -2v152c0 48 -14.667 82.667 -44 104
s-75.333 32 -138 32c-91.333 0 -192 -20 -302 -60zM713.001 291.999l-0.000976562 210.001c-18 1.33301 -44.333 2 -79 2c-58.667 0 -112.667 -5 -162 -15c-73.333 -14.667 -130.166 -37.834 -170.499 -69.501s-60.5 -77.167 -60.5 -136.5c0 -106.667 58 -160 174 -160
c60 0 116 16 168 48c42.667 26.667 86 67 130 121z" />
    <glyph glyph-name="acircumflex" unicode="&#xe2;" horiz-adv-x="1041" 
d="M204 1278l317 254l313 -254l-71 -87l-242 141l-246 -141zM229 856l-44 139.998c112 44.667 229.333 67 352 67c107.333 0 189.333 -18 246 -54c64.667 -41.333 97 -111.666 97 -210.999v-409c0 -54.667 0.666992 -110.667 2 -168c0.666992 -34 4 -69.333 10 -106
c5.33301 -34.667 12.333 -67.667 21 -99l-164 -36c-15.333 44.667 -25 94.667 -29 150l-20 2c-82.667 -104 -188 -156 -316 -156c-93.333 0 -168.333 25.833 -225 77.5s-85 124.5 -85 218.5c0 70 15.5 127.333 46.5 172s74.833 82.334 131.5 113.001
c89.333 48.667 214.333 73 375 73c21.333 0 50 -0.666992 86 -2v152c0 48 -14.667 82.667 -44 104s-75.333 32 -138 32c-91.333 0 -192 -20 -302 -60zM713 291.998l-0.000976562 210.001c-18 1.33301 -44.333 2 -79 2c-58.667 0 -112.667 -5 -162 -15
c-73.333 -14.667 -130.166 -37.834 -170.499 -69.501s-60.5 -77.167 -60.5 -136.5c0 -106.667 58 -160 174 -160c60 0 116 16 168 48c42.667 26.667 86 67 130 121z" />
    <glyph glyph-name="atilde" unicode="&#xe3;" horiz-adv-x="1041" 
d="M706 1408h100.002c-10 -63.333 -29.333 -112 -58 -146c-35.333 -40.667 -82.333 -61 -141 -61c-26.667 0 -70 11.333 -130 34s-102.667 34 -128 34c-20.667 0 -38.334 -8.33301 -53.001 -25s-22 -33.667 -22 -51h-103c8 53.333 27.333 99 58 137
c35.333 45.333 78.333 68 129 68c32 0 76.667 -11.667 134 -35s98.666 -35 123.999 -35c45.333 0 75.333 26.667 90 80zM229.002 856l-44 139.998c112 44.667 229.333 67 352 67c107.333 0 189.333 -18 246 -54c64.667 -41.333 97 -111.666 97 -210.999v-409
c0 -54.667 0.666992 -110.667 2 -168c0.666992 -34 4 -69.333 10 -106c5.33301 -34.667 12.333 -67.667 21 -99l-164 -36c-15.333 44.667 -25 94.667 -29 150l-20 2c-82.667 -104 -188 -156 -316 -156c-93.333 0 -168.333 25.833 -225 77.5s-85 124.5 -85 218.5
c0 70 15.5 127.333 46.5 172s74.833 82.334 131.5 113.001c89.333 48.667 214.333 73 375 73c21.333 0 50 -0.666992 86 -2v152c0 48 -14.667 82.667 -44 104s-75.333 32 -138 32c-91.333 0 -192 -20 -302 -60zM713.002 291.998l-0.000976562 210.001
c-18 1.33301 -44.333 2 -79 2c-58.667 0 -112.667 -5 -162 -15c-73.333 -14.667 -130.166 -37.834 -170.499 -69.501s-60.5 -77.167 -60.5 -136.5c0 -106.667 58 -160 174 -160c60 0 116 16 168 48c42.667 26.667 86 67 130 121z" />
    <glyph glyph-name="adieresis" unicode="&#xe4;" horiz-adv-x="1041" 
d="M283 1428c16 0 31.334 -3.16602 46.001 -9.49902s27.334 -14.833 38.001 -25.5s19.167 -23.334 25.5 -38.001s9.5 -30 9.5 -46c0 -17.333 -3.16699 -33.333 -9.5 -48s-14.833 -27.334 -25.5 -38.001s-23.334 -19.167 -38.001 -25.5s-30 -9.5 -46 -9.5
c-17.333 0 -33.333 3.16699 -48 9.5s-27.667 14.833 -39 25.5c-24 22 -36 50.667 -36 86c0 16 3.16699 31.333 9.5 46s15.166 27.334 26.499 38.001s24.333 19.167 39 25.5s30.667 9.5 48 9.5zM725.001 1428c16.667 0 32.334 -3.16797 47.001 -9.50098
s27.667 -14.833 39 -25.5s20 -23.334 26 -38.001s9 -30 9 -46c0 -35.333 -11.667 -64 -35 -86c-11.333 -10.667 -24.333 -19.167 -39 -25.5s-30.334 -9.5 -47.001 -9.5c-16 0 -31.167 3.16699 -45.5 9.5s-27.166 14.833 -38.499 25.5s-20.333 23.334 -27 38.001
s-10 30.667 -10 48c0 16 3.33301 31.333 10 46s15.667 27.334 27 38.001s24.166 19.167 38.499 25.5s29.5 9.5 45.5 9.5zM185.001 996c54 21.333 110.666 37.8311 169.999 49.498s120 17.5 182 17.5c50 0 95.5 -4 136.5 -12s77.5 -22 109.5 -42s56.167 -47.167 72.5 -81.5
s24.5 -77.5 24.5 -129.5v-409c0 -36 0.166992 -67.667 0.5 -95s0.833008 -51.666 1.5 -72.999c0.666992 -22 1.83398 -41.333 3.50098 -58s3.83398 -32.667 6.50098 -48c2.66699 -16 5.5 -31.5 8.5 -46.5s7.16699 -32.5 12.5 -52.5l-164 -36
c-8 23.333 -14.333 47.333 -19 72s-8 50.667 -10 78l-20 2c-23.333 -29.333 -47.833 -53.833 -73.5 -73.5s-52 -35.667 -79 -48s-54.333 -21.166 -82 -26.499s-54.834 -8 -81.501 -8c-45.333 0 -87 6.33301 -125 19s-70.667 31.5 -98 56.5s-48.666 56 -63.999 93
s-23 79.5 -23 127.5c0 37.333 4.33301 70.5 13 99.5s21 55 37 78s34.833 43.167 56.5 60.5s45.5 33 71.5 47c52 28 110.333 47.167 175 57.5s131.334 15.5 200.001 15.5c13.333 0 27.666 -0.166992 42.999 -0.5s29.666 -0.833008 42.999 -1.5v152
c0 48 -14.667 82.667 -44 104s-75.333 32 -138 32c-56.667 0 -110.167 -6 -160.5 -18s-97.5 -26 -141.5 -42zM713 501.998c-13.333 1.33301 -26.502 2.00098 -39.502 2.00098h-39.5c-22 0 -47 -1 -75 -3s-57 -6 -87 -12c-33.333 -6.66699 -64.166 -15.167 -92.499 -25.5
s-52.666 -23.666 -72.999 -39.999s-36.333 -35.833 -48 -58.5s-17.5 -50 -17.5 -82c0 -57.333 15.667 -98.333 47 -123s73.666 -37 126.999 -37c32 0 61.833 4.16699 89.5 12.5s53.834 20.166 78.501 35.499c24 15.333 46.667 33.166 68 53.499s42 42.833 62 67.5v210z" />
    <glyph glyph-name="aring" unicode="&#xe5;" horiz-adv-x="1041" 
d="M514 1552c24.667 0 47.834 -4.5 69.501 -13.5s40.5 -21.5 56.5 -37.5s28.5 -34.833 37.5 -56.5s13.5 -44.834 13.5 -69.501s-4.5 -47.834 -13.5 -69.501s-21.5 -40.5 -37.5 -56.5s-34.833 -28.5 -56.5 -37.5s-44.834 -13.5 -69.501 -13.5s-47.834 4.5 -69.501 13.5
s-40.5 21.5 -56.5 37.5s-28.5 34.833 -37.5 56.5s-13.5 44.834 -13.5 69.501s4.5 47.834 13.5 69.501s21.5 40.5 37.5 56.5s34.833 28.5 56.5 37.5s44.834 13.5 69.501 13.5zM514 1458c-23.333 0 -43 -8 -59 -24s-24 -35.667 -24 -59s8 -43 24 -59s35.667 -24 59 -24
s43 8 59 24s24 35.667 24 59s-8 43 -24 59s-35.667 24 -59 24zM185 996c54 21.333 110.666 37.8311 169.999 49.498s120 17.5 182 17.5c50 0 95.5 -4 136.5 -12s77.5 -22 109.5 -42s56.167 -47.167 72.5 -81.5s24.5 -77.5 24.5 -129.5v-409c0 -36 0.166992 -67.667 0.5 -95
s0.833008 -51.666 1.5 -72.999c0.666992 -22 1.83398 -41.333 3.50098 -58s3.83398 -32.667 6.50098 -48c2.66699 -16 5.5 -31.5 8.5 -46.5s7.16699 -32.5 12.5 -52.5l-164 -36c-8 23.333 -14.333 47.333 -19 72s-8 50.667 -10 78l-20 2
c-23.333 -29.333 -47.833 -53.833 -73.5 -73.5s-52 -35.667 -79 -48s-54.333 -21.166 -82 -26.499s-54.834 -8 -81.501 -8c-45.333 0 -87 6.33301 -125 19s-70.667 31.5 -98 56.5s-48.666 56 -63.999 93s-23 79.5 -23 127.5c0 37.333 4.33301 70.5 13 99.5s21 55 37 78
s34.833 43.167 56.5 60.5s45.5 33 71.5 47c52 28 110.333 47.167 175 57.5s131.334 15.5 200.001 15.5c13.333 0 27.666 -0.166992 42.999 -0.5s29.666 -0.833008 42.999 -1.5v152c0 48 -14.667 82.667 -44 104s-75.333 32 -138 32c-56.667 0 -110.167 -6 -160.5 -18
s-97.5 -26 -141.5 -42zM712.999 501.998c-13.333 1.33301 -26.502 2.00098 -39.502 2.00098h-39.5c-22 0 -47 -1 -75 -3s-57 -6 -87 -12c-33.333 -6.66699 -64.166 -15.167 -92.499 -25.5s-52.666 -23.666 -72.999 -39.999s-36.333 -35.833 -48 -58.5s-17.5 -50 -17.5 -82
c0 -57.333 15.667 -98.333 47 -123s73.666 -37 126.999 -37c32 0 61.833 4.16699 89.5 12.5s53.834 20.166 78.501 35.499c24 15.333 46.667 33.166 68 53.499s42 42.833 62 67.5v210z" />
    <glyph glyph-name="ae" unicode="&#xe6;" horiz-adv-x="1705" 
d="M1612 524v-55.002h-736c3.33301 -232 106.333 -348 309 -348c54 0 123.667 11.333 209 34c32 8.66699 69.333 21.334 112 38.001l50 -135c-112 -44.667 -215.333 -70.667 -310 -78c-22 -2.66699 -46.333 -4 -73 -4c-153.333 0 -271 47.667 -353 143
c-14.667 17.333 -29 37.333 -43 60c-35.333 -45.333 -70.666 -82.5 -105.999 -111.5s-70.666 -49.667 -105.999 -62s-65.666 -20.333 -90.999 -24s-55.333 -5.5 -90 -5.5c-93.333 0 -168.333 25.833 -225 77.5s-85 124.5 -85 218.5c0 70 15.5 127.333 46.5 172
s74.833 82.334 131.5 113.001c89.333 48.667 214.333 73 375 73l86 -1v151c0 48 -14.667 82.667 -44 104s-75.333 32 -138 32c-91.333 0 -192 -20 -302 -60l-44 140c112 44.667 229.333 67 352 67c87.333 0 152.666 -9.66699 195.999 -29s79 -56.333 107 -111
c35.333 44.667 78.166 79.167 128.499 103.5s115.166 36.5 194.499 36.5c132.667 0 237 -38 313 -114c90.667 -92 136 -233.667 136 -425zM885 606.998h554c-5.33301 106 -31 184.333 -77 235s-112.333 76 -199 76c-86 0 -151.5 -25 -196.5 -75s-72.167 -128.667 -81.5 -236
zM583 170.998c50.667 32 98.332 76.334 142.999 133.001c-15.333 57.333 -23 119.333 -23 186v13c-15.333 0.666992 -38.333 1 -69 1c-58.667 0 -112.667 -5 -162 -15c-73.333 -14.667 -130.166 -37.834 -170.499 -69.501s-60.5 -77.167 -60.5 -136.5
c0 -106.667 58 -160 174 -160c60 0 116 16 168 48z" />
    <glyph glyph-name="ccedilla" unicode="&#xe7;" horiz-adv-x="973" 
d="M535 -112c52 -16 89.001 -35.6631 111.001 -58.9961s33 -53.666 33 -90.999c0 -28.667 -5.33301 -53.334 -16 -74.001s-25.5 -37.834 -44.5 -51.501s-41.5 -23.667 -67.5 -30s-54.333 -9.5 -85 -9.5c-28 0 -56.667 2.83301 -86 8.5s-59.333 13.167 -90 22.5l50 92
c26.667 -13.333 50.5 -23.833 71.5 -31.5s41.167 -11.5 60.5 -11.5c28 0 48.667 7.66699 62 23s20 32.666 20 51.999c0 24 -12.5 44.167 -37.5 60.5s-62.5 32.5 -112.5 48.5l86 142c-68 6.66699 -126.833 23.167 -176.5 49.5s-90.667 61.5 -123 105.5
s-56.5 96.667 -72.5 158s-24 130.666 -24 207.999c0 90.667 11.5 171 34.5 241s56.333 128.833 100 176.5s97 83.834 160 108.501s134.5 37 214.5 37c40.667 0 82 -4.16699 124 -12.5s84.667 -18.833 128 -31.5l-43 -140c-34.667 11.333 -66.834 20.333 -96.501 27
s-60.834 10 -93.501 10c-113.333 0 -200.666 -32.833 -261.999 -98.5s-92 -164.834 -92 -297.501c0 -62 4.5 -117.5 13.5 -166.5s25 -90.667 48 -125s54.333 -60.5 94 -78.5s90.167 -27 151.5 -27c40 0 83.167 5.16699 129.5 15.5s95.5 23.166 147.5 38.499l43 -140
c-44.667 -15.333 -92 -28.333 -142 -39s-99 -17.667 -147 -21z" />
    <glyph glyph-name="egrave" unicode="&#xe8;" horiz-adv-x="1102" 
d="M494 1181l-35.499 62.001l-40.5 73.5l-38.5 72.5c-12.333 23.333 -21.833 43.666 -28.5 60.999c-10.667 26 -16.667 52 -18 78s2.5 49.167 11.5 69.5s23.5 37 43.5 50s46.333 19.5 79 19.5c18.667 0 37.167 -3.33301 55.5 -10s40.166 -19 65.499 -37l-51 -177l79 -262
h-122zM946.001 58.001c-74 -29.333 -143.501 -50.335 -208.501 -63.002s-123.167 -19 -174.5 -19c-78.667 0 -147.334 12.5 -206.001 37.5s-107.5 60.167 -146.5 105.5s-68.333 99.5 -88 162.5s-29.5 132.5 -29.5 208.5c0 46.667 3.33301 93.334 10 140.001
s17.334 91.167 32.001 133.5s33.834 81.833 57.501 118.5s52.5 68.334 86.5 95.001s73.667 47.667 119 63s97 23 155 23c148.667 0 260.667 -46.5 336 -139.5s113 -226.167 113 -399.5v-55h-732c0 -56 6 -105.5 18 -148.5s30.5 -79.333 55.5 -109s56.667 -52.167 95 -67.5
s83.833 -23 136.5 -23c29.333 0 58.5 2.16699 87.5 6.5s57.167 10 84.5 17s53.5 14.833 78.5 23.5l70.5 25zM829 606.999c-5.33301 108 -31.167 186.833 -77.5 236.5s-112.5 74.5 -198.5 74.5s-151.5 -24.833 -196.5 -74.5s-72.167 -128.5 -81.5 -236.5h554z" />
    <glyph glyph-name="eacute" unicode="&#xe9;" horiz-adv-x="1102" 
d="M519 1620c25.333 18 47.167 30.332 65.5 36.999s36.833 10 55.5 10c32.667 0 59 -6.5 79 -19.5s34.5 -29.667 43.5 -50s12.833 -43.5 11.5 -69.5s-7.33301 -52 -18 -78c-7.33301 -17.333 -17 -37.666 -29 -60.999l-38 -72.5l-40.5 -73.5l-35.5 -62h-122l79 262z
M946.001 57.999c-74 -29.333 -143.501 -50.335 -208.501 -63.002s-123.167 -19 -174.5 -19c-78.667 0 -147.334 12.5 -206.001 37.5s-107.5 60.167 -146.5 105.5s-68.333 99.5 -88 162.5s-29.5 132.5 -29.5 208.5c0 46.667 3.33301 93.334 10 140.001
s17.334 91.167 32.001 133.5s33.834 81.833 57.501 118.5s52.5 68.334 86.5 95.001s73.667 47.667 119 63s97 23 155 23c148.667 0 260.667 -46.5 336 -139.5s113 -226.167 113 -399.5v-55h-732c0 -56 6 -105.5 18 -148.5s30.5 -79.333 55.5 -109s56.667 -52.167 95 -67.5
s83.833 -23 136.5 -23c29.333 0 58.5 2.16699 87.5 6.5s57.167 10 84.5 17s53.5 14.833 78.5 23.5l70.5 25zM829 606.997c-5.33301 108 -31.167 186.833 -77.5 236.5s-112.5 74.5 -198.5 74.5s-151.5 -24.833 -196.5 -74.5s-72.167 -128.5 -81.5 -236.5h554z" />
    <glyph glyph-name="ecircumflex" unicode="&#xea;" horiz-adv-x="1102" 
d="M554 1522l313 -254l-71 -87l-242 141l-246 -141l-71 87zM946 58c-74 -29.333 -143.501 -50.335 -208.501 -63.002s-123.167 -19 -174.5 -19c-78.667 0 -147.334 12.5 -206.001 37.5s-107.5 60.167 -146.5 105.5s-68.333 99.5 -88 162.5s-29.5 132.5 -29.5 208.5
c0 46.667 3.33301 93.334 10 140.001s17.334 91.167 32.001 133.5s33.834 81.833 57.501 118.5s52.5 68.334 86.5 95.001s73.667 47.667 119 63s97 23 155 23c148.667 0 260.667 -46.5 336 -139.5s113 -226.167 113 -399.5v-55h-732c0 -56 6 -105.5 18 -148.5
s30.5 -79.333 55.5 -109s56.667 -52.167 95 -67.5s83.833 -23 136.5 -23c29.333 0 58.5 2.16699 87.5 6.5s57.167 10 84.5 17s53.5 14.833 78.5 23.5l70.5 25zM828.999 606.998c-5.33301 108 -31.167 186.833 -77.5 236.5s-112.5 74.5 -198.5 74.5
s-151.5 -24.833 -196.5 -74.5s-72.167 -128.5 -81.5 -236.5h554z" />
    <glyph glyph-name="edieresis" unicode="&#xeb;" horiz-adv-x="1102" 
d="M334 1418c16 0 31.167 -3.16699 45.5 -9.5s27 -15 38 -26s19.667 -23.667 26 -38s9.5 -29.5 9.5 -45.5c0 -17.333 -3.16699 -33.333 -9.5 -48s-14.833 -27.334 -25.5 -38.001s-23.167 -19.167 -37.5 -25.5s-29.833 -9.5 -46.5 -9.5c-17.333 0 -33.333 3.16699 -48 9.5
s-27.667 14.833 -39 25.5s-20.166 23.334 -26.499 38.001s-9.5 30.667 -9.5 48c0 16.667 3.16699 32.167 9.5 46.5s15.166 26.833 26.499 37.5s24.333 19.167 39 25.5s30.667 9.5 48 9.5zM776 1418c16.667 0 32.335 -3.16797 47.002 -9.50098s27.5 -14.833 38.5 -25.5
s19.667 -23.167 26 -37.5s9.5 -29.833 9.5 -46.5c0 -18 -3.33301 -34.5 -10 -49.5s-15.5 -27.667 -26.5 -38s-23.833 -18.5 -38.5 -24.5s-30 -9 -46 -9s-31.333 3.16699 -46 9.5s-27.5 15 -38.5 26s-19.833 23.833 -26.5 38.5s-10 30.334 -10 47.001s3.5 32.167 10.5 46.5
s16.167 26.833 27.5 37.5s24.166 19.167 38.499 25.5s29.166 9.5 44.499 9.5zM946.001 57.999c-74 -29.333 -143.501 -50.335 -208.501 -63.002s-123.167 -19 -174.5 -19c-78.667 0 -147.334 12.5 -206.001 37.5s-107.5 60.167 -146.5 105.5s-68.333 99.5 -88 162.5
s-29.5 132.5 -29.5 208.5c0 46.667 3.33301 93.334 10 140.001s17.334 91.167 32.001 133.5s33.834 81.833 57.501 118.5s52.5 68.334 86.5 95.001s73.667 47.667 119 63s97 23 155 23c148.667 0 260.667 -46.5 336 -139.5s113 -226.167 113 -399.5v-55h-732
c0 -56 6 -105.5 18 -148.5s30.5 -79.333 55.5 -109s56.667 -52.167 95 -67.5s83.833 -23 136.5 -23c29.333 0 58.5 2.16699 87.5 6.5s57.167 10 84.5 17s53.5 14.833 78.5 23.5l70.5 25zM829 606.997c-5.33301 108 -31.167 186.833 -77.5 236.5s-112.5 74.5 -198.5 74.5
s-151.5 -24.833 -196.5 -74.5s-72.167 -128.5 -81.5 -236.5h554z" />
    <glyph glyph-name="igrave" unicode="&#xec;" horiz-adv-x="534" 
d="M326 1211l-121.999 -0.000976562c-76.667 134.667 -124.334 224.334 -143.001 269.001c-12.667 36 -18.667 70.167 -18 102.5s12.834 59.5 36.501 81.5s56.167 33 97.5 33c37.333 0 77.666 -15.667 120.999 -47l-51 -177zM183.001 1040h172v-1040h-172v1040z" />
    <glyph glyph-name="iacute" unicode="&#xed;" horiz-adv-x="600" 
d="M299 1473l-50.999 177.001c43.333 31.333 83.666 47 120.999 47c41.333 0 73.833 -11 97.5 -33s35.834 -49.167 36.501 -81.5s-5.33301 -66.5 -18 -102.5c-18.667 -44.667 -66.334 -134.334 -143.001 -269.001h-122zM181.001 1040h172v-1040h-172v1040z" />
    <glyph glyph-name="icircumflex" unicode="&#xee;" horiz-adv-x="600" 
d="M-16 1278l317 254l313 -254l-71 -87l-242 141l-246 -141zM212 1040h172v-1040h-172v1040z" />
    <glyph glyph-name="idieresis" unicode="&#xef;" horiz-adv-x="534" 
d="M47 1428c16 0 31.334 -3.16602 46.001 -9.49902s27.334 -14.833 38.001 -25.5s19.167 -23.334 25.5 -38.001s9.5 -30 9.5 -46c0 -17.333 -3.16699 -33.333 -9.5 -48s-14.833 -27.334 -25.5 -38.001s-23.334 -19.167 -38.001 -25.5s-30 -9.5 -46 -9.5
c-17.333 0 -33.333 3.16699 -48 9.5s-27.667 14.833 -39 25.5c-24 22 -36 50.667 -36 86c0 16 3.16699 31.333 9.5 46s15.166 27.334 26.499 38.001s24.333 19.167 39 25.5s30.667 9.5 48 9.5zM489.001 1428c16.667 0 32.334 -3.16797 47.001 -9.50098
s27.667 -14.833 39 -25.5s20 -23.334 26 -38.001s9 -30 9 -46c0 -35.333 -11.667 -64 -35 -86c-11.333 -10.667 -24.333 -19.167 -39 -25.5s-30.334 -9.5 -47.001 -9.5c-16 0 -31.167 3.16699 -45.5 9.5s-27.166 14.833 -38.499 25.5s-20.333 23.334 -27 38.001
s-10 30.667 -10 48c0 16 3.33301 31.333 10 46s15.667 27.334 27 38.001s24.166 19.167 38.499 25.5s29.5 9.5 45.5 9.5zM353.001 1040v-1040h-172v1040h172z" />
    <glyph glyph-name="eth" unicode="&#xf0;" horiz-adv-x="1130" 
d="M769 1405l-61.002 -50.001c107.333 -69.333 189.333 -174 246 -314c52 -128.667 80.667 -287.667 86 -477c2.66699 -89.333 -5 -169.666 -23 -240.999s-46 -133 -84 -185s-88.167 -92 -150.5 -120s-135.166 -42 -218.499 -42c-79.333 0 -150.166 14 -212.499 42
s-112 65.833 -149 113.5s-65 100.834 -84 159.501s-28.5 121 -28.5 187c0 150.667 37.667 268.334 113 353.001c72 79.333 172.667 119 302 119c108 0 212.667 -34.333 314 -103c-34 195.333 -115.333 328.666 -244 399.999l-291 -237v151l164 134
c-70 16 -149 21.667 -237 17v148c146 9.33301 273.333 -6.33398 382 -47.001l176 143v-151zM563.998 132.999c42.667 0 80.833 6.66895 114.5 20.002s61.5 31.666 83.5 54.999s40.167 51.666 54.5 84.999s24.5 68.833 30.5 106.5s9 78.5 9 122.5
c0 55.333 -4.66699 103.333 -14 144c-44 36.667 -93.5 67 -148.5 91s-105.167 36 -150.5 36c-82 0 -146.667 -23.667 -194 -71c-50 -52 -75 -135 -75 -249c0 -104.667 24.833 -187.5 74.5 -248.5s121.5 -91.5 215.5 -91.5z" />
    <glyph glyph-name="ntilde" unicode="&#xf1;" horiz-adv-x="1147" 
d="M810 1408h100.002c-10 -63.333 -29.333 -112 -58 -146c-35.333 -40.667 -82.333 -61 -141 -61c-26.667 0 -70 11.333 -130 34s-102.667 34 -128 34c-20.667 0 -38.334 -8.33301 -53.001 -25s-22 -33.667 -22 -51h-103c8 53.333 27.333 99 58 137
c35.333 45.333 78.333 68 129 68c32 0 76.667 -11.667 134 -35s98.666 -35 123.999 -35c45.333 0 75.333 26.667 90 80zM135.002 1022l166.002 36.998c12.667 -40 21.667 -78.667 27 -116c2.66699 -18 6 -53.667 10 -107h21c36.667 67.333 82 121 136 161
c59.333 44 122 66 188 66c99.333 0 175 -24 227 -72c44.667 -40.667 75.667 -103 93 -187c11.333 -57.333 17 -142.666 17 -255.999v-548h-172v596c0 99.333 -9.66699 170.333 -29 213c-28.667 63.333 -86.334 95 -173.001 95c-61.333 0 -121.333 -29.333 -180 -88
c-39.333 -39.333 -81.333 -97 -126 -173v-643h-172v640c0 90 -2.33301 167.667 -7 233c-2.66699 40.667 -11.334 90.334 -26.001 149.001z" />
    <glyph glyph-name="ograve" unicode="&#xf2;" horiz-adv-x="1113" 
d="M496 1211l-35.499 62.001l-40.5 73.5l-38.5 72.5c-12.333 23.333 -21.833 43.666 -28.5 60.999c-10.667 26 -16.667 52 -18 78s2.5 49.167 11.5 69.5s23.5 37 43.5 50s46.333 19.5 79 19.5c18.667 0 37.167 -3.33301 55.5 -10s40.166 -19 65.499 -37l-51 -177l79 -262
h-122zM555.001 1063c32.667 0 66.666 -2.5 101.999 -7.5s70 -14.5 104 -28.5c34 -14.667 66.167 -34.5 96.5 -59.5s57.166 -57.5 80.499 -97.5c23.333 -40.667 41.666 -89.5 54.999 -146.5s20 -124.833 20 -203.5s-6.66699 -146.5 -20 -203.5s-31.666 -105.5 -54.999 -145.5
c-23.333 -40.667 -50.166 -73.667 -80.499 -99s-62.5 -45 -96.5 -59c-34 -14.667 -68.667 -24.5 -104 -29.5s-69.333 -7.5 -102 -7.5c-32 0 -65.5 2.5 -100.5 7.5s-69.5 14.833 -103.5 29.5c-34 14 -66 33.667 -96 59s-56.667 58.333 -80 99
c-23.333 40 -41.666 88.5 -54.999 145.5s-20 124.833 -20 203.5s6.66699 146.5 20 203.5s31.666 105.833 54.999 146.5c23.333 40 50 72.5 80 97.5s62 44.833 96 59.5c34 14 68.333 23.5 103 28.5s68.334 7.5 101.001 7.5zM555 922.001c-38 0 -73.833 -6 -107.5 -18
s-63.167 -33 -88.5 -63c-26 -30.667 -46.667 -71.667 -62 -123s-23 -117.333 -23 -198c0 -80 7.66699 -145.833 23 -197.5s36 -92.5 62 -122.5c25.333 -30.667 54.833 -51.834 88.5 -63.501s69.5 -17.5 107.5 -17.5c38.667 0 75.167 5.83301 109.5 17.5
s64.5 32.834 90.5 63.501c26 30 46.5 70.833 61.5 122.5s22.5 117.5 22.5 197.5c0 80.667 -7.5 146.667 -22.5 198s-35.5 92.333 -61.5 123c-26 30 -56.167 51 -90.5 63s-70.833 18 -109.5 18z" />
    <glyph glyph-name="oacute" unicode="&#xf3;" horiz-adv-x="1113" 
d="M517 1650c25.333 18 47.167 30.332 65.5 36.999s36.833 10 55.5 10c32.667 0 59 -6.5 79 -19.5s34.5 -29.667 43.5 -50s12.833 -43.5 11.5 -69.5s-7.33301 -52 -18 -78c-7.33301 -17.333 -17 -37.666 -29 -60.999l-38 -72.5l-40.5 -73.5l-35.5 -62h-122l79 262z
M555.001 1063c32.667 0 66.666 -2.5 101.999 -7.5s70 -14.5 104 -28.5c34 -14.667 66.167 -34.5 96.5 -59.5s57.166 -57.5 80.499 -97.5c23.333 -40.667 41.666 -89.5 54.999 -146.5s20 -124.833 20 -203.5s-6.66699 -146.5 -20 -203.5s-31.666 -105.5 -54.999 -145.5
c-23.333 -40.667 -50.166 -73.667 -80.499 -99s-62.5 -45 -96.5 -59c-34 -14.667 -68.667 -24.5 -104 -29.5s-69.333 -7.5 -102 -7.5c-32 0 -65.5 2.5 -100.5 7.5s-69.5 14.833 -103.5 29.5c-34 14 -66 33.667 -96 59s-56.667 58.333 -80 99
c-23.333 40 -41.666 88.5 -54.999 145.5s-20 124.833 -20 203.5s6.66699 146.5 20 203.5s31.666 105.833 54.999 146.5c23.333 40 50 72.5 80 97.5s62 44.833 96 59.5c34 14 68.333 23.5 103 28.5s68.334 7.5 101.001 7.5zM555 921.999c-38 0 -73.833 -6 -107.5 -18
s-63.167 -33 -88.5 -63c-26 -30.667 -46.667 -71.667 -62 -123s-23 -117.333 -23 -198c0 -80 7.66699 -145.833 23 -197.5s36 -92.5 62 -122.5c25.333 -30.667 54.833 -51.834 88.5 -63.501s69.5 -17.5 107.5 -17.5c38.667 0 75.167 5.83301 109.5 17.5
s64.5 32.834 90.5 63.501c26 30 46.5 70.833 61.5 122.5s22.5 117.5 22.5 197.5c0 80.667 -7.5 146.667 -22.5 198s-35.5 92.333 -61.5 123c-26 30 -56.167 51 -90.5 63s-70.833 18 -109.5 18z" />
    <glyph glyph-name="ocircumflex" unicode="&#xf4;" horiz-adv-x="1113" 
d="M561 1532l313 -254l-71 -87l-242 141l-246 -141l-71 87zM555 1063c32.667 0 66.666 -2.5 101.999 -7.5s70 -14.5 104 -28.5c34 -14.667 66.167 -34.5 96.5 -59.5s57.166 -57.5 80.499 -97.5c23.333 -40.667 41.666 -89.5 54.999 -146.5s20 -124.833 20 -203.5
s-6.66699 -146.5 -20 -203.5s-31.666 -105.5 -54.999 -145.5c-23.333 -40.667 -50.166 -73.667 -80.499 -99s-62.5 -45 -96.5 -59c-34 -14.667 -68.667 -24.5 -104 -29.5s-69.333 -7.5 -102 -7.5c-32 0 -65.5 2.5 -100.5 7.5s-69.5 14.833 -103.5 29.5
c-34 14 -66 33.667 -96 59s-56.667 58.333 -80 99c-23.333 40 -41.666 88.5 -54.999 145.5s-20 124.833 -20 203.5s6.66699 146.5 20 203.5s31.666 105.833 54.999 146.5c23.333 40 50 72.5 80 97.5s62 44.833 96 59.5c34 14 68.333 23.5 103 28.5s68.334 7.5 101.001 7.5z
M554.999 922c-38 0 -73.833 -6 -107.5 -18s-63.167 -33 -88.5 -63c-26 -30.667 -46.667 -71.667 -62 -123s-23 -117.333 -23 -198c0 -80 7.66699 -145.833 23 -197.5s36 -92.5 62 -122.5c25.333 -30.667 54.833 -51.834 88.5 -63.501s69.5 -17.5 107.5 -17.5
c38.667 0 75.167 5.83301 109.5 17.5s64.5 32.834 90.5 63.501c26 30 46.5 70.833 61.5 122.5s22.5 117.5 22.5 197.5c0 80.667 -7.5 146.667 -22.5 198s-35.5 92.333 -61.5 123c-26 30 -56.167 51 -90.5 63s-70.833 18 -109.5 18z" />
    <glyph glyph-name="otilde" unicode="&#xf5;" horiz-adv-x="1113" 
d="M874 1408c-4.66699 -28 -11.6689 -54.667 -21.002 -80s-21.666 -47.333 -36.999 -66c-16 -18.667 -35.5 -33.5 -58.5 -44.5s-50.5 -16.5 -82.5 -16.5c-19.333 0 -40.166 3.5 -62.499 10.5s-44.833 14.833 -67.5 23.5s-45 16.5 -67 23.5s-42.333 10.5 -61 10.5
c-10 0 -19.667 -2.33301 -29 -7s-17.333 -10.667 -24 -18s-12 -15.5 -16 -24.5s-6 -17.833 -6 -26.5h-103c3.33301 22.667 9.83301 46.167 19.5 70.5s22.5 46.5 38.5 66.5c15.333 20 33.666 36.333 54.999 49s46 19 74 19c24.667 0 47.834 -3.66699 69.501 -11
s43.167 -15.333 64.5 -24s42 -16.667 62 -24s40.667 -11 62 -11c25.333 0 45 7.5 59 22.5s24.333 34.167 31 57.5h100zM554.998 1063c32.667 0 66.666 -2.5 101.999 -7.5s70 -14.5 104 -28.5c34 -14.667 66.167 -34.5 96.5 -59.5s57.166 -57.5 80.499 -97.5
c23.333 -40.667 41.666 -89.5 54.999 -146.5s20 -124.833 20 -203.5s-6.66699 -146.5 -20 -203.5s-31.666 -105.5 -54.999 -145.5c-23.333 -40.667 -50.166 -73.667 -80.499 -99s-62.5 -45 -96.5 -59c-34 -14.667 -68.667 -24.5 -104 -29.5s-69.333 -7.5 -102 -7.5
c-32 0 -65.5 2.5 -100.5 7.5s-69.5 14.833 -103.5 29.5c-34 14 -66 33.667 -96 59s-56.667 58.333 -80 99c-23.333 40 -41.666 88.5 -54.999 145.5s-20 124.833 -20 203.5s6.66699 146.5 20 203.5s31.666 105.833 54.999 146.5c23.333 40 50 72.5 80 97.5s62 44.833 96 59.5
c34 14 68.333 23.5 103 28.5s68.334 7.5 101.001 7.5zM554.997 922c-38 0 -73.833 -6 -107.5 -18s-63.167 -33 -88.5 -63c-26 -30.667 -46.667 -71.667 -62 -123s-23 -117.333 -23 -198c0 -80 7.66699 -145.833 23 -197.5s36 -92.5 62 -122.5
c25.333 -30.667 54.833 -51.834 88.5 -63.501s69.5 -17.5 107.5 -17.5c38.667 0 75.167 5.83301 109.5 17.5s64.5 32.834 90.5 63.501c26 30 46.5 70.833 61.5 122.5s22.5 117.5 22.5 197.5c0 80.667 -7.5 146.667 -22.5 198s-35.5 92.333 -61.5 123
c-26 30 -56.167 51 -90.5 63s-70.833 18 -109.5 18z" />
    <glyph glyph-name="odieresis" unicode="&#xf6;" horiz-adv-x="1113" 
d="M341 1428c16 0 31.334 -3.16602 46.001 -9.49902s27.334 -14.833 38.001 -25.5s19.167 -23.334 25.5 -38.001s9.5 -30 9.5 -46c0 -17.333 -3.16699 -33.333 -9.5 -48s-14.833 -27.334 -25.5 -38.001s-23.334 -19.167 -38.001 -25.5s-30 -9.5 -46 -9.5
c-17.333 0 -33.333 3.16699 -48 9.5s-27.667 14.833 -39 25.5c-24 22 -36 50.667 -36 86c0 16 3.16699 31.333 9.5 46s15.166 27.334 26.499 38.001s24.333 19.167 39 25.5s30.667 9.5 48 9.5zM783.001 1428c16.667 0 32.334 -3.16797 47.001 -9.50098
s27.667 -14.833 39 -25.5s20 -23.334 26 -38.001s9 -30 9 -46c0 -35.333 -11.667 -64 -35 -86c-11.333 -10.667 -24.333 -19.167 -39 -25.5s-30.334 -9.5 -47.001 -9.5c-16 0 -31.167 3.16699 -45.5 9.5s-27.166 14.833 -38.499 25.5s-20.333 23.334 -27 38.001
s-10 30.667 -10 48c0 16 3.33301 31.333 10 46s15.667 27.334 27 38.001s24.166 19.167 38.499 25.5s29.5 9.5 45.5 9.5zM555.001 1063c32.667 0 66.666 -2.5 101.999 -7.5s70 -14.5 104 -28.5c34 -14.667 66.167 -34.5 96.5 -59.5s57.166 -57.5 80.499 -97.5
c23.333 -40.667 41.666 -89.5 54.999 -146.5s20 -124.833 20 -203.5s-6.66699 -146.5 -20 -203.5s-31.666 -105.5 -54.999 -145.5c-23.333 -40.667 -50.166 -73.667 -80.499 -99s-62.5 -45 -96.5 -59c-34 -14.667 -68.667 -24.5 -104 -29.5s-69.333 -7.5 -102 -7.5
c-32 0 -65.5 2.5 -100.5 7.5s-69.5 14.833 -103.5 29.5c-34 14 -66 33.667 -96 59s-56.667 58.333 -80 99c-23.333 40 -41.666 88.5 -54.999 145.5s-20 124.833 -20 203.5s6.66699 146.5 20 203.5s31.666 105.833 54.999 146.5c23.333 40 50 72.5 80 97.5s62 44.833 96 59.5
c34 14 68.333 23.5 103 28.5s68.334 7.5 101.001 7.5zM555 922c-38 0 -73.833 -6 -107.5 -18s-63.167 -33 -88.5 -63c-26 -30.667 -46.667 -71.667 -62 -123s-23 -117.333 -23 -198c0 -80 7.66699 -145.833 23 -197.5s36 -92.5 62 -122.5
c25.333 -30.667 54.833 -51.834 88.5 -63.501s69.5 -17.5 107.5 -17.5c38.667 0 75.167 5.83301 109.5 17.5s64.5 32.834 90.5 63.501c26 30 46.5 70.833 61.5 122.5s22.5 117.5 22.5 197.5c0 80.667 -7.5 146.667 -22.5 198s-35.5 92.333 -61.5 123
c-26 30 -56.167 51 -90.5 63s-70.833 18 -109.5 18z" />
    <glyph glyph-name="divide" unicode="&#xf7;" horiz-adv-x="1130" 
d="M565 769c-14.667 0 -28.334 2.83301 -41.001 8.5s-23.834 13.334 -33.501 23.001s-17.334 21 -23.001 34s-8.5 26.833 -8.5 41.5s2.83301 28.334 8.5 41.001s13.334 23.834 23.001 33.501s20.834 17.334 33.501 23.001s26.334 8.5 41.001 8.5s28.5 -2.83301 41.5 -8.5
s24.333 -13.334 34 -23.001s17.334 -20.834 23.001 -33.501s8.5 -26.334 8.5 -41.001s-2.83301 -28.5 -8.5 -41.5s-13.334 -24.333 -23.001 -34s-21 -17.334 -34 -23.001s-26.833 -8.5 -41.5 -8.5zM151 471v137h828v-137h-828zM565 310c14.667 0 28.5 -2.83301 41.5 -8.5
s24.333 -13.334 34 -23.001s17.334 -21 23.001 -34s8.5 -26.833 8.5 -41.5s-2.83301 -28.334 -8.5 -41.001s-13.334 -23.834 -23.001 -33.501s-21 -17.334 -34 -23.001s-26.833 -8.5 -41.5 -8.5s-28.334 2.83301 -41.001 8.5s-23.834 13.334 -33.501 23.001
s-17.334 20.834 -23.001 33.501s-8.5 26.334 -8.5 41.001s2.83301 28.5 8.5 41.5s13.334 24.333 23.001 34s20.834 17.334 33.501 23.001s26.334 8.5 41.001 8.5z" />
    <glyph glyph-name="oslash" unicode="&#xf8;" horiz-adv-x="1113" 
d="M856 968c32 -26 59.3291 -58.667 81.9961 -98c23.333 -40.667 41.666 -89.5 54.999 -146.5s20 -124.833 20 -203.5s-6.66699 -146.5 -20 -203.5s-31.666 -105.5 -54.999 -145.5c-23.333 -40.667 -50.166 -73.667 -80.499 -99s-62.5 -45 -96.5 -59
c-34 -14.667 -68.667 -24.5 -104 -29.5s-69.333 -7.5 -102 -7.5c-28 0 -56.833 1.83301 -86.5 5.5s-59.5 10.5 -89.5 20.5l-99 -201h-159l134 271c-15.333 13.333 -29.666 28 -42.999 44s-25.666 34.333 -36.999 55c-23.333 40 -41.666 88.5 -54.999 145.5
s-20 124.833 -20 203.5s6.66699 146.5 20 203.5s31.666 105.833 54.999 146.5c23.333 40 50 72.5 80 97.5s62 44.833 96 59.5c34 14 68.333 23.5 103 28.5s68.334 7.5 101.001 7.5c28 0 57 -1.83301 87 -5.5s60 -10.167 90 -19.5l99 201h159zM664.996 904
c-17.333 6.66699 -35.168 11.335 -53.501 14.002s-37.166 4 -56.499 4c-38 0 -73.833 -6 -107.5 -18s-63.167 -33 -88.5 -63c-26 -30.667 -46.667 -71.667 -62 -123s-23 -117.333 -23 -198c0 -66.667 5.33301 -123.334 16 -170.001s25.667 -85.334 45 -116.001z
M445.994 137.001c17.333 -6.66699 35 -11.334 53 -14.001s36.667 -4 56 -4c38.667 0 75.167 5.83301 109.5 17.5s64.5 32.834 90.5 63.501c26 30 46.5 70.833 61.5 122.5s22.5 117.5 22.5 197.5c0 68 -5.33301 125.333 -16 172s-25.667 85.667 -45 117z" />
    <glyph glyph-name="ugrave" unicode="&#xf9;" horiz-adv-x="1158" 
d="M631 1211l-121.999 -0.000976562c-76.667 134.667 -124.334 224.334 -143.001 269.001c-12.667 36 -18.667 70.167 -18 102.5s12.834 59.5 36.501 81.5s56.167 33 97.5 33c37.333 0 77.666 -15.667 120.999 -47l-51 -177zM1028 17.999l-166.002 -36.9971
c-12.667 40 -21.667 78.667 -27 116c-2.66699 17.333 -6 52.666 -10 105.999h-21c-36.667 -67.333 -82 -121 -136 -161c-59.333 -44 -122 -66 -188 -66c-99.333 0 -175 24 -227 72c-44.667 40.667 -75.667 103 -93 187c-11.333 57.333 -17 142.666 -17 255.999v549h172v-597
c0 -99.333 9.66699 -170.333 29 -213c28.667 -63.333 86.334 -95 173.001 -95c61.333 0 121.333 29.333 180 88c39.333 39.333 81.333 97 126 173v644h172v-642c0 -88.667 2.33301 -165.667 7 -231c2.66699 -40.667 11.334 -90.334 26.001 -149.001z" />
    <glyph glyph-name="uacute" unicode="&#xfa;" horiz-adv-x="1158" 
d="M572 1473l-50.999 177.001c43.333 31.333 83.666 47 120.999 47c41.333 0 73.833 -11 97.5 -33s35.834 -49.167 36.501 -81.5s-5.33301 -66.5 -18 -102.5c-18.667 -44.667 -66.334 -134.334 -143.001 -269.001h-122zM1028 18.001l-166.002 -36.9971
c-12.667 40 -21.667 78.667 -27 116c-2.66699 17.333 -6 52.666 -10 105.999h-21c-36.667 -67.333 -82 -121 -136 -161c-59.333 -44 -122 -66 -188 -66c-99.333 0 -175 24 -227 72c-44.667 40.667 -75.667 103 -93 187c-11.333 57.333 -17 142.666 -17 255.999v549h172v-597
c0 -99.333 9.66699 -170.333 29 -213c28.667 -63.333 86.334 -95 173.001 -95c61.333 0 121.333 29.333 180 88c39.333 39.333 81.333 97 126 173v644h172v-642c0 -88.667 2.33301 -165.667 7 -231c2.66699 -40.667 11.334 -90.334 26.001 -149.001z" />
    <glyph glyph-name="ucircumflex" unicode="&#xfb;" horiz-adv-x="1158" 
d="M254 1278l317 254l313 -254l-71 -87l-242 141l-246 -141zM1028 18l-166.002 -36.9971c-12.667 40 -21.667 78.667 -27 116c-2.66699 17.333 -6 52.666 -10 105.999h-21c-36.667 -67.333 -82 -121 -136 -161c-59.333 -44 -122 -66 -188 -66c-99.333 0 -175 24 -227 72
c-44.667 40.667 -75.667 103 -93 187c-11.333 57.333 -17 142.666 -17 255.999v549h172v-597c0 -99.333 9.66699 -170.333 29 -213c28.667 -63.333 86.334 -95 173.001 -95c61.333 0 121.333 29.333 180 88c39.333 39.333 81.333 97 126 173v644h172v-642
c0 -88.667 2.33301 -165.667 7 -231c2.66699 -40.667 11.334 -90.334 26.001 -149.001z" />
    <glyph glyph-name="udieresis" unicode="&#xfc;" horiz-adv-x="1158" 
d="M345 1428c16 0 31.334 -3.16602 46.001 -9.49902s27.334 -14.833 38.001 -25.5s19.167 -23.334 25.5 -38.001s9.5 -30 9.5 -46c0 -17.333 -3.16699 -33.333 -9.5 -48s-14.833 -27.334 -25.5 -38.001s-23.334 -19.167 -38.001 -25.5s-30 -9.5 -46 -9.5
c-17.333 0 -33.333 3.16699 -48 9.5s-27.667 14.833 -39 25.5c-24 22 -36 50.667 -36 86c0 16 3.16699 31.333 9.5 46s15.166 27.334 26.499 38.001s24.333 19.167 39 25.5s30.667 9.5 48 9.5zM787.001 1428c16.667 0 32.334 -3.16797 47.001 -9.50098
s27.667 -14.833 39 -25.5s20 -23.334 26 -38.001s9 -30 9 -46c0 -35.333 -11.667 -64 -35 -86c-11.333 -10.667 -24.333 -19.167 -39 -25.5s-30.334 -9.5 -47.001 -9.5c-16 0 -31.167 3.16699 -45.5 9.5s-27.166 14.833 -38.499 25.5s-20.333 23.334 -27 38.001
s-10 30.667 -10 48c0 16 3.33301 31.333 10 46s15.667 27.334 27 38.001s24.166 19.167 38.499 25.5s29.5 9.5 45.5 9.5zM862.001 -19c-6.66699 20.667 -12.1699 40.8359 -16.5029 60.5029s-7.83301 38.167 -10.5 55.5s-4.66699 34.5 -6 51.5s-2.66602 35.167 -3.99902 54.5
h-21c-17.333 -32 -37.333 -61.667 -60 -89s-48 -51.333 -76 -72s-57.667 -36.834 -89 -48.501s-64.333 -17.5 -99 -17.5c-52 0 -96.5 6.16699 -133.5 18.5s-68.167 30.166 -93.5 53.499s-45.166 50.833 -59.499 82.5s-25.5 66.5 -33.5 104.5c-7.33301 38 -12 78.667 -14 122
s-3 88 -3 134v549h172v-597c0 -40 1.5 -78.333 4.5 -115s11.167 -69.334 24.5 -98.001s33.5 -51.667 60.5 -69s64.5 -26 112.5 -26c34.667 0 67 8.33301 97 25s57.667 37.667 83 63c26 26 49.333 54.333 70 85s39.334 60 56.001 88v644h172v-642c0 -54 0.666992 -99 2 -135
s3 -68 5 -96s5.16699 -53.167 9.5 -75.5s9.83301 -46.833 16.5 -73.5z" />
    <glyph glyph-name="yacute" unicode="&#xfd;" horiz-adv-x="1186" 
d="M558 1620c25.333 18 47.167 30.332 65.5 36.999s36.833 10 55.5 10c32.667 0 59 -6.5 79 -19.5s34.5 -29.667 43.5 -50s12.833 -43.5 11.5 -69.5s-7.33301 -52 -18 -78c-7.33301 -17.333 -17 -37.666 -29 -60.999l-38 -72.5l-40.5 -73.5l-35.5 -62h-122l79 262z
M1010 1040l-0.000976562 -1062.99c0 -66 -10.833 -123 -32.5 -171s-51.667 -87.667 -90 -119s-83.833 -54.5 -136.5 -69.5s-110 -22.5 -172 -22.5c-56 0 -112.333 4.83301 -169 14.5s-110.667 23.167 -162 40.5c8.66699 23.333 17.667 46 27 68l28 66
c16 -5.33301 35.167 -11 57.5 -17s46 -11.5 71 -16.5s50.667 -9 77 -12s51.833 -4.5 76.5 -4.5c38.667 0 73.667 5.16699 105 15.5s58 25.833 80 46.5s38.833 46.167 50.5 76.5s17.5 65.166 17.5 104.499v226h-19c-17.333 -31.333 -37.333 -60.833 -60 -88.5
s-47.667 -51.834 -75 -72.501s-56.833 -36.834 -88.5 -48.501s-65.167 -17.5 -100.5 -17.5c-48.667 0 -91 5.5 -127 16.5s-66.833 27.333 -92.5 49s-46.667 48.667 -63 81s-28.833 69.833 -37.5 112.5c-7.33301 38 -12 78.667 -14 122s-3 88 -3 134v549h172v-597
c0 -43.333 2 -83.833 6 -121.5s12.833 -70.334 26.5 -98.001s33.834 -49.334 60.501 -65.001s63 -23.5 109 -23.5c34 0 66 8.16699 96 24.5s57.667 37.166 83 62.499s48.5 53.333 69.5 84s40.167 60.667 57.5 90v644h172z" />
    <glyph glyph-name="thorn" unicode="&#xfe;" horiz-adv-x="1074" 
d="M313 838l15.0029 -0.000976562c34.667 72 73 125.333 115 160c51.333 42.667 114 64 188 64c52 0 98.333 -9.5 139 -28.5s74.167 -44.667 100.5 -77s48.166 -71.5 65.499 -117.5s29.666 -94 36.999 -144s11 -104 11 -162c0 -65.333 -5.16699 -125.666 -15.5 -180.999
s-27 -106.5 -50 -153.5s-51.833 -86.833 -86.5 -119.5s-77.5 -58.167 -128.5 -76.5s-108.167 -27.5 -171.5 -27.5c-62.667 0 -136.334 8.33301 -221.001 25v-401h-171v1841h170v-605zM311.003 616.999l-0.000976562 -466c75.333 -20 144.666 -30 207.999 -30
c54 0 100.5 9.83301 139.5 29.5s69.5 47.334 91.5 83.001s38 75.5 48 119.5s15 93.667 15 149c0 37.333 -0.833008 70.166 -2.5 98.499s-4.66699 59 -9 92s-11.166 61.167 -20.499 84.5s-21 45 -35 65s-32.167 35.167 -54.5 45.5s-48.166 15.5 -77.499 15.5
c-70.667 0 -132 -28.333 -184 -85c-37.333 -41.333 -77 -108.333 -119 -201z" />
    <glyph glyph-name="ydieresis" unicode="&#xff;" horiz-adv-x="1186" 
d="M373 1418c16 0 31.167 -3.16699 45.5 -9.5s27 -15 38 -26s19.667 -23.667 26 -38s9.5 -29.5 9.5 -45.5c0 -17.333 -3.16699 -33.333 -9.5 -48s-14.833 -27.334 -25.5 -38.001s-23.167 -19.167 -37.5 -25.5s-29.833 -9.5 -46.5 -9.5c-17.333 0 -33.333 3.16699 -48 9.5
s-27.667 14.833 -39 25.5s-20.166 23.334 -26.499 38.001s-9.5 30.667 -9.5 48c0 16.667 3.16699 32.167 9.5 46.5s15.166 26.833 26.499 37.5s24.333 19.167 39 25.5s30.667 9.5 48 9.5zM815 1418c16.667 0 32.335 -3.16797 47.002 -9.50098s27.5 -14.833 38.5 -25.5
s19.667 -23.167 26 -37.5s9.5 -29.833 9.5 -46.5c0 -18 -3.33301 -34.5 -10 -49.5s-15.5 -27.667 -26.5 -38s-23.833 -18.5 -38.5 -24.5s-30 -9 -46 -9s-31.333 3.16699 -46 9.5s-27.5 15 -38.5 26s-19.833 23.833 -26.5 38.5s-10 30.334 -10 47.001s3.5 32.167 10.5 46.5
s16.167 26.833 27.5 37.5s24.166 19.167 38.499 25.5s29.166 9.5 44.499 9.5zM1010 1040l-0.000976562 -1062.99c0 -66 -10.833 -123 -32.5 -171s-51.667 -87.667 -90 -119s-83.833 -54.5 -136.5 -69.5s-110 -22.5 -172 -22.5c-56 0 -112.333 4.83301 -169 14.5
s-110.667 23.167 -162 40.5c8.66699 23.333 17.667 46 27 68l28 66c16 -5.33301 35.167 -11 57.5 -17s46 -11.5 71 -16.5s50.667 -9 77 -12s51.833 -4.5 76.5 -4.5c38.667 0 73.667 5.16699 105 15.5s58 25.833 80 46.5s38.833 46.167 50.5 76.5s17.5 65.166 17.5 104.499
v226h-19c-17.333 -31.333 -37.333 -60.833 -60 -88.5s-47.667 -51.834 -75 -72.501s-56.833 -36.834 -88.5 -48.501s-65.167 -17.5 -100.5 -17.5c-48.667 0 -91 5.5 -127 16.5s-66.833 27.333 -92.5 49s-46.667 48.667 -63 81s-28.833 69.833 -37.5 112.5
c-7.33301 38 -12 78.667 -14 122s-3 88 -3 134v549h172v-597c0 -43.333 2 -83.833 6 -121.5s12.833 -70.334 26.5 -98.001s33.834 -49.334 60.501 -65.001s63 -23.5 109 -23.5c34 0 66 8.16699 96 24.5s57.667 37.166 83 62.499s48.5 53.333 69.5 84s40.167 60.667 57.5 90
v644h172z" />
    <glyph glyph-name="Amacron" unicode="&#x100;" horiz-adv-x="1369" 
d="M427 1719h513v-121h-513v121zM1158 0l-189 489h-569l-189 -489h-191l570 1438h189l570 -1438h-191zM459 643h451l-226 585z" />
    <glyph glyph-name="amacron" unicode="&#x101;" horiz-adv-x="1041" 
d="M267 1359h513v-121h-513v121zM229 856l-44 139.998c112 44.667 229.333 67 352 67c107.333 0 189.333 -18 246 -54c64.667 -41.333 97 -111.666 97 -210.999v-409c0 -54.667 0.666992 -110.667 2 -168c0.666992 -34 4 -69.333 10 -106
c5.33301 -34.667 12.333 -67.667 21 -99l-164 -36c-15.333 44.667 -25 94.667 -29 150l-20 2c-82.667 -104 -188 -156 -316 -156c-93.333 0 -168.333 25.833 -225 77.5s-85 124.5 -85 218.5c0 70 15.5 127.333 46.5 172s74.833 82.334 131.5 113.001
c89.333 48.667 214.333 73 375 73c21.333 0 50 -0.666992 86 -2v152c0 48 -14.667 82.667 -44 104s-75.333 32 -138 32c-91.333 0 -192 -20 -302 -60zM713 291.998l-0.000976562 210.001c-18 1.33301 -44.333 2 -79 2c-58.667 0 -112.667 -5 -162 -15
c-73.333 -14.667 -130.166 -37.834 -170.499 -69.501s-60.5 -77.167 -60.5 -136.5c0 -106.667 58 -160 174 -160c60 0 116 16 168 48c42.667 26.667 86 67 130 121z" />
    <glyph glyph-name="Abreve" unicode="&#x102;" horiz-adv-x="1369" 
d="M893 1887l76.002 -0.000976562c-10.667 -54.667 -21.834 -95.667 -33.501 -123s-29.167 -54.666 -52.5 -81.999c-25.333 -30 -55.333 -53.167 -90 -69.5s-70.334 -24.5 -107.001 -24.5c-72.667 0 -133.5 25.333 -182.5 76s-83.833 125 -104.5 223h76
c20.667 -54 48.167 -93 82.5 -117s77.833 -36 130.5 -36c50 0 91.5 12 124.5 36s59.833 63 80.5 117zM1158 -0.000976562l-189 489h-569l-189 -489h-191l570 1438h189l570 -1438h-191zM459.002 642.999h451l-226 585z" />
    <glyph glyph-name="abreve" unicode="&#x103;" horiz-adv-x="1041" 
d="M711 1517l76.002 -0.000976562c-10.667 -54.667 -21.834 -95.667 -33.501 -123s-29.167 -54.666 -52.5 -81.999c-25.333 -30 -55.333 -53.167 -90 -69.5s-70.334 -24.5 -107.001 -24.5c-72.667 0 -133.5 25.333 -182.5 76s-83.833 125 -104.5 223h76
c20.667 -54 48.167 -93 82.5 -117s77.833 -36 130.5 -36c50 0 91.5 12 124.5 36s59.833 63 80.5 117zM229.002 855.999l-44 139.998c112 44.667 229.333 67 352 67c107.333 0 189.333 -18 246 -54c64.667 -41.333 97 -111.666 97 -210.999v-409
c0 -54.667 0.666992 -110.667 2 -168c0.666992 -34 4 -69.333 10 -106c5.33301 -34.667 12.333 -67.667 21 -99l-164 -36c-15.333 44.667 -25 94.667 -29 150l-20 2c-82.667 -104 -188 -156 -316 -156c-93.333 0 -168.333 25.833 -225 77.5s-85 124.5 -85 218.5
c0 70 15.5 127.333 46.5 172s74.833 82.334 131.5 113.001c89.333 48.667 214.333 73 375 73c21.333 0 50 -0.666992 86 -2v152c0 48 -14.667 82.667 -44 104s-75.333 32 -138 32c-91.333 0 -192 -20 -302 -60zM713.002 291.997l-0.000976562 210.001
c-18 1.33301 -44.333 2 -79 2c-58.667 0 -112.667 -5 -162 -15c-73.333 -14.667 -130.166 -37.834 -170.499 -69.501s-60.5 -77.167 -60.5 -136.5c0 -106.667 58 -160 174 -160c60 0 116 16 168 48c42.667 26.667 86 67 130 121z" />
    <glyph glyph-name="Aogonek" unicode="&#x104;" horiz-adv-x="1369" 
d="M1349 0l-84 -0.000976562c-38.667 -46.667 -66.334 -84.5 -83.001 -113.5s-25 -59.167 -25 -90.5c0 -61.333 23.667 -92 71 -92c24.667 0 58.667 8.33301 102 25l-5 -90c-47.333 -31.333 -97 -47 -149 -47c-43.333 0 -78.666 14.833 -105.999 44.5s-41 70.167 -41 121.5
c0 24 2.5 45.833 7.5 65.5s14.667 40.334 29 62.001s26.833 39 37.5 52s29 33.833 55 62.5l-189 489h-569l-189 -489h-191l570 1438h189zM459 642.999h451l-226 585z" />
    <glyph glyph-name="aogonek" unicode="&#x105;" horiz-adv-x="1041" 
d="M913 16l-68.001 -15.002c-39.333 -47.333 -67.333 -85.333 -84 -114s-25 -59 -25 -91c0 -61.333 23.667 -92 71 -92c24.667 0 58.667 8.33301 102 25l-5 -90c-47.333 -31.333 -97 -47 -149 -47c-43.333 0 -78.666 14.833 -105.999 44.5s-41 70.167 -41 121.5
c0 20 2.5 39.167 7.5 57.5s10 33.5 15 45.5s15 28 30 48s26.5 34.5 34.5 43.5l46 52.5c-11.333 39.333 -18.333 81 -21 125l-20 2c-82.667 -104 -188 -156 -316 -156c-93.333 0 -168.333 25.833 -225 77.5s-85 124.5 -85 218.5c0 70 15.5 127.333 46.5 172
s74.833 82.334 131.5 113.001c89.333 48.667 214.333 73 375 73c21.333 0 50 -0.666992 86 -2v152c0 48 -14.667 82.667 -44 104s-75.333 32 -138 32c-91.333 0 -192 -20 -302 -60l-44 140c112 44.667 229.333 67 352 67c107.333 0 189.333 -18 246 -54
c64.667 -41.333 97 -111.666 97 -210.999v-409c0 -54.667 0.666992 -110.667 2 -168c0.666992 -34 4 -69.333 10 -106c5.33301 -34.667 12.333 -67.667 21 -99zM712.999 291.998l-0.000976562 210.001c-18 1.33301 -44.333 2 -79 2c-58.667 0 -112.667 -5 -162 -15
c-73.333 -14.667 -130.166 -37.834 -170.499 -69.501s-60.5 -77.167 -60.5 -136.5c0 -106.667 58 -160 174 -160c60 0 116 16 168 48c42.667 26.667 86 67 130 121z" />
    <glyph glyph-name="Cacute" unicode="&#x106;" horiz-adv-x="1239" 
d="M695 2017c25.333 18 47.167 30.332 65.5 36.999s36.833 10 55.5 10c32.667 0 59 -6.5 79 -19.5s34.5 -29.667 43.5 -50s12.833 -43.5 11.5 -69.5s-7.33301 -52 -18 -78c-7.33301 -17.333 -17 -37.666 -29 -60.999l-38 -72.5l-40.5 -73.5l-35.5 -62h-122l79 262z
M1157 40.999c-62 -19.333 -127.5 -35.001 -196.5 -47.001s-144.833 -18 -227.5 -18c-204 0 -358 61 -462 183s-156 301.667 -156 539c0 252 52 442 156 570s258 192 462 192c77.333 0 146.833 -6.66699 208.5 -20s121.167 -30.666 178.5 -51.999l-52 -148
c-27.333 10 -54.333 19 -81 27s-53.5 14.667 -80.5 20s-54.833 9.33301 -83.5 12s-58.667 4 -90 4c-74 0 -137.667 -13.167 -191 -39.5s-97.333 -64.666 -132 -114.999s-60.334 -111.666 -77.001 -183.999s-25 -154.5 -25 -246.5c0 -94.667 8.33301 -178.334 25 -251.001
s42.334 -133.834 77.001 -183.501s78.667 -87.167 132 -112.5s117 -38 191 -38c68 0 132.667 5.66699 194 17s122.333 26.333 183 45z" />
    <glyph glyph-name="cacute" unicode="&#x107;" horiz-adv-x="973" 
d="M482 1620c25.333 18 47.167 30.332 65.5 36.999s36.833 10 55.5 10c32.667 0 59 -6.5 79 -19.5s34.5 -29.667 43.5 -50s12.833 -43.5 11.5 -69.5s-7.33301 -52 -18 -78c-7.33301 -17.333 -17 -37.666 -29 -60.999l-38 -72.5l-40.5 -73.5l-35.5 -62h-122l79 262z
M895.001 36.999c-52 -18 -107.499 -32.666 -166.499 -43.999s-114.833 -17 -167.5 -17c-80 0 -149.333 11.667 -208 35s-107.167 57.333 -145.5 102s-66.833 99.5 -85.5 164.5s-28 139.167 -28 222.5c0 90.667 11.5 171 34.5 241s56.333 128.833 100 176.5
s97 83.834 160 108.501s134.5 37 214.5 37c40.667 0 82 -4.16699 124 -12.5s84.667 -18.833 128 -31.5l-43 -140c-34.667 11.333 -66.834 20.333 -96.501 27s-60.834 10 -93.501 10c-113.333 0 -200.666 -32.833 -261.999 -98.5s-92 -164.834 -92 -297.501
c0 -62 4.5 -117.5 13.5 -166.5s25 -90.667 48 -125s54.333 -60.5 94 -78.5s90.167 -27 151.5 -27c40 0 83.167 5.16699 129.5 15.5s95.5 23.166 147.5 38.499z" />
    <glyph glyph-name="Cdotaccent" unicode="&#x10a;" horiz-adv-x="1239" 
d="M730 1815c16.667 0 32.335 -3.16797 47.002 -9.50098s27.5 -14.833 38.5 -25.5s19.667 -23.167 26 -37.5s9.5 -29.833 9.5 -46.5c0 -18 -3.33301 -34.5 -10 -49.5s-15.5 -27.667 -26.5 -38s-23.833 -18.5 -38.5 -24.5s-30 -9 -46 -9s-31.333 3.16699 -46 9.5
s-27.5 15 -38.5 26s-19.833 23.833 -26.5 38.5s-10 30.334 -10 47.001s3.5 32.167 10.5 46.5s16.167 26.833 27.5 37.5s24.166 19.167 38.499 25.5s29.166 9.5 44.499 9.5zM1157 40.999c-62 -19.333 -127.5 -35.001 -196.5 -47.001s-144.833 -18 -227.5 -18
c-204 0 -358 61 -462 183s-156 301.667 -156 539c0 252 52 442 156 570s258 192 462 192c77.333 0 146.833 -6.66699 208.5 -20s121.167 -30.666 178.5 -51.999l-52 -148c-27.333 10 -54.333 19 -81 27s-53.5 14.667 -80.5 20s-54.833 9.33301 -83.5 12s-58.667 4 -90 4
c-74 0 -137.667 -13.167 -191 -39.5s-97.333 -64.666 -132 -114.999s-60.334 -111.666 -77.001 -183.999s-25 -154.5 -25 -246.5c0 -94.667 8.33301 -178.334 25 -251.001s42.334 -133.834 77.001 -183.501s78.667 -87.167 132 -112.5s117 -38 191 -38
c68 0 132.667 5.66699 194 17s122.333 26.333 183 45z" />
    <glyph glyph-name="cdotaccent" unicode="&#x10b;" horiz-adv-x="973" 
d="M517 1418c16.667 0 32.335 -3.16797 47.002 -9.50098s27.5 -14.833 38.5 -25.5s19.667 -23.167 26 -37.5s9.5 -29.833 9.5 -46.5c0 -18 -3.33301 -34.5 -10 -49.5s-15.5 -27.667 -26.5 -38s-23.833 -18.5 -38.5 -24.5s-30 -9 -46 -9s-31.333 3.16699 -46 9.5
s-27.5 15 -38.5 26s-19.833 23.833 -26.5 38.5s-10 30.334 -10 47.001s3.5 32.167 10.5 46.5s16.167 26.833 27.5 37.5s24.166 19.167 38.499 25.5s29.166 9.5 44.499 9.5zM895.001 36.999c-52 -18 -107.499 -32.666 -166.499 -43.999s-114.833 -17 -167.5 -17
c-80 0 -149.333 11.667 -208 35s-107.167 57.333 -145.5 102s-66.833 99.5 -85.5 164.5s-28 139.167 -28 222.5c0 90.667 11.5 171 34.5 241s56.333 128.833 100 176.5s97 83.834 160 108.501s134.5 37 214.5 37c40.667 0 82 -4.16699 124 -12.5s84.667 -18.833 128 -31.5
l-43 -140c-34.667 11.333 -66.834 20.333 -96.501 27s-60.834 10 -93.501 10c-113.333 0 -200.666 -32.833 -261.999 -98.5s-92 -164.834 -92 -297.501c0 -62 4.5 -117.5 13.5 -166.5s25 -90.667 48 -125s54.333 -60.5 94 -78.5s90.167 -27 151.5 -27
c40 0 83.167 5.16699 129.5 15.5s95.5 23.166 147.5 38.499z" />
    <glyph glyph-name="Ccaron" unicode="&#x10c;" horiz-adv-x="1239" 
d="M972 1919l71 -87l-313 -254l-317 254l71 87l246 -141zM1157 41c-62 -19.333 -127.5 -35.001 -196.5 -47.001s-144.833 -18 -227.5 -18c-204 0 -358 61 -462 183s-156 301.667 -156 539c0 252 52 442 156 570s258 192 462 192c77.333 0 146.833 -6.66699 208.5 -20
s121.167 -30.666 178.5 -51.999l-52 -148c-27.333 10 -54.333 19 -81 27s-53.5 14.667 -80.5 20s-54.833 9.33301 -83.5 12s-58.667 4 -90 4c-74 0 -137.667 -13.167 -191 -39.5s-97.333 -64.666 -132 -114.999s-60.334 -111.666 -77.001 -183.999s-25 -154.5 -25 -246.5
c0 -94.667 8.33301 -178.334 25 -251.001s42.334 -133.834 77.001 -183.501s78.667 -87.167 132 -112.5s117 -38 191 -38c68 0 132.667 5.66699 194 17s122.333 26.333 183 45z" />
    <glyph glyph-name="ccaron" unicode="&#x10d;" horiz-adv-x="973" 
d="M759 1522l71 -87l-313 -254l-317 254l71 87l246 -141zM895 37c-52 -18 -107.499 -32.666 -166.499 -43.999s-114.833 -17 -167.5 -17c-80 0 -149.333 11.667 -208 35s-107.167 57.333 -145.5 102s-66.833 99.5 -85.5 164.5s-28 139.167 -28 222.5
c0 90.667 11.5 171 34.5 241s56.333 128.833 100 176.5s97 83.834 160 108.501s134.5 37 214.5 37c40.667 0 82 -4.16699 124 -12.5s84.667 -18.833 128 -31.5l-43 -140c-34.667 11.333 -66.834 20.333 -96.501 27s-60.834 10 -93.501 10
c-113.333 0 -200.666 -32.833 -261.999 -98.5s-92 -164.834 -92 -297.501c0 -62 4.5 -117.5 13.5 -166.5s25 -90.667 48 -125s54.333 -60.5 94 -78.5s90.167 -27 151.5 -27c40 0 83.167 5.16699 129.5 15.5s95.5 23.166 147.5 38.499z" />
    <glyph glyph-name="Dcaron" unicode="&#x10e;" horiz-adv-x="1376" 
d="M848 1902l71 -87l-313 -254l-317 254l71 87l246 -141zM182 0v1437.99h304c82 0 158.167 -4.16699 228.5 -12.5s134.833 -22.833 193.5 -43.5s110.167 -48.167 154.5 -82.5s82.5 -78.166 114.5 -131.499c31.333 -53.333 55 -116.666 71 -189.999s24 -159.666 24 -258.999
s-8 -185.666 -24 -258.999s-39.667 -136.666 -71 -189.999c-32 -53.333 -70.167 -97.166 -114.5 -131.499s-95.833 -61.833 -154.5 -82.5s-123.167 -35.167 -193.5 -43.5s-146.5 -12.5 -228.5 -12.5h-304zM517 153.994c102 0 188.5 10.167 259.5 30.5
s129.167 53.5 174.5 99.5c44.667 46 77.167 104.5 97.5 175.5s30.5 157.5 30.5 259.5s-10.167 188.5 -30.5 259.5s-52.833 129.5 -97.5 175.5c-45.333 46 -103.5 79.167 -174.5 99.5s-157.5 30.5 -259.5 30.5h-147v-1130h147z" />
    <glyph glyph-name="dcaron" unicode="&#x10f;" horiz-adv-x="1123" 
d="M1194 1223l-50.999 177.001c43.333 31.333 83.666 47 120.999 47c41.333 0 73.833 -11 97.5 -33s35.834 -49.167 36.501 -81.5s-5.33301 -66.5 -18 -102.5c-18.667 -44.667 -66.334 -134.334 -143.001 -269.001h-122zM776.001 1440l171.998 -0.000976562v-1047
c0 -117.333 1.66699 -194.333 5 -231c3.33301 -45.333 11 -94 23 -146l-166 -37c-11.333 37.333 -19.666 75 -24.999 113c-6.66699 46.667 -10.334 82.667 -11.001 108h-15c-34.667 -72 -73 -125 -115 -159c-50.667 -43.333 -113.334 -65 -188.001 -65
c-65.333 0 -121.666 14.167 -168.999 42.5s-84.166 67.833 -110.499 118.5s-45.666 106.334 -57.999 167.001s-18.5 127.667 -18.5 201c0 82.667 8.5 157 25.5 223s43.167 124.5 78.5 175.5s82.666 90.333 141.999 118s129 41.5 209 41.5
c62.667 0 136.334 -8.33301 221.001 -25v402zM775.999 421l0.000976562 465c-75.333 20 -144.666 30 -207.999 30c-54 0 -100.5 -9.83301 -139.5 -29.5s-69.5 -47.334 -91.5 -83.001s-38 -75.5 -48 -119.5s-15 -93.333 -15 -148c0 -37.333 0.833008 -70.166 2.5 -98.499
s4.66699 -59 9 -92s11.166 -61.167 20.499 -84.5s21 -45 35 -65s32.167 -35.167 54.5 -45.5s48.166 -15.5 77.499 -15.5c70.667 0 132 28.333 184 85c37.333 41.333 77 108.333 119 201z" />
    <glyph glyph-name="Dcroat" unicode="&#x110;" horiz-adv-x="1376" 
d="M808 1719v-121h-513v121h513zM182 0v1437.99h304c82 0 158.167 -4.16699 228.5 -12.5s134.833 -22.833 193.5 -43.5s110.167 -48.167 154.5 -82.5s82.5 -78.166 114.5 -131.499c31.333 -53.333 55 -116.666 71 -189.999s24 -159.666 24 -258.999
s-8 -185.666 -24 -258.999s-39.667 -136.666 -71 -189.999c-32 -53.333 -70.167 -97.166 -114.5 -131.499s-95.833 -61.833 -154.5 -82.5s-123.167 -35.167 -193.5 -43.5s-146.5 -12.5 -228.5 -12.5h-304zM517 153.994c102 0 188.5 10.167 259.5 30.5
s129.167 53.5 174.5 99.5c44.667 46 77.167 104.5 97.5 175.5s30.5 157.5 30.5 259.5s-10.167 188.5 -30.5 259.5s-52.833 129.5 -97.5 175.5c-45.333 46 -103.5 79.167 -174.5 99.5s-157.5 30.5 -259.5 30.5h-147v-1130h147z" />
    <glyph glyph-name="dcroat" unicode="&#x111;" horiz-adv-x="1123" 
d="M1109 1173l-161.002 -0.000976562v-780c0 -117.333 1.66699 -194.333 5 -231c3.33301 -45.333 11 -94 23 -146l-166 -37c-11.333 37.333 -19.666 75 -24.999 113c-6.66699 46.667 -10.334 82.667 -11.001 108h-15c-34.667 -72 -73 -125 -115 -159
c-50.667 -43.333 -113.334 -65 -188.001 -65c-65.333 0 -121.666 14.167 -168.999 42.5s-84.166 67.833 -110.499 118.5s-45.666 106.334 -57.999 167.001s-18.5 127.667 -18.5 201c0 82.667 8.5 157 25.5 223s43.167 124.5 78.5 175.5s82.666 90.333 141.999 118
s129 41.5 209 41.5c62.667 0 136.334 -8.33301 221.001 -25v135h-180v121h180v146h172v-146h161v-121zM775.998 420.999l0.000976562 465c-75.333 20 -144.666 30 -207.999 30c-54 0 -100.5 -9.83301 -139.5 -29.5s-69.5 -47.334 -91.5 -83.001s-38 -75.5 -48 -119.5
s-15 -93.333 -15 -148c0 -37.333 0.833008 -70.166 2.5 -98.499s4.66699 -59 9 -92s11.166 -61.167 20.499 -84.5s21 -45 35 -65s32.167 -35.167 54.5 -45.5s48.166 -15.5 77.499 -15.5c70.667 0 132 28.333 184 85c37.333 41.333 77 108.333 119 201z" />
    <glyph glyph-name="Emacron" unicode="&#x112;" horiz-adv-x="1131" 
d="M325 1719h513v-121h-513v121zM182 1438h798v-154h-610v-397h432v-154h-432v-579h633v-154h-821v1438z" />
    <glyph glyph-name="emacron" unicode="&#x113;" horiz-adv-x="1102" 
d="M811 1363v-121h-513v121h513zM946 58c-74 -29.333 -143.501 -50.335 -208.501 -63.002s-123.167 -19 -174.5 -19c-78.667 0 -147.334 12.5 -206.001 37.5s-107.5 60.167 -146.5 105.5s-68.333 99.5 -88 162.5s-29.5 132.5 -29.5 208.5
c0 46.667 3.33301 93.334 10 140.001s17.334 91.167 32.001 133.5s33.834 81.833 57.501 118.5s52.5 68.334 86.5 95.001s73.667 47.667 119 63s97 23 155 23c148.667 0 260.667 -46.5 336 -139.5s113 -226.167 113 -399.5v-55h-732c0 -56 6 -105.5 18 -148.5
s30.5 -79.333 55.5 -109s56.667 -52.167 95 -67.5s83.833 -23 136.5 -23c29.333 0 58.5 2.16699 87.5 6.5s57.167 10 84.5 17s53.5 14.833 78.5 23.5l70.5 25zM828.999 606.998c-5.33301 108 -31.167 186.833 -77.5 236.5s-112.5 74.5 -198.5 74.5
s-151.5 -24.833 -196.5 -74.5s-72.167 -128.5 -81.5 -236.5h554z" />
    <glyph glyph-name="Edotaccent" unicode="&#x116;" horiz-adv-x="1131" 
d="M594 1798c32.667 0 61.334 -11.667 86.001 -35c23.333 -22 35 -50 35 -84c0 -35.333 -11.667 -64 -35 -86c-24.667 -23.333 -53.334 -35 -86.001 -35c-31.333 0 -59.333 11.667 -84 35s-37 52 -37 86c0 32.667 12.333 60.667 37 84s52.667 35 84 35zM182 1438h798v-154
h-610v-397h432v-154h-432v-579h633v-154h-821v1438z" />
    <glyph glyph-name="edotaccent" unicode="&#x117;" horiz-adv-x="1102" 
d="M554 1418c16.667 0 32.335 -3.16797 47.002 -9.50098s27.5 -14.833 38.5 -25.5s19.667 -23.167 26 -37.5s9.5 -29.833 9.5 -46.5c0 -18 -3.33301 -34.5 -10 -49.5s-15.5 -27.667 -26.5 -38s-23.833 -18.5 -38.5 -24.5s-30 -9 -46 -9s-31.333 3.16699 -46 9.5
s-27.5 15 -38.5 26s-19.833 23.833 -26.5 38.5s-10 30.334 -10 47.001s3.5 32.167 10.5 46.5s16.167 26.833 27.5 37.5s24.166 19.167 38.499 25.5s29.166 9.5 44.499 9.5zM946.001 57.999c-74 -29.333 -143.501 -50.335 -208.501 -63.002s-123.167 -19 -174.5 -19
c-78.667 0 -147.334 12.5 -206.001 37.5s-107.5 60.167 -146.5 105.5s-68.333 99.5 -88 162.5s-29.5 132.5 -29.5 208.5c0 46.667 3.33301 93.334 10 140.001s17.334 91.167 32.001 133.5s33.834 81.833 57.501 118.5s52.5 68.334 86.5 95.001s73.667 47.667 119 63
s97 23 155 23c148.667 0 260.667 -46.5 336 -139.5s113 -226.167 113 -399.5v-55h-732c0 -56 6 -105.5 18 -148.5s30.5 -79.333 55.5 -109s56.667 -52.167 95 -67.5s83.833 -23 136.5 -23c29.333 0 58.5 2.16699 87.5 6.5s57.167 10 84.5 17s53.5 14.833 78.5 23.5l70.5 25z
M829 606.997c-5.33301 108 -31.167 186.833 -77.5 236.5s-112.5 74.5 -198.5 74.5s-151.5 -24.833 -196.5 -74.5s-72.167 -128.5 -81.5 -236.5h554z" />
    <glyph glyph-name="Eogonek" unicode="&#x118;" horiz-adv-x="1131" 
d="M1003 0l-164 -0.000976562c-38.667 -46.667 -66.334 -84.5 -83.001 -113.5s-25 -59.167 -25 -90.5c0 -61.333 23.667 -92 71 -92c24.667 0 58.667 8.33301 102 25l-5 -90c-47.333 -31.333 -97 -47 -149 -47c-43.333 0 -78.666 14.833 -105.999 44.5s-41 70.167 -41 121.5
c0 24 2.5 45.833 7.5 65.5s14.667 40.334 29 62.001s26.833 39 37.5 52s29 33.833 55 62.5h-550v1438h798v-154h-610v-397h432v-154h-432v-579h633v-154z" />
    <glyph glyph-name="eogonek" unicode="&#x119;" horiz-adv-x="1102" 
d="M1002 469l-732.001 -0.000976562c0 -56 6 -105.5 18 -148.5s30.5 -79.333 55.5 -109s56.667 -52.167 95 -67.5s83.833 -23 136.5 -23c29.333 0 58.5 2.16699 87.5 6.5s57.167 10 84.5 17s53.5 14.833 78.5 23.5l70.5 25l50 -135c-32 -12.667 -63.333 -23.667 -94 -33
s-60.334 -17.333 -89.001 -24c-17.333 -20.667 -32.666 -39.834 -45.999 -57.501s-24.666 -34.5 -33.999 -50.5s-16.5 -31.833 -21.5 -47.5s-7.5 -32.167 -7.5 -49.5c0 -34 6.33301 -57.833 19 -71.5s30 -20.5 52 -20.5c14 0 29.667 2.33301 47 7s35.666 10.667 54.999 18
l-5 -90c-22 -14.667 -44.333 -26.167 -67 -34.5s-50 -12.5 -82 -12.5c-42.667 0 -77.834 14.5 -105.501 43.5s-41.5 69.833 -41.5 122.5c0 22.667 2.66699 43.5 8 62.5s12.666 37 21.999 54s20.833 34 34.5 51s29.167 35.167 46.5 54.5
c-13.333 -1.33301 -26.166 -2.33301 -38.499 -3s-24.166 -1 -35.499 -1c-78.667 0 -147.334 12.5 -206.001 37.5s-107.5 60.167 -146.5 105.5s-68.333 99.5 -88 162.5s-29.5 132.5 -29.5 208.5c0 46.667 3.33301 93.334 10 140.001s17.334 91.167 32.001 133.5
s33.834 81.833 57.501 118.5s52.5 68.334 86.5 95.001s73.667 47.667 119 63s97 23 155 23c148.667 0 260.667 -46.5 336 -139.5s113 -226.167 113 -399.5v-55zM828.999 606.999c-5.33301 108 -31.167 186.833 -77.5 236.5s-112.5 74.5 -198.5 74.5
s-151.5 -24.833 -196.5 -74.5s-72.167 -128.5 -81.5 -236.5h554z" />
    <glyph glyph-name="Ecaron" unicode="&#x11a;" horiz-adv-x="1131" 
d="M586 1761l242 141l71 -87l-313 -254l-317 254l71 87zM182 1438h798v-154h-610v-397h432v-154h-432v-579h633v-154h-821v1438z" />
    <glyph glyph-name="ecaron" unicode="&#x11b;" horiz-adv-x="1102" 
d="M796 1522l71 -87l-313 -254l-317 254l71 87l246 -141zM946 58c-74 -29.333 -143.501 -50.335 -208.501 -63.002s-123.167 -19 -174.5 -19c-78.667 0 -147.334 12.5 -206.001 37.5s-107.5 60.167 -146.5 105.5s-68.333 99.5 -88 162.5s-29.5 132.5 -29.5 208.5
c0 46.667 3.33301 93.334 10 140.001s17.334 91.167 32.001 133.5s33.834 81.833 57.501 118.5s52.5 68.334 86.5 95.001s73.667 47.667 119 63s97 23 155 23c148.667 0 260.667 -46.5 336 -139.5s113 -226.167 113 -399.5v-55h-732c0 -56 6 -105.5 18 -148.5
s30.5 -79.333 55.5 -109s56.667 -52.167 95 -67.5s83.833 -23 136.5 -23c29.333 0 58.5 2.16699 87.5 6.5s57.167 10 84.5 17s53.5 14.833 78.5 23.5l70.5 25zM828.999 606.998c-5.33301 108 -31.167 186.833 -77.5 236.5s-112.5 74.5 -198.5 74.5
s-151.5 -24.833 -196.5 -74.5s-72.167 -128.5 -81.5 -236.5h554z" />
    <glyph glyph-name="Gbreve" unicode="&#x11e;" horiz-adv-x="1399" 
d="M1052 1904c-4.66699 -44 -14.3291 -84.332 -28.9961 -120.999s-34 -68.167 -58 -94.5s-52.333 -46.833 -85 -61.5s-69 -22 -109 -22c-40.667 0 -77.334 7.5 -110.001 22.5s-60.834 35.833 -84.501 62.5s-42.834 58.167 -57.501 94.5s-24.334 76.166 -29.001 119.499h76
c21.333 -55.333 48.5 -94.666 81.5 -117.999s74.167 -35 123.5 -35s90.5 11.667 123.5 35s60.167 62.666 81.5 117.999h76zM1257 77.001c-79.333 -32.667 -161.501 -57.668 -246.501 -75.001s-167.5 -26 -247.5 -26c-104 0 -196.167 14.667 -276.5 44
s-147.833 74 -202.5 134s-96.167 135.5 -124.5 226.5s-42.5 198.167 -42.5 321.5c0 134 14.5 249 43.5 345s71.167 174.5 126.5 235.5s123.5 105.833 204.5 134.5s173.5 43 277.5 43c64.667 0 132.667 -6.5 204 -19.5s144.666 -31.5 219.999 -55.5l-53 -150
c-67.333 22.667 -130.5 39.667 -189.5 51s-118.5 17 -178.5 17c-77.333 0 -145 -11.333 -203 -34s-106.167 -57.667 -144.5 -105s-67 -107.666 -86 -180.999s-28.5 -160.666 -28.5 -261.999c0 -100 8.83301 -187 26.5 -261s44.834 -135.167 81.501 -183.5
s83.334 -84.333 140.001 -108s123.667 -35.5 201 -35.5c54.667 0 109.667 5.66699 165 17s106 24.666 152 39.999v398h-241v151h422v-662z" />
    <glyph glyph-name="gbreve" unicode="&#x11f;" horiz-adv-x="1118" 
d="M786 1507c-4.66699 -44 -14.3291 -84.332 -28.9961 -120.999s-34 -68.167 -58 -94.5s-52.333 -46.833 -85 -61.5s-69 -22 -109 -22c-40.667 0 -77.334 7.5 -110.001 22.5s-60.834 35.833 -84.501 62.5s-42.834 58.167 -57.501 94.5s-24.334 76.166 -29.001 119.499h76
c21.333 -55.333 48.5 -94.666 81.5 -117.999s74.167 -35 123.5 -35s90.5 11.667 123.5 35s60.167 62.666 81.5 117.999h76zM762.005 1040c28.667 0 53.8359 0.329102 75.5029 0.996094s42.5 2.16699 62.5 4.5s40.167 5.83301 60.5 10.5s44.166 11.334 71.499 20.001
l25.5 -72l25.5 -70c-21.333 -8 -41 -14.333 -59 -19s-35.833 -8.5 -53.5 -11.5s-35.334 -5 -53.001 -6s-36.5 -1.83301 -56.5 -2.5c18.667 -30 33 -63.667 43 -101s15 -78 15 -122c0 -64 -9.66699 -119.833 -29 -167.5s-47 -88.167 -83 -121.5s-79.167 -58.5 -129.5 -75.5
s-106.833 -25.5 -169.5 -25.5c-32 0 -62.333 1.83301 -91 5.5s-56 10.167 -82 19.5c-6 -16 -11.167 -32.333 -15.5 -49s-6.33301 -32.5 -6 -47.5s3.16602 -28.667 8.49902 -41s14.666 -22.166 27.999 -29.499c6.66699 -4 13.667 -7.16699 21 -9.5s16.166 -4.33301 26.499 -6
s22.833 -3 37.5 -4s32.334 -1.5 53.001 -1.5c20 -0.666992 43.5 -1 70.5 -1h94.5c104 0 182.667 -21.833 236 -65.5s80 -111.5 80 -203.5c0 -37.333 -6 -70.5 -18 -99.5s-28.5 -54.167 -49.5 -75.5s-45.833 -39.166 -74.5 -53.499s-59.667 -26 -93 -35
s-68.166 -15.333 -104.499 -19s-72.833 -5.5 -109.5 -5.5s-73.5 2 -110.5 6s-73.167 9 -108.5 15s-68.5 12.833 -99.5 20.5s-58.5 15.167 -82.5 22.5c9.33301 22.667 19.833 45.334 31.5 68.001s24.167 44 37.5 64c42 -12 92 -23.667 150 -35s122.333 -17 193 -17
c32 0 63.5 2 94.5 6s59 11.5 84 22.5s45.167 25.667 60.5 44s23 42.166 23 71.499c0 30.667 -5.5 54.334 -16.5 71.001s-25.833 29 -44.5 37s-40.667 12.667 -66 14s-52 2 -80 2h-131c-39.333 0 -76.333 3 -111 9s-65 16.167 -91 30.5s-46.5 33.166 -61.5 56.499
s-22.5 52 -22.5 86c0 32.667 6 66.5 18 101.5s27.667 70.5 47 106.5c-44 32 -77.833 74.333 -101.5 127s-35.5 113.334 -35.5 182.001c0 62.667 9.83301 118.167 29.5 166.5s47.5 89.5 83.5 123.5s79 59.333 129 76s106.333 25 169 25c58.667 0 112.667 -7.66699 162 -23h92
zM508.007 924.997c-42 0 -78 -6.33301 -108 -19s-54.5 -30.167 -73.5 -52.5s-33 -49 -42 -80s-13.5 -64.833 -13.5 -101.5c0 -37.333 4.5 -71.333 13.5 -102s23.167 -57.167 42.5 -79.5s43.833 -39.666 73.5 -51.999s65.5 -18.5 107.5 -18.5s78 6.16699 108 18.5
s54.5 29.666 73.5 51.999s33 49 42 80s13.5 64.833 13.5 101.5s-4.5 70.5 -13.5 101.5s-23 57.667 -42 80s-43.5 39.833 -73.5 52.5s-66 19 -108 19z" />
    <glyph glyph-name="Gdotaccent" unicode="&#x120;" horiz-adv-x="1399" 
d="M771 1815c16.667 0 32.335 -3.16797 47.002 -9.50098s27.5 -14.833 38.5 -25.5s19.667 -23.167 26 -37.5s9.5 -29.833 9.5 -46.5c0 -18 -3.33301 -34.5 -10 -49.5s-15.5 -27.667 -26.5 -38s-23.833 -18.5 -38.5 -24.5s-30 -9 -46 -9s-31.333 3.16699 -46 9.5
s-27.5 15 -38.5 26s-19.833 23.833 -26.5 38.5s-10 30.334 -10 47.001s3.5 32.167 10.5 46.5s16.167 26.833 27.5 37.5s24.166 19.167 38.499 25.5s29.166 9.5 44.499 9.5zM1257 76.999c-79.333 -32.667 -161.501 -57.668 -246.501 -75.001s-167.5 -26 -247.5 -26
c-104 0 -196.167 14.667 -276.5 44s-147.833 74 -202.5 134s-96.167 135.5 -124.5 226.5s-42.5 198.167 -42.5 321.5c0 134 14.5 249 43.5 345s71.167 174.5 126.5 235.5s123.5 105.833 204.5 134.5s173.5 43 277.5 43c64.667 0 132.667 -6.5 204 -19.5
s144.666 -31.5 219.999 -55.5l-53 -150c-67.333 22.667 -130.5 39.667 -189.5 51s-118.5 17 -178.5 17c-77.333 0 -145 -11.333 -203 -34s-106.167 -57.667 -144.5 -105s-67 -107.666 -86 -180.999s-28.5 -160.666 -28.5 -261.999c0 -100 8.83301 -187 26.5 -261
s44.834 -135.167 81.501 -183.5s83.334 -84.333 140.001 -108s123.667 -35.5 201 -35.5c54.667 0 109.667 5.66699 165 17s106 24.666 152 39.999v398h-241v151h422v-662z" />
    <glyph glyph-name="gdotaccent" unicode="&#x121;" horiz-adv-x="1118" 
d="M505 1418c16.667 0 32.335 -3.16797 47.002 -9.50098s27.5 -14.833 38.5 -25.5s19.667 -23.167 26 -37.5s9.5 -29.833 9.5 -46.5c0 -18 -3.33301 -34.5 -10 -49.5s-15.5 -27.667 -26.5 -38s-23.833 -18.5 -38.5 -24.5s-30 -9 -46 -9s-31.333 3.16699 -46 9.5
s-27.5 15 -38.5 26s-19.833 23.833 -26.5 38.5s-10 30.334 -10 47.001s3.5 32.167 10.5 46.5s16.167 26.833 27.5 37.5s24.166 19.167 38.499 25.5s29.166 9.5 44.499 9.5zM762.001 1040c28.667 0 53.8359 0.329102 75.5029 0.996094s42.5 2.16699 62.5 4.5
s40.167 5.83301 60.5 10.5s44.166 11.334 71.499 20.001l25.5 -72l25.5 -70c-21.333 -8 -41 -14.333 -59 -19s-35.833 -8.5 -53.5 -11.5s-35.334 -5 -53.001 -6s-36.5 -1.83301 -56.5 -2.5c18.667 -30 33 -63.667 43 -101s15 -78 15 -122
c0 -64 -9.66699 -119.833 -29 -167.5s-47 -88.167 -83 -121.5s-79.167 -58.5 -129.5 -75.5s-106.833 -25.5 -169.5 -25.5c-32 0 -62.333 1.83301 -91 5.5s-56 10.167 -82 19.5c-6 -16 -11.167 -32.333 -15.5 -49s-6.33301 -32.5 -6 -47.5s3.16602 -28.667 8.49902 -41
s14.666 -22.166 27.999 -29.499c6.66699 -4 13.667 -7.16699 21 -9.5s16.166 -4.33301 26.499 -6s22.833 -3 37.5 -4s32.334 -1.5 53.001 -1.5c20 -0.666992 43.5 -1 70.5 -1h94.5c104 0 182.667 -21.833 236 -65.5s80 -111.5 80 -203.5c0 -37.333 -6 -70.5 -18 -99.5
s-28.5 -54.167 -49.5 -75.5s-45.833 -39.166 -74.5 -53.499s-59.667 -26 -93 -35s-68.166 -15.333 -104.499 -19s-72.833 -5.5 -109.5 -5.5s-73.5 2 -110.5 6s-73.167 9 -108.5 15s-68.5 12.833 -99.5 20.5s-58.5 15.167 -82.5 22.5
c9.33301 22.667 19.833 45.334 31.5 68.001s24.167 44 37.5 64c42 -12 92 -23.667 150 -35s122.333 -17 193 -17c32 0 63.5 2 94.5 6s59 11.5 84 22.5s45.167 25.667 60.5 44s23 42.166 23 71.499c0 30.667 -5.5 54.334 -16.5 71.001s-25.833 29 -44.5 37
s-40.667 12.667 -66 14s-52 2 -80 2h-131c-39.333 0 -76.333 3 -111 9s-65 16.167 -91 30.5s-46.5 33.166 -61.5 56.499s-22.5 52 -22.5 86c0 32.667 6 66.5 18 101.5s27.667 70.5 47 106.5c-44 32 -77.833 74.333 -101.5 127s-35.5 113.334 -35.5 182.001
c0 62.667 9.83301 118.167 29.5 166.5s47.5 89.5 83.5 123.5s79 59.333 129 76s106.333 25 169 25c58.667 0 112.667 -7.66699 162 -23h92zM508.003 924.995c-42 0 -78 -6.33301 -108 -19s-54.5 -30.167 -73.5 -52.5s-33 -49 -42 -80s-13.5 -64.833 -13.5 -101.5
c0 -37.333 4.5 -71.333 13.5 -102s23.167 -57.167 42.5 -79.5s43.833 -39.666 73.5 -51.999s65.5 -18.5 107.5 -18.5s78 6.16699 108 18.5s54.5 29.666 73.5 51.999s33 49 42 80s13.5 64.833 13.5 101.5s-4.5 70.5 -13.5 101.5s-23 57.667 -42 80s-43.5 39.833 -73.5 52.5
s-66 19 -108 19z" />
    <glyph glyph-name="Gcommaaccent" unicode="&#x122;" horiz-adv-x="1399" 
d="M1257 77c-79.333 -32.667 -161.501 -57.668 -246.501 -75.001s-167.5 -26 -247.5 -26c-104 0 -196.167 14.667 -276.5 44s-147.833 74 -202.5 134s-96.167 135.5 -124.5 226.5s-42.5 198.167 -42.5 321.5c0 134 14.5 249 43.5 345s71.167 174.5 126.5 235.5
s123.5 105.833 204.5 134.5s173.5 43 277.5 43c64.667 0 132.667 -6.5 204 -19.5s144.666 -31.5 219.999 -55.5l-53 -150c-67.333 22.667 -130.5 39.667 -189.5 51s-118.5 17 -178.5 17c-77.333 0 -145 -11.333 -203 -34s-106.167 -57.667 -144.5 -105
s-67 -107.666 -86 -180.999s-28.5 -160.666 -28.5 -261.999c0 -100 8.83301 -187 26.5 -261s44.834 -135.167 81.501 -183.5s83.334 -84.333 140.001 -108s123.667 -35.5 201 -35.5c54.667 0 109.667 5.66699 165 17s106 24.666 152 39.999v398h-241v151h422v-662z
M640.999 -174.001c25.333 18 47.167 30.332 65.5 36.999s36.833 10 55.5 10c32.667 0 59 -6.5 79 -19.5s34.5 -29.667 43.5 -50s12.833 -43.5 11.5 -69.5s-7.33301 -52 -18 -78c-7.33301 -17.333 -17 -37.666 -29 -60.999l-38 -72.5l-40.5 -73.5l-35.5 -62h-122l79 262z" />
    <glyph glyph-name="gcommaaccent" unicode="&#x123;" horiz-adv-x="1097" 
d="M679 1697l-79.001 -262.001l51 -177c-25.333 -18 -47.166 -30.333 -65.499 -37s-36.833 -10 -55.5 -10c-32.667 0 -59 6.5 -79 19.5s-34.5 29.667 -43.5 50s-12.833 43.5 -11.5 69.5s7.33301 52 18 78c6.66699 16.667 16.167 36.834 28.5 60.501l38.5 73l40.5 73.5
l35.5 62h122zM761.999 1040c28.667 0 53.8359 0.329102 75.5029 0.996094s42.5 2.16699 62.5 4.5s40.167 5.83301 60.5 10.5s44.166 11.334 71.499 20.001l25.5 -72l25.5 -70c-21.333 -8 -41 -14.333 -59 -19s-35.833 -8.5 -53.5 -11.5s-35.334 -5 -53.001 -6
s-36.5 -1.83301 -56.5 -2.5c18.667 -30 33 -63.667 43 -101s15 -78 15 -122c0 -64 -9.66699 -119.833 -29 -167.5s-47 -88.167 -83 -121.5s-79.167 -58.5 -129.5 -75.5s-106.833 -25.5 -169.5 -25.5c-32 0 -62.333 1.83301 -91 5.5s-56 10.167 -82 19.5
c-6 -16 -11.167 -32.333 -15.5 -49s-6.33301 -32.5 -6 -47.5s3.16602 -28.667 8.49902 -41s14.666 -22.166 27.999 -29.499c6.66699 -4 13.667 -7.16699 21 -9.5s16.166 -4.33301 26.499 -6s22.833 -3 37.5 -4s32.334 -1.5 53.001 -1.5c20 -0.666992 43.5 -1 70.5 -1h94.5
c104 0 182.667 -21.833 236 -65.5s80 -111.5 80 -203.5c0 -37.333 -6 -70.5 -18 -99.5s-28.5 -54.167 -49.5 -75.5s-45.833 -39.166 -74.5 -53.499s-59.667 -26 -93 -35s-68.166 -15.333 -104.499 -19s-72.833 -5.5 -109.5 -5.5s-73.5 2 -110.5 6s-73.167 9 -108.5 15
s-68.5 12.833 -99.5 20.5s-58.5 15.167 -82.5 22.5c9.33301 22.667 19.833 45.334 31.5 68.001s24.167 44 37.5 64c42 -12 92 -23.667 150 -35s122.333 -17 193 -17c32 0 63.5 2 94.5 6s59 11.5 84 22.5s45.167 25.667 60.5 44s23 42.166 23 71.499
c0 30.667 -5.5 54.334 -16.5 71.001s-25.833 29 -44.5 37s-40.667 12.667 -66 14s-52 2 -80 2h-131c-39.333 0 -76.333 3 -111 9s-65 16.167 -91 30.5s-46.5 33.166 -61.5 56.499s-22.5 52 -22.5 86c0 32.667 6 66.5 18 101.5s27.667 70.5 47 106.5
c-44 32 -77.833 74.333 -101.5 127s-35.5 113.334 -35.5 182.001c0 62.667 9.83301 118.167 29.5 166.5s47.5 89.5 83.5 123.5s79 59.333 129 76s106.333 25 169 25c58.667 0 112.667 -7.66699 162 -23h92zM508.001 924.995c-42 0 -78 -6.33301 -108 -19
s-54.5 -30.167 -73.5 -52.5s-33 -49 -42 -80s-13.5 -64.833 -13.5 -101.5c0 -37.333 4.5 -71.333 13.5 -102s23.167 -57.167 42.5 -79.5s43.833 -39.666 73.5 -51.999s65.5 -18.5 107.5 -18.5s78 6.16699 108 18.5s54.5 29.666 73.5 51.999s33 49 42 80
s13.5 64.833 13.5 101.5s-4.5 70.5 -13.5 101.5s-23 57.667 -42 80s-43.5 39.833 -73.5 52.5s-66 19 -108 19z" />
    <glyph glyph-name="Hbar" unicode="&#x126;" horiz-adv-x="1718" 
d="M1254 1438h188v-240h176v-121h-176v-1077h-188v711h-773v-711h-188v1077h-193v121h193v240h188v-240h773v240zM1254 867v210h-773v-210h773z" />
    <glyph glyph-name="hbar" unicode="&#x127;" horiz-adv-x="1159" 
d="M347 1098v-283.002c44.667 76 95.334 135.333 152.001 178c64.667 48 129 72 193 72c96 0 170.667 -24 224 -72c46 -41.333 77.667 -103.666 95 -186.999c13.333 -63.333 20 -148.666 20 -255.999v-550h-180v596c0 99.333 -9.66699 170.333 -29 213
c-28.667 63.333 -85.667 95 -171 95c-60.667 0 -120.334 -30 -179.001 -90c-37.333 -38 -79 -96 -125 -174v-640h-171v1098h-175v120h175v222h171v-222h181v-120h-181z" />
    <glyph glyph-name="Imacron" unicode="&#x12a;" horiz-adv-x="596" 
d="M40 1719h513v-121h-513v121zM204 1438h188v-1438h-188v1438z" />
    <glyph glyph-name="imacron" unicode="&#x12b;" horiz-adv-x="534" 
d="M10 1332h513v-121h-513v121zM181 1040h172v-1040h-172v1040z" />
    <glyph glyph-name="Iogonek" unicode="&#x12e;" horiz-adv-x="596" 
d="M392 0l-79 -0.000976562c-38.667 -46.667 -66.334 -84.5 -83.001 -113.5s-25 -59.167 -25 -90.5c0 -61.333 23.667 -92 71 -92c24.667 0 58.667 8.33301 102 25l-5 -90c-47.333 -31.333 -97 -47 -149 -47c-43.333 0 -78.666 14.833 -105.999 44.5s-41 70.167 -41 121.5
c0 24 2.5 45.833 7.5 65.5s14.667 40.334 29 62.001s26.833 39 37.5 52s29 33.833 55 62.5h-2v1438h188v-1438z" />
    <glyph glyph-name="iogonek" unicode="&#x12f;" horiz-adv-x="534" 
d="M183 1223c-24.667 23.333 -37 52 -37 86c0 32.667 12.333 60.667 37 84s52.667 35 84 35c32.667 0 61.334 -11.667 86.001 -35c23.333 -22 35 -50 35 -84c0 -35.333 -11.667 -64 -35 -86c-24.667 -23.333 -53.334 -35 -86.001 -35c-31.333 0 -59.333 11.667 -84 35z
M353 0l-59 -0.000976562c-38.667 -46.667 -66.334 -84.5 -83.001 -113.5s-25 -59.167 -25 -90.5c0 -61.333 23.667 -92 71 -92c24.667 0 58.667 8.33301 102 25l-5 -90c-47.333 -31.333 -97 -47 -149 -47c-43.333 0 -78.666 14.833 -105.999 44.5s-41 70.167 -41 121.5
c0 24 2.5 45.833 7.5 65.5s14.667 40.334 29 62.001s26.833 39 37.5 52s29 33.833 55 62.5h-6v1040h172v-1040z" />
    <glyph glyph-name="Idotaccent" unicode="&#x130;" horiz-adv-x="596" 
d="M297 1808c32.667 0 61.334 -11.667 86.001 -35c23.333 -22 35 -50 35 -84c0 -35.333 -11.667 -64 -35 -86c-24.667 -23.333 -53.334 -35 -86.001 -35c-31.333 0 -59.333 11.667 -84 35s-37 52 -37 86c0 32.667 12.333 60.667 37 84s52.667 35 84 35zM204 1438h188v-1438
h-188v1438z" />
    <glyph glyph-name="dotlessi" unicode="&#x131;" horiz-adv-x="534" 
d="M181 1040h172v-1040h-172v1040z" />
    <glyph glyph-name="IJ" unicode="&#x132;" horiz-adv-x="1133" 
d="M180 1438h188v-1438h-188v1438zM953 354c0 -78 -4.33105 -144.331 -12.998 -198.998s-22.834 -103.334 -42.501 -146.001s-45.667 -81.834 -78 -117.501s-71.833 -73.5 -118.5 -113.5l-60.5 53c-21 18.667 -41.833 38.667 -62.5 60c36 36 65.833 67.5 89.5 94.5
s42.667 55.833 57 86.5s24.666 66 30.999 106s9.5 90.667 9.5 152v1108h188v-1084z" />
    <glyph glyph-name="ij" unicode="&#x133;" horiz-adv-x="993" 
d="M246 1443c16 0 30.833 -3 44.5 -9s25.5 -14 35.5 -24s18 -22 24 -36s9 -29 9 -45c0 -15.333 -3 -30 -9 -44s-14.167 -26.333 -24.5 -37s-22.333 -19 -36 -25s-28.167 -9 -43.5 -9c-16 0 -31 3 -45 9s-26.333 14.167 -37 24.5s-19 22.5 -25 36.5s-9 29 -9 45s3 31 9 45
s14.333 26 25 36s23 18 37 24s29 9 45 9zM750 1443c16 0 30.833 -3 44.5 -9s25.5 -14 35.5 -24s18 -22 24 -36s9 -29 9 -45c0 -15.333 -3 -30 -9 -44s-14.167 -26.333 -24.5 -37s-22.333 -19 -36 -25s-28.167 -9 -43.5 -9c-16 0 -31 3 -45 9s-26.333 14.167 -37 24.5
s-19 22.5 -25 36.5s-9 29 -9 45s3 31 9 45s14.333 26 25 36s23 18 37 24s29 9 45 9zM158 1040h172v-1040h-172v1040zM835 115c0 -72.667 -3.83203 -134.332 -11.499 -184.999s-20.667 -95.5 -39 -134.5s-42.333 -75 -72 -108s-65.834 -67.833 -108.501 -104.5l-57 48.5
c-19.333 17 -38.666 35.167 -57.999 54.5c32.667 34 60.167 63.667 82.5 89s40.166 52.166 53.499 80.499s23 61 29 98s9 83.5 9 139.5v947h172v-925z" />
    <glyph glyph-name="Kcommaaccent" unicode="&#x136;" horiz-adv-x="1313" 
d="M1014 1460l127 -102l-552 -654l600 -704h-226l-591 694v-694h-188v1438h188v-740zM543 -174c25.333 18 47.167 30.332 65.5 36.999s36.833 10 55.5 10c32.667 0 59 -6.5 79 -19.5s34.5 -29.667 43.5 -50s12.833 -43.5 11.5 -69.5s-7.33301 -52 -18 -78
c-7.33301 -17.333 -17 -37.666 -29 -60.999l-38 -72.5l-40.5 -73.5l-35.5 -62h-122l79 262z" />
    <glyph glyph-name="kcommaaccent" unicode="&#x137;" horiz-adv-x="1038" 
d="M169 1440h172v-866l468 489l113 -110l-405 -417l511 -536h-214l-473 500v-500h-172v1440zM480 -360l-50.999 177.001c43.333 31.333 83.666 47 120.999 47c41.333 0 73.833 -11 97.5 -33s35.834 -49.167 36.501 -81.5s-5.33301 -66.5 -18 -102.5
c-18.667 -44.667 -66.334 -134.334 -143.001 -269.001h-122z" />
    <glyph glyph-name="Lacute" unicode="&#x139;" horiz-adv-x="1042" 
d="M332 1833l-50.999 177.001c43.333 31.333 83.666 47 120.999 47c41.333 0 73.833 -11 97.5 -33s35.834 -49.167 36.501 -81.5s-5.33301 -66.5 -18 -102.5c-18.667 -44.667 -66.334 -134.334 -143.001 -269.001h-122zM195.001 1438h188v-1284h589v-154h-777v1438z" />
    <glyph glyph-name="lacute" unicode="&#x13a;" horiz-adv-x="475" 
d="M224 2020c25.333 18 47.167 30.332 65.5 36.999s36.833 10 55.5 10c32.667 0 59 -6.5 79 -19.5s34.5 -29.667 43.5 -50s12.833 -43.5 11.5 -69.5s-7.33301 -52 -18 -78c-7.33301 -17.333 -17 -37.666 -29 -60.999l-38 -72.5l-40.5 -73.5l-35.5 -62h-122l79 262z
M312.001 403.999c0 -54.667 0.666992 -100.501 2 -137.501s3 -69.5 5 -97.5s5.16699 -53.333 9.5 -76s9.83301 -47.667 16.5 -75c-28 -7.33301 -56 -14.166 -84 -20.499s-56 -11.833 -84 -16.5c-13.333 43.333 -22.833 83 -28.5 119s-8.5 71.333 -8.5 106v1232h172v-1034z
" />
    <glyph glyph-name="Lcommaaccent" unicode="&#x13b;" horiz-adv-x="1042" 
d="M195 1438h188v-1284h589v-154h-777v1438zM499 -360l-50.999 177.001c43.333 31.333 83.666 47 120.999 47c41.333 0 73.833 -11 97.5 -33s35.834 -49.167 36.501 -81.5s-5.33301 -66.5 -18 -102.5c-18.667 -44.667 -66.334 -134.334 -143.001 -269.001h-122z" />
    <glyph glyph-name="lcommaaccent" unicode="&#x13c;" horiz-adv-x="475" 
d="M312 404c0 -54.667 0.666992 -100.501 2 -137.501s3 -69.5 5 -97.5s5.16699 -53.333 9.5 -76s9.83301 -47.667 16.5 -75c-28 -7.33301 -56 -14.166 -84 -20.499s-56 -11.833 -84 -16.5c-13.333 43.333 -22.833 83 -28.5 119s-8.5 71.333 -8.5 106v1232h172v-1034z
M128 -174.001c25.333 18 47.167 30.332 65.5 36.999s36.833 10 55.5 10c32.667 0 59 -6.5 79 -19.5s34.5 -29.667 43.5 -50s12.833 -43.5 11.5 -69.5s-7.33301 -52 -18 -78c-7.33301 -17.333 -17 -37.666 -29 -60.999l-38 -72.5l-40.5 -73.5l-35.5 -62h-122l79 262z" />
    <glyph glyph-name="Lcaron" unicode="&#x13d;" horiz-adv-x="1042" 
d="M805 1236l-50.999 177.001c43.333 31.333 83.666 47 120.999 47c41.333 0 73.833 -11 97.5 -33s35.834 -49.167 36.501 -81.5s-5.33301 -66.5 -18 -102.5c-18.667 -44.667 -66.334 -134.334 -143.001 -269.001h-122zM195.001 1438h188v-1284h589v-154h-777v1438z" />
    <glyph glyph-name="lcaron" unicode="&#x13e;" horiz-adv-x="475" 
d="M499 1561c28 20 52.167 33.667 72.5 41s40.833 11 61.5 11c36.667 0 66.167 -7 88.5 -21s38.333 -32.167 48 -54.5s13.5 -47.833 11.5 -76.5s-9 -57.667 -21 -87c-8 -18.667 -18.5 -41 -31.5 -67l-42 -80l-45 -80.5l-38.5 -68.5h-134l87 289zM312 404
c0 -54.667 0.666992 -100.501 2 -137.501s3 -69.5 5 -97.5s5.16699 -53.333 9.5 -76s9.83301 -47.667 16.5 -75c-28 -7.33301 -56 -14.166 -84 -20.499s-56 -11.833 -84 -16.5c-13.333 43.333 -22.833 83 -28.5 119s-8.5 71.333 -8.5 106v1232h172v-1034z" />
    <glyph glyph-name="Ldot" unicode="&#x13f;" horiz-adv-x="1032" 
d="M927 0h-777v1438h188v-1284h589v-154zM685 923c16.667 0 32.335 -3.16797 47.002 -9.50098s27.5 -14.833 38.5 -25.5s19.667 -23.167 26 -37.5s9.5 -29.833 9.5 -46.5c0 -18 -3.33301 -34.5 -10 -49.5s-15.5 -27.667 -26.5 -38s-23.833 -18.5 -38.5 -24.5s-30 -9 -46 -9
s-31.333 3.16699 -46 9.5s-27.5 15 -38.5 26s-19.833 23.833 -26.5 38.5s-10 30.334 -10 47.001s3.5 32.167 10.5 46.5s16.167 26.833 27.5 37.5s24.166 19.167 38.499 25.5s29.166 9.5 44.499 9.5z" />
    <glyph glyph-name="ldot" unicode="&#x140;" horiz-adv-x="692" 
d="M312 404c0 -54.667 0.666992 -100.501 2 -137.501s3 -69.5 5 -97.5s5.16699 -53.333 9.5 -76s9.83301 -47.667 16.5 -75c-28 -7.33301 -56 -14.166 -84 -20.499s-56 -11.833 -84 -16.5c-13.333 43.333 -22.833 83 -28.5 119s-8.5 71.333 -8.5 106v1232h172v-1034z
M551 869.999c16.667 0 32.335 -3.16797 47.002 -9.50098s27.5 -14.833 38.5 -25.5s19.667 -23.167 26 -37.5s9.5 -29.833 9.5 -46.5c0 -18 -3.33301 -34.5 -10 -49.5s-15.5 -27.667 -26.5 -38s-23.833 -18.5 -38.5 -24.5s-30 -9 -46 -9s-31.333 3.16699 -46 9.5
s-27.5 15 -38.5 26s-19.833 23.833 -26.5 38.5s-10 30.334 -10 47.001s3.5 32.167 10.5 46.5s16.167 26.833 27.5 37.5s24.166 19.167 38.499 25.5s29.166 9.5 44.499 9.5z" />
    <glyph glyph-name="Lslash" unicode="&#x141;" horiz-adv-x="1076" 
d="M394 156h589v-156h-777v639l-206 -111v151l206 111v648h188v-548l344 184v-151l-344 -184v-583z" />
    <glyph glyph-name="lslash" unicode="&#x142;" horiz-adv-x="455" 
d="M478 972v-151.001l-176 -99v-318c0 -54.667 0.666992 -100.5 2 -137.5s3 -69.5 5 -97.5s5.16699 -53.333 9.5 -76s9.83301 -47.667 16.5 -75c-28 -7.33301 -56 -14.166 -84 -20.499s-56 -11.833 -84 -16.5c-13.333 43.333 -22.833 83 -28.5 119s-8.5 71.333 -8.5 106v419
l-176 -99v151l176 99v662h172v-565z" />
    <glyph glyph-name="Nacute" unicode="&#x143;" horiz-adv-x="1529" 
d="M792 1833l-50.999 177.001c43.333 31.333 83.666 47 120.999 47c41.333 0 73.833 -11 97.5 -33s35.834 -49.167 36.501 -81.5s-5.33301 -66.5 -18 -102.5c-18.667 -44.667 -66.334 -134.334 -143.001 -269.001h-122zM1351 -9.99902h-220l-765 1202v-1192h-188v1438h220
l765 -1202v1202h188v-1448z" />
    <glyph glyph-name="nacute" unicode="&#x144;" horiz-adv-x="1147" 
d="M601 1473l-50.999 177.001c43.333 31.333 83.666 47 120.999 47c41.333 0 73.833 -11 97.5 -33s35.834 -49.167 36.501 -81.5s-5.33301 -66.5 -18 -102.5c-18.667 -44.667 -66.334 -134.334 -143.001 -269.001h-122zM135.001 1022l166.002 36.998
c12.667 -40 21.667 -78.667 27 -116c2.66699 -18 6 -53.667 10 -107h21c36.667 67.333 82 121 136 161c59.333 44 122 66 188 66c99.333 0 175 -24 227 -72c44.667 -40.667 75.667 -103 93 -187c11.333 -57.333 17 -142.666 17 -255.999v-548h-172v596
c0 99.333 -9.66699 170.333 -29 213c-28.667 63.333 -86.334 95 -173.001 95c-61.333 0 -121.333 -29.333 -180 -88c-39.333 -39.333 -81.333 -97 -126 -173v-643h-172v640c0 90 -2.33301 167.667 -7 233c-2.66699 40.667 -11.334 90.334 -26.001 149.001z" />
    <glyph glyph-name="Ncommaaccent" unicode="&#x145;" horiz-adv-x="1529" 
d="M1351 -10h-220l-765 1202v-1192h-188v1438h220l765 -1202v1202h188v-1448zM668 -360l-50.999 177.001c43.333 31.333 83.666 47 120.999 47c41.333 0 73.833 -11 97.5 -33s35.834 -49.167 36.501 -81.5s-5.33301 -66.5 -18 -102.5
c-18.667 -44.667 -66.334 -134.334 -143.001 -269.001h-122z" />
    <glyph glyph-name="ncommaaccent" unicode="&#x146;" horiz-adv-x="1147" 
d="M135 1022l166.002 36.998c12.667 -40 21.667 -78.667 27 -116c2.66699 -18 6 -53.667 10 -107h21c36.667 67.333 82 121 136 161c59.333 44 122 66 188 66c99.333 0 175 -24 227 -72c44.667 -40.667 75.667 -103 93 -187c11.333 -57.333 17 -142.666 17 -255.999v-548
h-172v596c0 99.333 -9.66699 170.333 -29 213c-28.667 63.333 -86.334 95 -173.001 95c-61.333 0 -121.333 -29.333 -180 -88c-39.333 -39.333 -81.333 -97 -126 -173v-643h-172v640c0 90 -2.33301 167.667 -7 233c-2.66699 40.667 -11.334 90.334 -26.001 149.001z
M507.002 -360.002l-50.999 177.001c43.333 31.333 83.666 47 120.999 47c41.333 0 73.833 -11 97.5 -33s35.834 -49.167 36.501 -81.5s-5.33301 -66.5 -18 -102.5c-18.667 -44.667 -66.334 -134.334 -143.001 -269.001h-122z" />
    <glyph glyph-name="Ncaron" unicode="&#x147;" horiz-adv-x="1529" 
d="M768 1761l242 141l71 -87l-313 -254l-317 254l71 87zM1351 -10h-220l-765 1202v-1192h-188v1438h220l765 -1202v1202h188v-1448z" />
    <glyph glyph-name="ncaron" unicode="&#x148;" horiz-adv-x="1147" 
d="M567 1391l242 141l71 -87l-313 -254l-317 254l71 87zM135 1022l166.002 36.998c12.667 -40 21.667 -78.667 27 -116c2.66699 -18 6 -53.667 10 -107h21c36.667 67.333 82 121 136 161c59.333 44 122 66 188 66c99.333 0 175 -24 227 -72
c44.667 -40.667 75.667 -103 93 -187c11.333 -57.333 17 -142.666 17 -255.999v-548h-172v596c0 99.333 -9.66699 170.333 -29 213c-28.667 63.333 -86.334 95 -173.001 95c-61.333 0 -121.333 -29.333 -180 -88c-39.333 -39.333 -81.333 -97 -126 -173v-643h-172v640
c0 90 -2.33301 167.667 -7 233c-2.66699 40.667 -11.334 90.334 -26.001 149.001z" />
    <glyph glyph-name="Eng" unicode="&#x14a;" horiz-adv-x="1521" 
d="M1164 1438l187 0.000976562v-1449c0 -95.333 -18 -182.333 -54 -261c-48.667 -105.333 -143.667 -190.333 -285 -255l-84 108c2.66699 2.66699 12.5 11.167 29.5 25.5l31 26c3.66699 3 12 10.333 25 22s22 20.167 27 25.5l21 23c9 10 16.5 19.167 22.5 27.5
s11.667 17.166 17 26.499c34 56.667 53.667 134.667 59 234l-793 1204v-1195h-187v1438h219l765 -1155v1155z" />
    <glyph glyph-name="eng" unicode="&#x14b;" horiz-adv-x="1190" 
d="M338 836h21.001c36.667 67.333 82 121 136 161c59.333 44 122 66 188 66c99.333 0 175 -24 227 -72c44.667 -40.667 75.667 -103 93 -187c11.333 -57.333 17 -142.666 17 -255.999v-404c0 -122 -12.333 -214.667 -37 -278
c-23.333 -60.667 -72.333 -132.334 -147 -215.001l-57 -63l-115 95c54.667 66 91 114.333 109 145c0.666992 1.33301 8.33398 15.666 23.001 42.999c34.667 72 52 158.667 52 260v465c0 99.333 -9.66699 170.333 -29 213c-28.667 63.333 -86.334 95 -173.001 95
c-61.333 0 -121.333 -29.333 -180 -88c-39.333 -39.333 -81.333 -97 -126 -173v-643h-172v640c0 90 -2.33301 167.667 -7 233c-2.66699 40.667 -11.334 90.334 -26.001 149.001l166 37c12.667 -40 21.667 -78.667 27 -116c2.66699 -18 6 -53.667 10 -107z" />
    <glyph glyph-name="Omacron" unicode="&#x14c;" horiz-adv-x="1482" 
d="M484 1719h513v-121h-513v121zM1372 719c0 -240.667 -54.333 -424.667 -163 -552s-264.667 -191 -468 -191c-201.333 0 -356.833 63.5 -466.5 190.5s-164.5 311.167 -164.5 552.5c0 240.667 55 424.334 165 551.001s265.333 190 466 190
c203.333 0 359.333 -63.833 468 -191.5s163 -310.834 163 -549.501zM1179 719c0 185.333 -36.5 329.001 -109.5 431.001s-182.833 153 -329.5 153c-147.333 0 -257 -51.5 -329 -154.5s-108 -246.167 -108 -429.5c0 -90 8.5 -170.5 25.5 -241.5s43 -132.333 78 -184
s80.667 -91.334 137 -119.001s121.833 -41.5 196.5 -41.5c146.667 0 256.5 51.167 329.5 153.5s109.5 246.5 109.5 432.5z" />
    <glyph glyph-name="omacron" unicode="&#x14d;" horiz-adv-x="1113" 
d="M812 1332v-121h-513v121h513zM555 1063c32.667 0 66.666 -2.5 101.999 -7.5s70 -14.5 104 -28.5c34 -14.667 66.167 -34.5 96.5 -59.5s57.166 -57.5 80.499 -97.5c23.333 -40.667 41.666 -89.5 54.999 -146.5s20 -124.833 20 -203.5s-6.66699 -146.5 -20 -203.5
s-31.666 -105.5 -54.999 -145.5c-23.333 -40.667 -50.166 -73.667 -80.499 -99s-62.5 -45 -96.5 -59c-34 -14.667 -68.667 -24.5 -104 -29.5s-69.333 -7.5 -102 -7.5c-32 0 -65.5 2.5 -100.5 7.5s-69.5 14.833 -103.5 29.5c-34 14 -66 33.667 -96 59s-56.667 58.333 -80 99
c-23.333 40 -41.666 88.5 -54.999 145.5s-20 124.833 -20 203.5s6.66699 146.5 20 203.5s31.666 105.833 54.999 146.5c23.333 40 50 72.5 80 97.5s62 44.833 96 59.5c34 14 68.333 23.5 103 28.5s68.334 7.5 101.001 7.5zM554.999 922c-38 0 -73.833 -6 -107.5 -18
s-63.167 -33 -88.5 -63c-26 -30.667 -46.667 -71.667 -62 -123s-23 -117.333 -23 -198c0 -80 7.66699 -145.833 23 -197.5s36 -92.5 62 -122.5c25.333 -30.667 54.833 -51.834 88.5 -63.501s69.5 -17.5 107.5 -17.5c38.667 0 75.167 5.83301 109.5 17.5
s64.5 32.834 90.5 63.501c26 30 46.5 70.833 61.5 122.5s22.5 117.5 22.5 197.5c0 80.667 -7.5 146.667 -22.5 198s-35.5 92.333 -61.5 123c-26 30 -56.167 51 -90.5 63s-70.833 18 -109.5 18z" />
    <glyph glyph-name="Ohungarumlaut" unicode="&#x150;" horiz-adv-x="1482" 
d="M574 1833l-50.999 177.001c43.333 31.333 83.666 47 120.999 47c41.333 0 73.833 -11 97.5 -33s35.834 -49.167 36.501 -81.5s-5.33301 -66.5 -18 -102.5c-18.667 -44.667 -66.334 -134.334 -143.001 -269.001h-122zM938.001 1833l-50.999 177.001
c43.333 31.333 83.666 47 120.999 47c41.333 0 73.833 -11 97.5 -33s35.834 -49.167 36.501 -81.5s-5.33301 -66.5 -18 -102.5c-18.667 -44.667 -66.334 -134.334 -143.001 -269.001h-122zM1372 719.002c0 -240.667 -54.333 -424.667 -163 -552s-264.667 -191 -468 -191
c-201.333 0 -356.833 63.5 -466.5 190.5s-164.5 311.167 -164.5 552.5c0 240.667 55 424.334 165 551.001s265.333 190 466 190c203.333 0 359.333 -63.833 468 -191.5s163 -310.834 163 -549.501zM1179 719.002c0 185.333 -36.5 329.001 -109.5 431.001
s-182.833 153 -329.5 153c-147.333 0 -257 -51.5 -329 -154.5s-108 -246.167 -108 -429.5c0 -90 8.5 -170.5 25.5 -241.5s43 -132.333 78 -184s80.667 -91.334 137 -119.001s121.833 -41.5 196.5 -41.5c146.667 0 256.5 51.167 329.5 153.5s109.5 246.5 109.5 432.5z" />
    <glyph glyph-name="ohungarumlaut" unicode="&#x151;" horiz-adv-x="1113" 
d="M329 1650c25.333 18 47.167 30.332 65.5 36.999s36.833 10 55.5 10c32.667 0 59 -6.5 79 -19.5s34.5 -29.667 43.5 -50s12.833 -43.5 11.5 -69.5s-7.33301 -52 -18 -78c-7.33301 -17.333 -17 -37.666 -29 -60.999l-38 -72.5l-40.5 -73.5l-35.5 -62h-122l79 262z
M693.001 1650c25.333 18 47.167 30.332 65.5 36.999s36.833 10 55.5 10c32.667 0 59 -6.5 79 -19.5s34.5 -29.667 43.5 -50s12.833 -43.5 11.5 -69.5s-7.33301 -52 -18 -78c-7.33301 -17.333 -17 -37.666 -29 -60.999l-38 -72.5l-40.5 -73.5l-35.5 -62h-122l79 262z
M555.002 1063c32.667 0 66.666 -2.5 101.999 -7.5s70 -14.5 104 -28.5c34 -14.667 66.167 -34.5 96.5 -59.5s57.166 -57.5 80.499 -97.5c23.333 -40.667 41.666 -89.5 54.999 -146.5s20 -124.833 20 -203.5s-6.66699 -146.5 -20 -203.5s-31.666 -105.5 -54.999 -145.5
c-23.333 -40.667 -50.166 -73.667 -80.499 -99s-62.5 -45 -96.5 -59c-34 -14.667 -68.667 -24.5 -104 -29.5s-69.333 -7.5 -102 -7.5c-32 0 -65.5 2.5 -100.5 7.5s-69.5 14.833 -103.5 29.5c-34 14 -66 33.667 -96 59s-56.667 58.333 -80 99
c-23.333 40 -41.666 88.5 -54.999 145.5s-20 124.833 -20 203.5s6.66699 146.5 20 203.5s31.666 105.833 54.999 146.5c23.333 40 50 72.5 80 97.5s62 44.833 96 59.5c34 14 68.333 23.5 103 28.5s68.334 7.5 101.001 7.5zM555.001 921.998c-38 0 -73.833 -6 -107.5 -18
s-63.167 -33 -88.5 -63c-26 -30.667 -46.667 -71.667 -62 -123s-23 -117.333 -23 -198c0 -80 7.66699 -145.833 23 -197.5s36 -92.5 62 -122.5c25.333 -30.667 54.833 -51.834 88.5 -63.501s69.5 -17.5 107.5 -17.5c38.667 0 75.167 5.83301 109.5 17.5
s64.5 32.834 90.5 63.501c26 30 46.5 70.833 61.5 122.5s22.5 117.5 22.5 197.5c0 80.667 -7.5 146.667 -22.5 198s-35.5 92.333 -61.5 123c-26 30 -56.167 51 -90.5 63s-70.833 18 -109.5 18z" />
    <glyph glyph-name="OE" unicode="&#x152;" horiz-adv-x="1982" 
d="M1034 1385l-0.000976562 53h798v-154h-610v-397h432v-156h-432v-577h632v-154h-820v53c-76 -50.667 -170.333 -76 -283 -76c-104.667 0 -198.667 18.667 -282 56c-105.333 47.333 -186.666 121 -243.999 221c-70 121.333 -105 278 -105 470c0 190.667 35 345.667 105 465
c58.667 100 140 173 244 219c83.333 35.333 177.333 53 282 53c112.667 0 207 -25.333 283 -76zM1034 235l0.000976562 970c-72.667 66 -167 99 -283 99c-130 0 -232.333 -41.333 -307 -124c-88 -98 -132 -250 -132 -456c0 -208.667 44 -363 132 -463
c75.333 -85.333 177.666 -128 306.999 -128c116.667 0 211 34 283 102z" />
    <glyph glyph-name="oe" unicode="&#x153;" horiz-adv-x="1849" 
d="M1748 469l-736.001 0.000976562c1.33301 -111.333 26.833 -197.166 76.5 -257.499s127.167 -90.5 232.5 -90.5c35.333 0 69 3 101 9s68 14.333 108 25c18 5.33301 36.333 11.166 55 17.499s37.667 13.166 57 20.499l50 -135c-54 -21.333 -107.833 -38.833 -161.5 -52.5
s-103.167 -22.167 -148.5 -25.5c-12.667 -1.33301 -25 -2.33301 -37 -3s-24 -1 -36 -1c-80 0 -149 12.333 -207 37s-106.667 60 -146 106c-5.33301 5.33301 -10.166 11 -14.499 17l-13.5 19c-22.667 -36 -48.334 -65.333 -77.001 -88s-58.667 -40.667 -90 -54
c-34 -14.667 -68.667 -24.5 -104 -29.5s-69.333 -7.5 -102 -7.5c-32 0 -65.5 2.5 -100.5 7.5s-69.5 14.833 -103.5 29.5c-34 14 -66 33.667 -96 59s-56.667 58.333 -80 99c-23.333 40 -41.666 88.5 -54.999 145.5s-20 124.833 -20 203.5s6.66699 146.5 20 203.5
s31.666 105.833 54.999 146.5c23.333 40 50 72.5 80 97.5s62 44.833 96 59.5c34 14 68.333 23.5 103 28.5s68.334 7.5 101.001 7.5s66.667 -2.5 102 -7.5s70 -14.5 104 -28.5c32.667 -14 64 -33.167 94 -57.5s56.333 -55.5 79 -93.5c26 40 56.333 73.667 91 101
c34 26.667 73.5 47.667 118.5 63s96.833 23 155.5 23s115 -8.5 169 -25.5s102 -46.5 144 -88.5c41.333 -42 74.333 -97.5 99 -166.5s37 -155.167 37 -258.5v-55zM754.999 200.001c26 30 46.5 70.833 61.5 122.5s22.5 117.5 22.5 197.5c0 80.667 -7.5 146.667 -22.5 198
s-35.5 92.333 -61.5 123c-26 30 -56.167 51 -90.5 63s-70.833 18 -109.5 18c-38 0 -73.833 -6 -107.5 -18s-63.167 -33 -88.5 -63c-26 -30.667 -46.667 -71.667 -62 -123s-23 -117.333 -23 -198c0 -80 7.66699 -145.833 23 -197.5s36 -92.5 62 -122.5
c25.333 -30.667 54.833 -51.834 88.5 -63.501s69.5 -17.5 107.5 -17.5c38.667 0 75.167 5.83301 109.5 17.5s64.5 32.834 90.5 63.501zM1575 607.001c-5.33301 108 -31.167 186.833 -77.5 236.5s-112.5 74.5 -198.5 74.5s-151.5 -24.833 -196.5 -74.5
s-72.167 -128.5 -81.5 -236.5h554z" />
    <glyph glyph-name="Racute" unicode="&#x154;" horiz-adv-x="1275" 
d="M524 2010c25.333 18 47.167 30.332 65.5 36.999s36.833 10 55.5 10c32.667 0 59 -6.5 79 -19.5s34.5 -29.667 43.5 -50s12.833 -43.5 11.5 -69.5s-7.33301 -52 -18 -78c-7.33301 -17.333 -17 -37.666 -29 -60.999l-38 -72.5l-40.5 -73.5l-35.5 -62h-122l79 262z
M635.001 1438c63.333 0 123.172 -7.33301 179.505 -22s106.166 -38 149.499 -70c44 -32.667 78.5 -74 103.5 -124s37.5 -109 37.5 -177s-12.5 -127 -37.5 -177s-59.5 -91.333 -103.5 -124c-34 -25.333 -71.833 -45 -113.5 -59s-86.167 -23.667 -133.5 -29l-1 -2
c19.333 -12.667 40.666 -30.5 63.999 -53.5s47.666 -50.167 72.999 -81.5l78 -101.5l81 -114.5l208 -303h-220l-226 350c-40.667 64 -75.834 115.667 -105.501 155s-57.834 70.333 -84.501 93c-26 22.667 -52.667 38 -80 46s-59 12 -95 12h-38v-656h-186v1438h450z
M635.007 801.999c42 0 80.333 4.66309 115 13.9961s64.5 23.833 89.5 43.5s44.5 44.834 58.5 75.501s21 67.334 21 110.001s-7 79.334 -21 110.001s-33.5 55.834 -58.5 75.501s-54.833 34.167 -89.5 43.5s-73 14 -115 14h-264v-486h264z" />
    <glyph glyph-name="racute" unicode="&#x155;" horiz-adv-x="833" 
d="M382 1620c25.333 18 47.167 30.332 65.5 36.999s36.833 10 55.5 10c32.667 0 59 -6.5 79 -19.5s34.5 -29.667 43.5 -50s12.833 -43.5 11.5 -69.5s-7.33301 -52 -18 -78c-7.33301 -17.333 -17 -37.666 -29 -60.999l-38 -72.5l-40.5 -73.5l-35.5 -62h-122l79 262z
M355.001 798.999c20.667 41.333 42.833 78.667 66.5 112s49.834 61.666 78.501 84.999c26 22.667 54.667 39.5 86 50.5s67 16.5 107 16.5c13.333 0 28.833 -0.666992 46.5 -2s34.5 -3.66602 50.5 -6.99902c-2.66699 -33.333 -5.83398 -64.666 -9.50098 -93.999
s-8.5 -59 -14.5 -89c-33.333 6 -63.833 10.333 -91.5 13s-53.834 2 -78.501 -2c-29.333 -5.33301 -54.833 -15.166 -76.5 -29.499s-41.667 -33.333 -60 -57s-36.166 -52 -53.499 -85l-57 -113.5v-597h-172v641c0 42 -0.5 79 -1.5 111s-3 62.5 -6 91.5s-7.5 57.667 -13.5 86
s-14 59.833 -24 94.5c28 7.33301 55.5 14 82.5 20s54.5 11.667 82.5 17c9.33301 -26.667 16.833 -50.334 22.5 -71.001s10.167 -40.834 13.5 -60.501s5.83301 -39.667 7.5 -60l5.5 -70.5h9z" />
    <glyph glyph-name="Rcommaaccent" unicode="&#x156;" horiz-adv-x="1275" 
d="M635 1438c63.333 0 123.172 -7.33301 179.505 -22s106.166 -38 149.499 -70c44 -32.667 78.5 -74 103.5 -124s37.5 -109 37.5 -177s-12.5 -127 -37.5 -177s-59.5 -91.333 -103.5 -124c-34 -25.333 -71.833 -45 -113.5 -59s-86.167 -23.667 -133.5 -29l-1 -2
c19.333 -12.667 40.666 -30.5 63.999 -53.5s47.666 -50.167 72.999 -81.5l78 -101.5l81 -114.5l208 -303h-220l-226 350c-40.667 64 -75.834 115.667 -105.501 155s-57.834 70.333 -84.501 93c-26 22.667 -52.667 38 -80 46s-59 12 -95 12h-38v-656h-186v1438h450z
M635.006 802c42 0 80.333 4.66309 115 13.9961s64.5 23.833 89.5 43.5s44.5 44.834 58.5 75.501s21 67.334 21 110.001s-7 79.334 -21 110.001s-33.5 55.834 -58.5 75.501s-54.833 34.167 -89.5 43.5s-73 14 -115 14h-264v-486h264zM525.006 -183.004
c25.333 18 47.167 30.332 65.5 36.999s36.833 10 55.5 10c32.667 0 59 -6.5 79 -19.5s34.5 -29.667 43.5 -50s12.833 -43.5 11.5 -69.5s-7.33301 -52 -18 -78c-7.33301 -17.333 -17 -37.666 -29 -60.999l-38 -72.5l-40.5 -73.5l-35.5 -62h-122l79 262z" />
    <glyph glyph-name="rcommaaccent" unicode="&#x157;" horiz-adv-x="833" 
d="M355 799c20.667 41.333 42.833 78.667 66.5 112s49.834 61.666 78.501 84.999c26 22.667 54.667 39.5 86 50.5s67 16.5 107 16.5c13.333 0 28.833 -0.666992 46.5 -2s34.5 -3.66602 50.5 -6.99902c-2.66699 -33.333 -5.83398 -64.666 -9.50098 -93.999
s-8.5 -59 -14.5 -89c-33.333 6 -63.833 10.333 -91.5 13s-53.834 2 -78.501 -2c-29.333 -5.33301 -54.833 -15.166 -76.5 -29.499s-41.667 -33.333 -60 -57s-36.166 -52 -53.499 -85l-57 -113.5v-597h-172v641c0 42 -0.5 79 -1.5 111s-3 62.5 -6 91.5s-7.5 57.667 -13.5 86
s-14 59.833 -24 94.5c28 7.33301 55.5 14 82.5 20s54.5 11.667 82.5 17c9.33301 -26.667 16.833 -50.334 22.5 -71.001s10.167 -40.834 13.5 -60.501s5.83301 -39.667 7.5 -60l5.5 -70.5h9zM152.999 -173.999c25.333 18 47.167 30.332 65.5 36.999s36.833 10 55.5 10
c32.667 0 59 -6.5 79 -19.5s34.5 -29.667 43.5 -50s12.833 -43.5 11.5 -69.5s-7.33301 -52 -18 -78c-7.33301 -17.333 -17 -37.666 -29 -60.999l-38 -72.5l-40.5 -73.5l-35.5 -62h-122l79 262z" />
    <glyph glyph-name="Rcaron" unicode="&#x158;" horiz-adv-x="1275" 
d="M810 1902l71 -87l-313 -254l-317 254l71 87l246 -141zM635 1438c63.333 0 123.172 -7.33301 179.505 -22s106.166 -38 149.499 -70c44 -32.667 78.5 -74 103.5 -124s37.5 -109 37.5 -177s-12.5 -127 -37.5 -177s-59.5 -91.333 -103.5 -124
c-34 -25.333 -71.833 -45 -113.5 -59s-86.167 -23.667 -133.5 -29l-1 -2c19.333 -12.667 40.666 -30.5 63.999 -53.5s47.666 -50.167 72.999 -81.5l78 -101.5l81 -114.5l208 -303h-220l-226 350c-40.667 64 -75.834 115.667 -105.501 155s-57.834 70.333 -84.501 93
c-26 22.667 -52.667 38 -80 46s-59 12 -95 12h-38v-656h-186v1438h450zM635.006 802c42 0 80.333 4.66309 115 13.9961s64.5 23.833 89.5 43.5s44.5 44.834 58.5 75.501s21 67.334 21 110.001s-7 79.334 -21 110.001s-33.5 55.834 -58.5 75.501s-54.833 34.167 -89.5 43.5
s-73 14 -115 14h-264v-486h264z" />
    <glyph glyph-name="rcaron" unicode="&#x159;" horiz-adv-x="833" 
d="M659 1522l71 -87l-313 -254l-317 254l71 87l246 -141zM355 799c20.667 41.333 42.833 78.667 66.5 112s49.834 61.666 78.501 84.999c26 22.667 54.667 39.5 86 50.5s67 16.5 107 16.5c13.333 0 28.833 -0.666992 46.5 -2s34.5 -3.66602 50.5 -6.99902
c-2.66699 -33.333 -5.83398 -64.666 -9.50098 -93.999s-8.5 -59 -14.5 -89c-33.333 6 -63.833 10.333 -91.5 13s-53.834 2 -78.501 -2c-29.333 -5.33301 -54.833 -15.166 -76.5 -29.499s-41.667 -33.333 -60 -57s-36.166 -52 -53.499 -85l-57 -113.5v-597h-172v641
c0 42 -0.5 79 -1.5 111s-3 62.5 -6 91.5s-7.5 57.667 -13.5 86s-14 59.833 -24 94.5c28 7.33301 55.5 14 82.5 20s54.5 11.667 82.5 17c9.33301 -26.667 16.833 -50.334 22.5 -71.001s10.167 -40.834 13.5 -60.501s5.83301 -39.667 7.5 -60l5.5 -70.5h9z" />
    <glyph glyph-name="Sacute" unicode="&#x15a;" horiz-adv-x="1196" 
d="M555 2017c25.333 18 47.167 30.332 65.5 36.999s36.833 10 55.5 10c32.667 0 59 -6.5 79 -19.5s34.5 -29.667 43.5 -50s12.833 -43.5 11.5 -69.5s-7.33301 -52 -18 -78c-7.33301 -17.333 -17 -37.666 -29 -60.999l-38 -72.5l-40.5 -73.5l-35.5 -62h-122l79 262z
M175.001 208.999c27.333 -10.667 56.165 -20.6611 86.498 -29.9941s61.333 -17.333 93 -24s63.5 -12 95.5 -16s63.333 -6 94 -6c52.667 0 100.334 6 143.001 18s79.334 29.5 110.001 52.5s54.334 51.333 71.001 85s25 72.167 25 115.5s-7.83301 78.833 -23.5 106.5
s-38.334 50.834 -68.001 69.501s-66.167 34.5 -109.5 47.5s-92.666 26.5 -147.999 40.5c-61.333 16 -117.833 33.833 -169.5 53.5s-96.334 45.167 -134.001 76.5s-67.167 70.166 -88.5 116.499s-32 104.166 -32 173.499c0 56.667 11.333 108 34 154s54.667 85.167 96 117.5
s91 57.166 149 74.499s122 26 192 26c34 0 68.667 -2.16699 104 -6.5s70.333 -10.166 105 -17.499s68.667 -16.333 102 -27s64.666 -22.334 93.999 -35.001l-60 -148l-73.5 28c-25 9.33301 -51.5 17.666 -79.5 24.999s-57.833 13.166 -89.5 17.499s-65.834 6.5 -102.501 6.5
s-71.667 -4 -105 -12s-62.833 -20.5 -88.5 -37.5s-46.167 -39.167 -61.5 -66.5s-23 -60.333 -23 -99c0 -43.333 7.83301 -78.833 23.5 -106.5s38.334 -50.834 68.001 -69.501s66.167 -34.5 109.5 -47.5s92.666 -26.5 147.999 -40.5c61.333 -16 117.833 -33.833 169.5 -53.5
s96.334 -45.167 134.001 -76.5s67.167 -70.333 88.5 -117s32 -104.334 32 -173.001c0 -72.667 -13.5 -135.834 -40.5 -189.501s-64.667 -98.167 -113 -133.5s-105.666 -61.666 -171.999 -78.999s-138.5 -26 -216.5 -26c-147.333 0 -290.333 28.333 -429 85z" />
    <glyph glyph-name="sacute" unicode="&#x15b;" horiz-adv-x="955" 
d="M443 1620c25.333 18 47.167 30.332 65.5 36.999s36.833 10 55.5 10c32.667 0 59 -6.5 79 -19.5s34.5 -29.667 43.5 -50s12.833 -43.5 11.5 -69.5s-7.33301 -52 -18 -78c-7.33301 -17.333 -17 -37.666 -29 -60.999l-38 -72.5l-40.5 -73.5l-35.5 -62h-122l79 262z
M477.001 1063c54.667 0 109.504 -5.66992 164.504 -17.0029s106.167 -27 153.5 -47c-9.33301 -21.333 -19 -42.333 -29 -63s-21 -41 -33 -61c-16.667 6.66699 -35.167 13.334 -55.5 20.001s-41.666 12.334 -63.999 17.001s-45.333 8.5 -69 11.5s-46.834 4.5 -69.501 4.5
c-24.667 0 -48.5 -2.5 -71.5 -7.5s-43.333 -13.167 -61 -24.5s-31.834 -26.166 -42.501 -44.499s-16 -41.166 -16 -68.499c0 -28 6 -51.5 18 -70.5s28.333 -34.833 49 -47.5s44.834 -23.334 72.501 -32.001s57.167 -16.667 88.5 -24c48.667 -12 94 -25.5 136 -40.5
s78.333 -34.5 109 -58.5s54.667 -53.667 72 -89s26 -79 26 -131c0 -54.667 -10.833 -101.667 -32.5 -141s-51 -71.833 -88 -97.5s-80.167 -44.667 -129.5 -57s-102 -18.5 -158 -18.5c-29.333 0 -59.5 1.83301 -90.5 5.5s-61.667 9 -92 16s-60.166 15.5 -89.499 25.5
s-57 21 -83 33c9.33301 21.333 19.166 42.166 29.499 62.499s21.166 40.5 32.499 60.5c22 -9.33301 45.333 -18.166 70 -26.499s50 -15.5 76 -21.5s51.667 -10.833 77 -14.5s49.666 -5.5 72.999 -5.5c29.333 0 57.833 3.33301 85.5 10s52.334 17.167 74.001 31.5
s39 32.833 52 55.5s19.5 50 19.5 82c0 30 -6.16699 54.667 -18.5 74s-28.833 35.5 -49.5 48.5s-44.834 23.667 -72.501 32s-56.834 16.166 -87.501 23.499c-46.667 11.333 -90.834 24.333 -132.501 39s-78 33.834 -109 57.501s-55.667 53 -74 88s-27.5 78.5 -27.5 130.5
c0 48.667 10 90.667 30 126s46.833 64.333 80.5 87s72.667 39.5 117 50.5s90.833 16.5 139.5 16.5z" />
    <glyph glyph-name="Scedilla" unicode="&#x15e;" horiz-adv-x="1196" 
d="M936 1226l-73.501 28.0088c-25 9.33301 -51.5 17.666 -79.5 24.999s-57.833 13.166 -89.5 17.499s-65.834 6.5 -102.501 6.5s-71.667 -4 -105 -12s-62.833 -20.5 -88.5 -37.5s-46.167 -39.167 -61.5 -66.5s-23 -60.333 -23 -99c0 -43.333 7.83301 -78.833 23.5 -106.5
s38.334 -50.834 68.001 -69.501s66.167 -34.5 109.5 -47.5s92.666 -26.5 147.999 -40.5c61.333 -16 117.833 -33.833 169.5 -53.5s96.334 -45.167 134.001 -76.5s67.167 -70.333 88.5 -117s32 -104.334 32 -173.001c0 -63.333 -10.333 -119.333 -31 -168
s-49.667 -90.5 -87 -125.5s-82 -63 -134 -84s-109.333 -35.5 -172 -43.5l-76 -95c52 -16 89 -35.667 111 -59s33 -53.666 33 -90.999c0 -28.667 -5.33301 -53.334 -16 -74.001s-25.5 -37.834 -44.5 -51.501s-41.5 -23.667 -67.5 -30s-54.333 -9.5 -85 -9.5
c-28 0 -56.667 2.83301 -86 8.5s-59.333 13.167 -90 22.5l50 92c26.667 -13.333 50.5 -23.833 71.5 -31.5s41.167 -11.5 60.5 -11.5c28 0 48.667 7.66699 62 23s20 32.666 20 51.999c0 24 -12.5 44.167 -37.5 60.5s-62.5 32.5 -112.5 48.5l84 139
c-145.333 1.33301 -286.666 29.666 -423.999 84.999l60 148c27.333 -10.667 56.166 -20.667 86.499 -30s61.333 -17.333 93 -24s63.5 -12 95.5 -16s63.333 -6 94 -6c52.667 0 100.334 6 143.001 18s79.334 29.5 110.001 52.5s54.334 51.333 71.001 85s25 72.167 25 115.5
s-7.83301 78.833 -23.5 106.5s-38.334 50.834 -68.001 69.501s-66.167 34.5 -109.5 47.5s-92.666 26.5 -147.999 40.5c-61.333 16 -117.833 33.833 -169.5 53.5s-96.334 45.167 -134.001 76.5s-67.167 70.166 -88.5 116.499s-32 104.166 -32 173.499
c0 56.667 11.333 108 34 154s54.667 85.167 96 117.5s91 57.166 149 74.499s122 26 192 26c34 0 68.667 -2.16699 104 -6.5s70.333 -10.166 105 -17.499s68.667 -16.333 102 -27s64.666 -22.334 93.999 -35.001z" />
    <glyph glyph-name="scedilla" unicode="&#x15f;" horiz-adv-x="955" 
d="M420 -23c-55.333 2 -111.828 9.99902 -169.495 23.999s-110.5 32.333 -158.5 55c9.33301 21.333 19.166 42.166 29.499 62.499s21.166 40.5 32.499 60.5c22 -9.33301 45.333 -18.166 70 -26.499s50 -15.5 76 -21.5s51.667 -10.833 77 -14.5s49.666 -5.5 72.999 -5.5
c29.333 0 57.833 3.33301 85.5 10s52.334 17.167 74.001 31.5s39 32.833 52 55.5s19.5 50 19.5 82c0 30 -6.16699 54.667 -18.5 74s-28.833 35.5 -49.5 48.5s-44.834 23.667 -72.501 32s-56.834 16.166 -87.501 23.499c-46.667 11.333 -90.834 24.333 -132.501 39
s-78 33.834 -109 57.501s-55.667 53 -74 88s-27.5 78.5 -27.5 130.5c0 48.667 10 90.667 30 126s46.833 64.333 80.5 87s72.667 39.5 117 50.5s90.833 16.5 139.5 16.5c54.667 0 109.5 -5.66699 164.5 -17s106.167 -27 153.5 -47c-9.33301 -21.333 -19 -42.333 -29 -63
s-21 -41 -33 -61c-16.667 6.66699 -35.167 13.334 -55.5 20.001s-41.666 12.334 -63.999 17.001s-45.333 8.5 -69 11.5s-46.834 4.5 -69.501 4.5c-24.667 0 -48.5 -2.5 -71.5 -7.5s-43.333 -13.167 -61 -24.5s-31.834 -26.166 -42.501 -44.499s-16 -41.166 -16 -68.499
c0 -28 6 -51.5 18 -70.5s28.333 -34.833 49 -47.5s44.834 -23.334 72.501 -32.001s57.167 -16.667 88.5 -24c48.667 -12 94 -25.5 136 -40.5s78.333 -34.5 109 -58.5s54.667 -53.667 72 -89s26 -79 26 -131c0 -46.667 -8 -87.834 -24 -123.501s-38 -66.167 -66 -91.5
s-61.167 -45.666 -99.5 -60.999s-79.833 -26 -124.5 -32l-75 -94c52 -16 89 -35.667 111 -59s33 -53.666 33 -90.999c0 -28.667 -5.33301 -53.334 -16 -74.001s-25.5 -37.834 -44.5 -51.501s-41.5 -23.667 -67.5 -30s-54.333 -9.5 -85 -9.5c-28 0 -56.667 2.83301 -86 8.5
s-59.333 13.167 -90 22.5l50 92c26.667 -13.333 50.5 -23.833 71.5 -31.5s41.167 -11.5 60.5 -11.5c28 0 48.667 7.66699 62 23s20 32.666 20 51.999c0 24 -12.5 44.167 -37.5 60.5s-62.5 32.5 -112.5 48.5z" />
    <glyph glyph-name="Scaron" unicode="&#x160;" horiz-adv-x="1196" 
d="M832 1919l71 -87l-313 -254l-317 254l71 87l246 -141zM175 209c27.333 -10.667 56.165 -20.6611 86.498 -29.9941s61.333 -17.333 93 -24s63.5 -12 95.5 -16s63.333 -6 94 -6c52.667 0 100.334 6 143.001 18s79.334 29.5 110.001 52.5s54.334 51.333 71.001 85
s25 72.167 25 115.5s-7.83301 78.833 -23.5 106.5s-38.334 50.834 -68.001 69.501s-66.167 34.5 -109.5 47.5s-92.666 26.5 -147.999 40.5c-61.333 16 -117.833 33.833 -169.5 53.5s-96.334 45.167 -134.001 76.5s-67.167 70.166 -88.5 116.499s-32 104.166 -32 173.499
c0 56.667 11.333 108 34 154s54.667 85.167 96 117.5s91 57.166 149 74.499s122 26 192 26c34 0 68.667 -2.16699 104 -6.5s70.333 -10.166 105 -17.499s68.667 -16.333 102 -27s64.666 -22.334 93.999 -35.001l-60 -148l-73.5 28c-25 9.33301 -51.5 17.666 -79.5 24.999
s-57.833 13.166 -89.5 17.499s-65.834 6.5 -102.501 6.5s-71.667 -4 -105 -12s-62.833 -20.5 -88.5 -37.5s-46.167 -39.167 -61.5 -66.5s-23 -60.333 -23 -99c0 -43.333 7.83301 -78.833 23.5 -106.5s38.334 -50.834 68.001 -69.501s66.167 -34.5 109.5 -47.5
s92.666 -26.5 147.999 -40.5c61.333 -16 117.833 -33.833 169.5 -53.5s96.334 -45.167 134.001 -76.5s67.167 -70.333 88.5 -117s32 -104.334 32 -173.001c0 -72.667 -13.5 -135.834 -40.5 -189.501s-64.667 -98.167 -113 -133.5s-105.666 -61.666 -171.999 -78.999
s-138.5 -26 -216.5 -26c-147.333 0 -290.333 28.333 -429 85z" />
    <glyph glyph-name="scaron" unicode="&#x161;" horiz-adv-x="955" 
d="M720 1522l71 -87l-313 -254l-317 254l71 87l246 -141zM477 1063c54.667 0 109.504 -5.66992 164.504 -17.0029s106.167 -27 153.5 -47c-9.33301 -21.333 -19 -42.333 -29 -63s-21 -41 -33 -61c-16.667 6.66699 -35.167 13.334 -55.5 20.001
s-41.666 12.334 -63.999 17.001s-45.333 8.5 -69 11.5s-46.834 4.5 -69.501 4.5c-24.667 0 -48.5 -2.5 -71.5 -7.5s-43.333 -13.167 -61 -24.5s-31.834 -26.166 -42.501 -44.499s-16 -41.166 -16 -68.499c0 -28 6 -51.5 18 -70.5s28.333 -34.833 49 -47.5
s44.834 -23.334 72.501 -32.001s57.167 -16.667 88.5 -24c48.667 -12 94 -25.5 136 -40.5s78.333 -34.5 109 -58.5s54.667 -53.667 72 -89s26 -79 26 -131c0 -54.667 -10.833 -101.667 -32.5 -141s-51 -71.833 -88 -97.5s-80.167 -44.667 -129.5 -57s-102 -18.5 -158 -18.5
c-29.333 0 -59.5 1.83301 -90.5 5.5s-61.667 9 -92 16s-60.166 15.5 -89.499 25.5s-57 21 -83 33c9.33301 21.333 19.166 42.166 29.499 62.499s21.166 40.5 32.499 60.5c22 -9.33301 45.333 -18.166 70 -26.499s50 -15.5 76 -21.5s51.667 -10.833 77 -14.5
s49.666 -5.5 72.999 -5.5c29.333 0 57.833 3.33301 85.5 10s52.334 17.167 74.001 31.5s39 32.833 52 55.5s19.5 50 19.5 82c0 30 -6.16699 54.667 -18.5 74s-28.833 35.5 -49.5 48.5s-44.834 23.667 -72.501 32s-56.834 16.166 -87.501 23.499
c-46.667 11.333 -90.834 24.333 -132.501 39s-78 33.834 -109 57.501s-55.667 53 -74 88s-27.5 78.5 -27.5 130.5c0 48.667 10 90.667 30 126s46.833 64.333 80.5 87s72.667 39.5 117 50.5s90.833 16.5 139.5 16.5z" />
    <glyph glyph-name="Tcommaaccent" unicode="&#x162;" horiz-adv-x="1237" 
d="M1157 1284l-441.997 -0.00488281v-1284h10l-89 -112c51.333 -16 88.166 -35.667 110.499 -59s33.5 -53.666 33.5 -90.999c0 -55.333 -19.333 -96.666 -58 -123.999s-90.334 -41 -155.001 -41c-50.667 0 -109.334 10.333 -176.001 31l50 92
c46.667 -28.667 90.667 -43 132 -43c26.667 0 47 7.33301 61 22s21 32.334 21 53.001c0 22.667 -12 42.334 -36 59.001s-62 33.334 -114 50.001l99 163h-77v1284h-447v154h1077v-154z" />
    <glyph glyph-name="tcommaaccent" unicode="&#x163;" horiz-adv-x="861" 
d="M782 895l-349.994 -0.00488281v-597c0 -40 1.16699 -70.5 3.5 -91.5s8.16602 -37.5 17.499 -49.5c17.333 -24 52.333 -36 105 -36c29.333 0 57.666 3 84.999 9c28 6 53.667 12.667 77 20c18.667 -40.667 35.667 -85.334 51 -134.001
c-54.667 -18.667 -113.667 -31 -177 -37l-72 -91c51.333 -16 88.166 -35.667 110.499 -59s33.5 -53.666 33.5 -90.999c0 -55.333 -19.333 -96.666 -58 -123.999s-90.334 -41 -155.001 -41c-50.667 0 -109.334 10.333 -176.001 31l50 92c46.667 -28.667 90.667 -43 132 -43
c26.667 0 47 7.33301 61 22s21 32.334 21 53.001c0 22.667 -12 42.334 -36 59.001s-62 33.334 -114 50.001l86 141c-78.667 6.66699 -134 33.667 -166 81c-20.667 30.667 -34.334 67.334 -41.001 110.001s-10 101.667 -10 177v549h-150v145h150v238h172v-238h350v-145z" />
    <glyph glyph-name="Tcaron" unicode="&#x164;" horiz-adv-x="1237" 
d="M622 1761l242 141l71 -87l-313 -254l-317 254l71 87zM80 1438h1077v-154h-442v-1284h-188v1284h-447v154z" />
    <glyph glyph-name="tcaron" unicode="&#x165;" horiz-adv-x="861" 
d="M986 1057l-50.999 177.001c43.333 31.333 83.666 47 120.999 47c41.333 0 73.833 -11 97.5 -33s35.834 -49.167 36.501 -81.5s-5.33301 -66.5 -18 -102.5c-18.667 -44.667 -66.334 -134.334 -143.001 -269.001h-122zM260.001 1278h172.003v-238h350v-145h-350v-597
c0 -40 1.16699 -70.5 3.5 -91.5s8.16602 -37.5 17.499 -49.5c17.333 -24 52.333 -36 105 -36c29.333 0 57.666 3 84.999 9c28 6 53.667 12.667 77 20c18.667 -40.667 35.667 -85.334 51 -134.001c-78.667 -26.667 -158 -40 -238 -40c-58 0 -104.5 6.5 -139.5 19.5
s-62.5 34.167 -82.5 63.5c-20.667 30.667 -34.334 67.334 -41.001 110.001s-10 101.667 -10 177v549h-150v145h150v238z" />
    <glyph glyph-name="Tbar" unicode="&#x166;" horiz-adv-x="1237" 
d="M1157 1284h-442v-437h178v-121h-178v-726h-188v726h-147v121h147v437h-447v154h1077v-154z" />
    <glyph glyph-name="tbar" unicode="&#x167;" horiz-adv-x="861" 
d="M782 895h-349.997v-294h188v-121h-188v-182c0 -40 1.16699 -70.5 3.5 -91.5s8.16602 -37.5 17.499 -49.5c17.333 -24 52.333 -36 105 -36c29.333 0 57.666 3 84.999 9c28 6 53.667 12.667 77 20c18.667 -40.667 35.667 -85.334 51 -134.001
c-78.667 -26.667 -158 -40 -238 -40c-58 0 -104.5 6.5 -139.5 19.5s-62.5 34.167 -82.5 63.5c-20.667 30.667 -34.334 67.334 -41.001 110.001s-10 101.667 -10 177v134h-153v121h153v294h-150v145h150v238h172v-238h350v-145z" />
    <glyph glyph-name="Umacron" unicode="&#x16a;" horiz-adv-x="1486" 
d="M485 1719h513v-121h-513v121zM1128 1438l187.999 0.000976562v-831c0 -209.333 -47 -366.833 -141 -472.5s-238.333 -158.5 -433 -158.5c-381.333 0 -572 210.333 -572 631v831h188v-832c0 -73.333 6.33301 -137.833 19 -193.5s33.334 -105 62.001 -148
s68.334 -75.667 119.001 -98s112 -33.5 184 -33.5c58.667 0 110.5 7.5 155.5 22.5s81.833 35.833 110.5 62.5s52.167 60.167 70.5 100.5s31.166 83.666 38.499 129.999s11 98.833 11 157.5v832z" />
    <glyph glyph-name="umacron" unicode="&#x16b;" horiz-adv-x="1158" 
d="M313 1332h513v-121h-513v121zM1028 18l-166.002 -36.9971c-12.667 40 -21.667 78.667 -27 116c-2.66699 17.333 -6 52.666 -10 105.999h-21c-36.667 -67.333 -82 -121 -136 -161c-59.333 -44 -122 -66 -188 -66c-99.333 0 -175 24 -227 72
c-44.667 40.667 -75.667 103 -93 187c-11.333 57.333 -17 142.666 -17 255.999v549h172v-597c0 -99.333 9.66699 -170.333 29 -213c28.667 -63.333 86.334 -95 173.001 -95c61.333 0 121.333 29.333 180 88c39.333 39.333 81.333 97 126 173v644h172v-642
c0 -88.667 2.33301 -165.667 7 -231c2.66699 -40.667 11.334 -90.334 26.001 -149.001z" />
    <glyph glyph-name="Uring" unicode="&#x16e;" horiz-adv-x="1486" 
d="M737 1922c24.667 0 47.834 -4.5 69.501 -13.5s40.5 -21.5 56.5 -37.5s28.5 -34.833 37.5 -56.5s13.5 -44.834 13.5 -69.501s-4.5 -47.834 -13.5 -69.501s-21.5 -40.5 -37.5 -56.5s-34.833 -28.5 -56.5 -37.5s-44.834 -13.5 -69.501 -13.5s-47.834 4.5 -69.501 13.5
s-40.5 21.5 -56.5 37.5s-28.5 34.833 -37.5 56.5s-13.5 44.834 -13.5 69.501s4.5 47.834 13.5 69.501s21.5 40.5 37.5 56.5s34.833 28.5 56.5 37.5s44.834 13.5 69.501 13.5zM737 1828c-23.333 0 -43 -8 -59 -24s-24 -35.667 -24 -59s8 -43 24 -59s35.667 -24 59 -24
s43 8 59 24s24 35.667 24 59s-8 43 -24 59s-35.667 24 -59 24zM1316 1438l0.00195312 -830.997c0 -207.333 -46.5 -364.333 -139.5 -471s-237.833 -160 -434.5 -160c-98.667 0 -183.834 13.667 -255.501 41s-131 67.666 -178 120.999s-81.833 119.166 -104.5 197.499
s-34 168.833 -34 271.5v831h188v-832c0 -70.667 6.16699 -135 18.5 -193s33.333 -107.833 63 -149.5s69.167 -73.834 118.5 -96.501s110.666 -34 183.999 -34c75.333 0 137.833 11.5 187.5 34.5s89.167 55.333 118.5 97s50 91.5 62 149.5s18 122 18 192v832h188z" />
    <glyph glyph-name="uring" unicode="&#x16f;" horiz-adv-x="1158" 
d="M559 1552c24.667 0 47.834 -4.5 69.501 -13.5s40.5 -21.5 56.5 -37.5s28.5 -34.833 37.5 -56.5s13.5 -44.834 13.5 -69.501s-4.5 -47.834 -13.5 -69.501s-21.5 -40.5 -37.5 -56.5s-34.833 -28.5 -56.5 -37.5s-44.834 -13.5 -69.501 -13.5s-47.834 4.5 -69.501 13.5
s-40.5 21.5 -56.5 37.5s-28.5 34.833 -37.5 56.5s-13.5 44.834 -13.5 69.501s4.5 47.834 13.5 69.501s21.5 40.5 37.5 56.5s34.833 28.5 56.5 37.5s44.834 13.5 69.501 13.5zM559 1458c-23.333 0 -43 -8 -59 -24s-24 -35.667 -24 -59s8 -43 24 -59s35.667 -24 59 -24
s43 8 59 24s24 35.667 24 59s-8 43 -24 59s-35.667 24 -59 24zM862 -19c-6.66699 20.667 -12.1699 40.8359 -16.5029 60.5029s-7.83301 38.167 -10.5 55.5s-4.66699 34.5 -6 51.5s-2.66602 35.167 -3.99902 54.5h-21c-17.333 -32 -37.333 -61.667 -60 -89
s-48 -51.333 -76 -72s-57.667 -36.834 -89 -48.501s-64.333 -17.5 -99 -17.5c-52 0 -96.5 6.16699 -133.5 18.5s-68.167 30.166 -93.5 53.499s-45.166 50.833 -59.499 82.5s-25.5 66.5 -33.5 104.5c-7.33301 38 -12 78.667 -14 122s-3 88 -3 134v549h172v-597
c0 -40 1.5 -78.333 4.5 -115s11.167 -69.334 24.5 -98.001s33.5 -51.667 60.5 -69s64.5 -26 112.5 -26c34.667 0 67 8.33301 97 25s57.667 37.667 83 63c26 26 49.333 54.333 70 85s39.334 60 56.001 88v644h172v-642c0 -54 0.666992 -99 2 -135s3 -68 5 -96
s5.16699 -53.167 9.5 -75.5s9.83301 -46.833 16.5 -73.5z" />
    <glyph glyph-name="Uhungarumlaut" unicode="&#x170;" horiz-adv-x="1486" 
d="M568 1833l-50.999 177.001c43.333 31.333 83.666 47 120.999 47c41.333 0 73.833 -11 97.5 -33s35.834 -49.167 36.501 -81.5s-5.33301 -66.5 -18 -102.5c-18.667 -44.667 -66.334 -134.334 -143.001 -269.001h-122zM932.001 1833l-50.999 177.001
c43.333 31.333 83.666 47 120.999 47c41.333 0 73.833 -11 97.5 -33s35.834 -49.167 36.501 -81.5s-5.33301 -66.5 -18 -102.5c-18.667 -44.667 -66.334 -134.334 -143.001 -269.001h-122zM1128 1438l187.999 0.000976562v-831c0 -209.333 -47 -366.833 -141 -472.5
s-238.333 -158.5 -433 -158.5c-381.333 0 -572 210.333 -572 631v831h188v-832c0 -73.333 6.33301 -137.833 19 -193.5s33.334 -105 62.001 -148s68.334 -75.667 119.001 -98s112 -33.5 184 -33.5c58.667 0 110.5 7.5 155.5 22.5s81.833 35.833 110.5 62.5
s52.167 60.167 70.5 100.5s31.166 83.666 38.499 129.999s11 98.833 11 157.5v832z" />
    <glyph glyph-name="uhungarumlaut" unicode="&#x171;" horiz-adv-x="1158" 
d="M379 1473l-50.999 177.001c43.333 31.333 83.666 47 120.999 47c41.333 0 73.833 -11 97.5 -33s35.834 -49.167 36.501 -81.5s-5.33301 -66.5 -18 -102.5c-18.667 -44.667 -66.334 -134.334 -143.001 -269.001h-122zM743.001 1473l-50.999 177.001
c43.333 31.333 83.666 47 120.999 47c41.333 0 73.833 -11 97.5 -33s35.834 -49.167 36.501 -81.5s-5.33301 -66.5 -18 -102.5c-18.667 -44.667 -66.334 -134.334 -143.001 -269.001h-122zM1028 18.002l-166.002 -36.9971c-12.667 40 -21.667 78.667 -27 116
c-2.66699 17.333 -6 52.666 -10 105.999h-21c-36.667 -67.333 -82 -121 -136 -161c-59.333 -44 -122 -66 -188 -66c-99.333 0 -175 24 -227 72c-44.667 40.667 -75.667 103 -93 187c-11.333 57.333 -17 142.666 -17 255.999v549h172v-597
c0 -99.333 9.66699 -170.333 29 -213c28.667 -63.333 86.334 -95 173.001 -95c61.333 0 121.333 29.333 180 88c39.333 39.333 81.333 97 126 173v644h172v-642c0 -88.667 2.33301 -165.667 7 -231c2.66699 -40.667 11.334 -90.334 26.001 -149.001z" />
    <glyph glyph-name="Uogonek" unicode="&#x172;" horiz-adv-x="1486" 
d="M1128 1438l187.997 0.000976562v-831c0 -198.667 -42.167 -350.5 -126.5 -455.5s-213.833 -162.833 -388.5 -173.5c-31.333 -38.667 -54.166 -71.5 -68.499 -98.5s-21.5 -54.833 -21.5 -83.5c0 -61.333 23.667 -92 71 -92c24.667 0 58.667 8.33301 102 25l-5 -90
c-47.333 -31.333 -97 -47 -149 -47c-43.333 0 -78.666 14.833 -105.999 44.5s-41 70.167 -41 121.5c0 42 8.33301 78 25 108s44.667 67 84 111c-348 18.667 -522 228.667 -522 630v831h188v-832c0 -73.333 6.33301 -137.833 19 -193.5s33.334 -105 62.001 -148
s68.334 -75.667 119.001 -98s112 -33.5 184 -33.5c58.667 0 110.5 7.5 155.5 22.5s81.833 35.833 110.5 62.5s52.167 60.167 70.5 100.5s31.166 83.666 38.499 129.999s11 98.833 11 157.5v832z" />
    <glyph glyph-name="uogonek" unicode="&#x173;" horiz-adv-x="1158" 
d="M1028 18l-76.0029 -16.998c-39.333 -47.333 -67.333 -85.333 -84 -114s-25 -59 -25 -91c0 -61.333 23.667 -92 71 -92c24.667 0 58.667 8.33301 102 25l-5 -90c-47.333 -31.333 -97 -47 -149 -47c-43.333 0 -78.666 14.833 -105.999 44.5s-41 70.167 -41 121.5
c0 24.667 2.5 46.834 7.5 66.501s15.833 41.5 32.5 65.5s29.667 41.5 39 52.5l59 67.5c-8 30.667 -14 59.667 -18 87c-2.66699 17.333 -6 52.666 -10 105.999h-21c-36.667 -67.333 -82 -121 -136 -161c-59.333 -44 -122 -66 -188 -66c-99.333 0 -175 24 -227 72
c-44.667 40.667 -75.667 103 -93 187c-11.333 57.333 -17 142.666 -17 255.999v549h172v-597c0 -99.333 9.66699 -170.333 29 -213c28.667 -63.333 86.334 -95 173.001 -95c61.333 0 121.333 29.333 180 88c39.333 39.333 81.333 97 126 173v644h172v-642
c0 -88.667 2.33301 -165.667 7 -231c2.66699 -40.667 11.334 -90.334 26.001 -149.001z" />
    <glyph glyph-name="Wcircumflex" unicode="&#x174;" horiz-adv-x="1850" 
d="M607 1648l317 254l313 -254l-71 -87l-242 141l-246 -141zM1777 1437l-173 -1437h-279l-400 1245l-400 -1245h-279l-173 1437h183l150 -1210h10l397 1210h224l397 -1210h10l150 1210h183z" />
    </font>
</defs>
</svg>
